<?xml version="1.0" encoding="UTF-8"?>
<svg version="1.1" xmlns="http://www.w3.org/2000/svg" width="2560" height="1533">
<path d="M0 0 C0.98475815 -0.00525696 1.9695163 -0.01051392 2.9841156 -0.01593018 C6.22769212 -0.02909241 9.47077425 -0.02040113 12.71435547 -0.01025391 C14.98249403 -0.01227669 17.25063196 -0.01518983 19.51876831 -0.01895142 C24.27152705 -0.0233705 29.02411645 -0.01696054 33.77685547 -0.00292969 C39.83901638 0.01410313 45.90077704 0.00435565 51.96292305 -0.01364708 C56.64896598 -0.0245462 61.33491586 -0.02100958 66.02096176 -0.0132637 C68.25425134 -0.01127555 70.48754962 -0.01367178 72.72082901 -0.02070236 C104.10747143 -0.09778853 104.10747143 -0.09778853 113.95654297 9.38818359 C114.47474609 9.84451172 114.99294922 10.30083984 115.52685547 10.77099609 C123.31574679 18.55988742 126.71388395 31.03678833 129.77026367 41.35253906 C130.02517484 42.20903486 130.280086 43.06553066 130.54272175 43.94798088 C133.82349971 55.13969433 136.61515628 66.4569329 139.43701172 77.77099609 C140.04803088 80.20579035 140.6595077 82.64046979 141.27140808 85.07504272 C142.56357937 90.21925803 143.85325212 95.36408877 145.14056396 100.50952148 C148.19478456 112.71643837 151.26368132 124.9196713 154.3318634 137.12308502 C155.01164364 139.82688597 155.69121024 142.53074048 156.37059021 145.23464203 C161.45204101 165.4577356 166.58816225 185.66565333 171.80585098 205.85399628 C180.85421898 240.86703796 189.66861115 275.93874731 198.49011517 311.00944901 C206.91229688 344.49232677 215.34032734 377.97271985 223.97660065 411.40117264 C229.74201182 433.71996967 235.41027016 456.06279519 241.04248047 478.41552734 C241.222074 479.12827458 241.40166754 479.84102181 241.5867033 480.57536745 C245.41432441 495.7668966 249.23721326 510.95961504 253.05652428 526.15323544 C254.25891467 530.93637151 255.46191417 535.71935434 256.66503012 540.50230795 C257.77659925 544.92172825 258.88655764 549.34155126 259.9961853 553.76145935 C262.5740133 564.02044954 265.16066956 574.27724801 267.8203125 584.51538086 C268.02430098 585.309793 268.22828945 586.10420515 268.4384594 586.92269039 C269.13074767 590.44344526 269.13074767 590.44344526 270.95654297 593.38818359 C274.45734881 578.55504037 277.95721982 563.72167667 281.45654297 548.88818359 C281.73108936 547.72440437 282.00563576 546.56062515 282.28850174 545.3615799 C289.38329882 515.2865867 296.47164145 485.21008748 303.54638672 455.13037109 C303.78485109 454.1165079 303.78485109 454.1165079 304.02813292 453.08216262 C305.82015101 445.4631509 307.61205649 437.8441127 309.40393066 430.22506714 C310.06729859 427.40443862 310.73066952 424.58381081 311.39404297 421.76318359 C311.64232566 420.70749735 311.64232566 420.70749735 311.89562416 419.6304841 C322.97471501 372.52307492 334.08114227 325.42217636 345.20654297 278.32568359 C348.03753949 266.34137174 350.86842481 254.35703363 353.69873047 242.37255859 C353.8715938 241.64059777 354.04445713 240.90863694 354.22255874 240.15449548 C362.51130356 205.05634455 370.774915 169.95229296 379.03186035 134.84664917 C379.30511139 133.68488317 379.57836243 132.52311716 379.8598938 131.32614613 C380.40148584 129.02317722 380.94297047 126.72018306 381.48434448 124.4171629 C382.78552986 118.88216285 384.08817389 113.34751609 385.39440918 107.81370544 C387.74391023 97.85275001 390.07789058 87.88896692 392.35597038 77.91139889 C393.4131388 73.28586074 394.47937305 68.6624325 395.54628372 64.03913307 C396.04330993 61.87381114 396.53598549 59.70748461 397.02369308 57.54004478 C399.35798098 47.16972999 401.85310831 36.94954716 405.43457031 26.92993164 C405.69626825 26.18028295 405.95796619 25.43063425 406.22759438 24.65826893 C409.2420713 16.64961693 414.27452372 9.08914345 422.17529297 5.33349609 C430.83238203 1.67293683 439.04151736 0.08546608 448.41674805 0.11352539 C449.31562241 0.10841446 450.21449677 0.10330353 451.14060974 0.09803772 C454.08583401 0.0842393 457.03082165 0.08509131 459.97607422 0.08740234 C462.04196762 0.08350969 464.10786024 0.07917385 466.17375183 0.07441711 C470.49501138 0.06697555 474.8161892 0.06723092 479.13745117 0.07250977 C484.64811215 0.07829753 490.15843628 0.06137989 495.66904163 0.03816509 C499.93383203 0.02336149 504.19854257 0.02256511 508.46335411 0.02567482 C510.49372715 0.0251648 512.52410504 0.01998774 514.5544529 0.0098629 C543.9306297 -0.11865191 543.9306297 -0.11865191 555.63232422 9.81005859 C571.4672297 26.34055424 573.62846751 57.33806379 578.65209198 78.87120819 C579.71950058 83.44218274 580.79154537 88.01206971 581.86328125 92.58203125 C583.29370809 98.68251068 584.72378873 104.78307032 586.15228271 110.88400269 C592.34775343 137.34308867 598.57354511 163.79504424 604.79828548 190.24725586 C605.99747547 195.34331329 607.19645071 200.43942121 608.39532471 205.53555298 C618.29015244 247.59566327 628.20658544 289.65062569 638.14404297 331.70068359 C638.45336834 333.00960275 638.76269324 334.31852202 639.07201767 335.62744141 C639.68996996 338.24232743 640.30792524 340.85721274 640.92588329 343.4720974 C642.31351857 349.3438659 643.70114716 355.21563598 645.08874106 361.08741426 C645.39621166 362.38851351 645.70368404 363.68961234 646.01115823 364.99071074 C653.08832655 394.9383689 660.15619694 424.88821755 667.21876907 454.83932114 C668.13665289 458.73189632 669.05464318 462.62444639 669.97262573 466.51699829 C675.98304444 492.004524 681.98692054 517.49354636 687.96044922 542.98974609 C688.19052862 543.97161266 688.42060802 544.95347923 688.65765953 545.96509933 C690.77877596 555.01723393 692.898948 564.06958587 695.01391506 573.12315941 C695.74675349 576.25931113 696.48062522 579.39522044 697.21471977 582.53107834 C697.54844307 583.95791922 697.88165502 585.38487981 698.2143116 586.81196976 C698.66131573 588.72959389 699.11014441 590.64679244 699.55908203 592.56396484 C699.80692444 593.62526611 700.05476685 594.68656738 700.31011963 595.7800293 C700.94171271 598.474889 700.94171271 598.474889 701.95654297 601.38818359 C702.1855278 600.49063858 702.41451263 599.59309357 702.6504364 598.66835022 C713.12374762 557.62029661 723.61971801 516.57847217 734.26904297 475.57568359 C736.0088593 468.87652533 737.74858353 462.1773432 739.48779297 455.47802734 C739.70708088 454.63336977 739.92636879 453.7887122 740.15230179 452.91845894 C745.88540211 430.83213452 751.57730093 408.73519507 757.26904297 386.63818359 C757.79805124 384.58454289 758.32706328 382.53090316 758.8560791 380.4772644 C759.91632858 376.36134539 760.97657087 372.24542452 762.0368042 368.12950134 C762.29937767 367.11016951 762.56195114 366.09083767 762.83248138 365.04061699 C763.36338148 362.97959108 763.89427034 360.91856228 764.42514801 358.85753059 C770.28293359 336.11598106 776.14995831 313.37681932 782.01904297 290.63818359 C782.51664318 288.7102867 783.01424246 286.78238956 783.51184082 284.85449219 C785.50042001 277.14997135 787.48902813 269.44545799 789.47772217 261.7409668 C793.23385626 247.18901671 796.98887597 232.63677927 800.74342155 218.08441925 C803.49229925 207.4299776 806.2415119 196.7756227 808.99194336 186.12158203 C809.73409116 183.24674775 810.47623738 180.37191307 811.21838188 177.49707794 C811.71280514 175.58184848 812.20723695 173.66662122 812.70167732 171.75139618 C815.77501769 159.84637488 818.84547533 147.94061572 821.91224957 136.03390121 C824.0057801 127.90596788 826.10093192 119.77845356 828.19717121 111.65121841 C829.43198692 106.86339213 830.66597698 102.07535694 831.8977356 97.28674316 C836.31373403 80.12096157 840.74111574 62.95966324 845.42529297 45.86474609 C845.74147583 44.70471069 846.05765869 43.54467529 846.38342285 42.3494873 C849.88443783 29.70505871 854.153081 14.7974608 865.26904297 6.70458984 C878.49435902 -0.4379286 892.70252588 -0.07248557 907.28466797 -0.04541016 C909.44553795 -0.04997848 911.60640649 -0.05528597 913.76727295 -0.06129456 C918.27573588 -0.07018868 922.78402129 -0.06784231 927.29248047 -0.05786133 C933.05801611 -0.04633801 938.82294232 -0.06665377 944.58839798 -0.09577847 C949.04262144 -0.11414934 953.49669878 -0.11384685 957.95095062 -0.10814095 C960.07673756 -0.10798805 962.20253459 -0.11400627 964.32828522 -0.12643242 C967.30013617 -0.14136858 970.27085929 -0.13064808 973.24267578 -0.11352539 C974.11143341 -0.12319336 974.98019104 -0.13286133 975.87527466 -0.14282227 C982.89104147 -0.0585025 988.3106129 1.74225353 993.33154297 6.76318359 C1000.07239731 17.65225599 996.83992759 30.41338571 994.24560547 42.10424805 C992.35737005 50.12582248 989.79826094 57.92949524 987.22003174 65.75094604 C985.52053067 70.910695 983.85660151 76.08197652 982.18701172 81.25146484 C981.66119507 82.87538902 981.66119507 82.87538902 981.12475586 84.53211975 C977.33368199 96.26284536 973.7038399 108.04198099 970.08154297 119.82568359 C963.34138682 141.71999117 956.53298569 163.59229473 949.69397354 185.45588684 C947.54193455 192.33573681 945.39036628 199.21573404 943.23874474 206.09571457 C942.69577092 207.8319072 942.15278307 209.56809545 941.60978127 211.30427933 C935.69259124 230.22435982 929.7913092 249.14938499 923.89404297 268.07568359 C923.39647628 269.67246565 922.89890751 271.26924707 922.40133667 272.86602783 C920.41102391 279.25331825 918.42080421 285.64063766 916.43077087 292.02801514 C912.94141631 303.22773302 909.45124189 314.42719512 905.96044922 325.62646484 C905.71283278 326.42087667 905.46521633 327.21528851 905.21009636 328.03377342 C903.95925887 332.04673992 902.70840756 336.0597021 901.45755005 340.07266235 C899.20711497 347.29245794 896.95680238 354.5122917 894.70648003 361.73212242 C893.45650597 365.74247769 892.20652408 369.75283052 890.95654297 373.76318359 C890.45654293 375.36735025 889.95654293 376.97151692 889.45654297 378.57568359 C872.45654297 433.11735026 855.45654297 487.65901693 838.45654297 542.20068359 C838.08528683 543.39179811 838.08528683 543.39179811 837.70653057 544.60697556 C837.20657355 546.21100287 836.70661488 547.81502966 836.20665455 549.41905594 C834.95598335 553.43160052 833.70534099 557.44415409 832.45475769 561.45672607 C830.21280281 568.65007581 827.97065663 575.84336558 825.72740841 583.0363121 C824.48723557 587.01293246 823.24723502 590.98960652 822.00732422 594.96630859 C821.76140345 595.75502602 821.51548267 596.54374344 821.26210976 597.35636139 C817.87553081 608.21895907 814.49690494 619.08400313 811.12423706 629.95092773 C809.24399981 636.00902571 807.36152549 642.06642794 805.47859001 648.12368774 C804.2069337 652.21510504 802.936464 656.30688138 801.66918945 660.3996582 C798.46676508 670.74038605 795.23510267 681.07132846 791.95654297 691.38818359 C791.71804878 692.14018036 791.4795546 692.89217712 791.23383331 693.66696167 C789.78490385 698.22998143 788.32009066 702.78742566 786.8344059 707.33861542 C786.37516225 708.75081713 785.91994505 710.16433621 785.46925926 711.5792923 C782.84298024 719.80749015 779.81298738 727.19680684 774.95654297 734.38818359 C774.25529297 735.46068359 773.55404297 736.53318359 772.83154297 737.63818359 C759.16593904 750.70963083 739.3597158 749.5485723 721.82373047 749.55615234 C720.06031264 749.55937368 718.29689508 749.56273838 716.53347778 749.5662384 C712.84701927 749.57220161 709.16058409 749.57408129 705.47412109 749.57348633 C700.7946141 749.57338505 696.11526001 749.58701437 691.43578911 749.60425854 C687.79449808 749.61548429 684.15324273 749.6174023 680.51193619 749.6168766 C678.78909912 749.61804174 677.06626067 749.62237899 675.34344101 749.63020897 C638.42121297 749.78227296 638.42121297 749.78227296 626.89794922 738.79443359 C620.59460849 730.98184227 616.9899147 721.52610184 614.5925293 711.87817383 C614.38500691 711.06660796 614.17748453 710.2550421 613.96367359 709.41888332 C613.28427653 706.74446123 612.61843396 704.06698958 611.95654297 701.38818359 C611.72892147 700.46886677 611.50129997 699.54954994 611.26678085 698.60237503 C609.47492594 691.34054288 607.72019255 684.06988692 605.96826172 676.79833984 C605.39147434 674.41048053 604.81453021 672.02265907 604.23744202 669.63487244 C602.85155907 663.89845677 601.46752864 658.16159616 600.0844546 652.42450279 C598.95483129 647.7389489 597.82431013 643.05361239 596.6932373 638.3684082 C585.7863278 593.18822996 574.92681688 547.99671995 564.09165764 502.79928207 C558.60592289 479.91684217 553.105066 457.03804465 547.60319138 434.15948105 C540.53340913 404.76073017 533.46824035 375.36087802 526.41357422 345.95849609 C526.25376147 345.29243646 526.09394872 344.62637683 525.92929316 343.94013357 C524.14709557 336.51237031 522.36497618 329.08458829 520.58288574 321.65679932 C520.09768777 319.63448738 519.6124895 317.61217552 519.12729073 315.58986378 C518.80568449 314.24940663 518.4840788 312.90894935 518.16247368 311.56849194 C506.79000028 264.16793445 495.39138031 216.77373636 483.95654297 169.38818359 C481.99586529 173.82692416 480.90703959 178.33714785 479.80297852 183.04150391 C479.49103924 184.34987843 479.49103924 184.34987843 479.17279816 185.68468475 C478.47603105 188.61105238 477.78470266 191.53867832 477.09326172 194.46630859 C476.59364734 196.56887224 476.09366324 198.67134807 475.59333801 200.77374268 C474.51144082 205.3228641 473.43184373 209.87252298 472.35400391 214.42260742 C470.61999385 221.74215041 468.88068545 229.06042742 467.14013672 236.37841797 C466.69572455 238.24694176 466.69572455 238.24694176 466.24233437 240.1532135 C465.63562375 242.70403545 465.02889152 245.25485226 464.42213821 247.80566406 C463.64676997 251.06587753 462.87168751 254.32615862 462.09678185 257.58648205 C455.85683247 283.83953723 449.56867309 310.08096959 443.27233887 336.32055664 C440.21885702 349.04583981 437.1673522 361.77159698 434.11669922 374.49755859 C433.81582272 375.75267242 433.51494621 377.00778625 433.20495224 378.30093384 C426.21412441 407.46633073 419.25619715 436.63955239 412.30297852 465.81393433 C406.12794334 491.72308885 399.94476755 517.6302558 393.74169922 543.53271484 C393.4397571 544.79368296 393.13781498 546.05465107 392.8267231 547.35383034 C390.10855199 558.70540343 387.39023205 570.05694065 384.66885376 581.40774536 C376.30056767 616.31123081 376.30056767 616.31123081 368.05275726 651.24332619 C367.41215047 653.97706302 366.77058995 656.71057426 366.12872314 659.4440155 C365.71908622 661.18898832 365.30947874 662.93396805 364.89990234 664.67895508 C364.70280544 665.5186745 364.50570854 666.35839392 364.30263901 667.22355938 C363.3625938 671.23211024 362.42609147 675.24142522 361.49780273 679.25271606 C348.82998138 733.98976648 348.82998138 733.98976648 333.95654297 743.38818359 C323.99304212 747.63532646 313.81494069 748.53368222 303.1105957 748.54931641 C302.27666794 748.55428131 301.44274017 748.55924622 300.58354187 748.56436157 C297.85239809 748.57884315 295.12131243 748.58576267 292.39013672 748.59130859 C291.44749529 748.59413597 290.50485386 748.59696335 289.53364754 748.5998764 C284.54204153 748.61481435 279.55046401 748.62407707 274.55883789 748.62841797 C269.44766151 748.63388544 264.3367538 748.65789268 259.22566128 748.68638992 C255.25581645 748.70517255 251.28603424 748.7102302 247.31614876 748.71175385 C245.4342102 748.71474729 243.55227183 748.72266118 241.67037773 748.73593903 C208.80504023 748.95122157 208.80504023 748.95122157 197.95654297 739.38818359 C189.36962725 729.85898686 184.98681218 718.17983565 181.08154297 706.14208984 C180.73986084 705.10218399 180.39817871 704.06227814 180.04614258 702.99085999 C176.84720065 693.18845276 173.83815922 683.33131377 170.88955688 673.45117188 C169.18435143 667.73893161 167.46563446 662.0307452 165.74951172 656.32177734 C165.18794624 654.45185623 165.18794624 654.45185623 164.61503601 652.54415894 C159.79325558 636.49366721 154.91500836 620.4602892 150.04043579 604.42576981 C149.26543742 601.87632272 148.4906007 599.32682657 147.71582031 596.77731323 C140.20852099 572.07361737 132.69271973 547.37251169 125.17315674 522.67254639 C118.15570733 499.62177658 111.14728124 476.56827487 104.14404297 453.51318359 C103.89441677 452.69140877 103.64479057 451.86963394 103.38759995 451.02295685 C99.32169871 437.63787659 95.25628795 424.25264738 91.19093323 410.86740112 C87.38386684 398.33259197 83.57662789 385.79783525 79.76904297 373.26318359 C79.51917507 372.4406031 79.26930717 371.61802261 79.01186752 370.77051544 C71.83403475 347.14085444 64.64903144 323.51338757 57.45654297 299.88818359 C47.47953879 267.11666653 37.52072123 234.33963687 27.56526184 201.56156921 C23.42447026 187.92819681 19.2828825 174.29506639 15.14047241 160.66218567 C12.59491353 152.28445653 10.05005873 143.9065148 7.50683594 135.52807617 C6.52660998 132.29912935 5.54629723 129.07020888 4.56591797 125.84130859 C4.32732685 125.05547583 4.08873573 124.26964306 3.84291458 123.45999718 C0.72628499 113.19641811 -2.40202265 102.93648998 -5.5422802 92.68011665 C-6.91098281 88.20770164 -8.27627511 83.73424409 -9.64212036 79.26095581 C-10.35158502 76.94115213 -11.06282143 74.62188932 -11.77609253 72.30325317 C-27.18120947 22.2245824 -27.18120947 22.2245824 -21.04345703 8.38818359 C-16.13104332 0.31778963 -8.60513106 -0.05695291 0 0 Z " fill="#242E3D" transform="translate(830.04345703125,30.61181640625)"/>
<path d="M0 0 C1.19105408 0.67134268 2.38255026 1.34190154 3.57446289 2.01171875 C7.13904003 4.01806928 10.69512674 6.03900335 14.25 8.0625 C37.83933207 21.47871925 61.7031937 34.29402926 85.82783508 46.71543884 C91.92661175 49.85590008 98.00298669 53.03458766 104.0625 56.25 C170.53566694 91.40442859 240.22299783 121.74803855 310.25 149.0625 C310.95823914 149.33926575 311.66647827 149.61603149 312.3961792 149.90118408 C411.52121205 188.62640771 512.62208052 221.22920681 1090.1876564 322.18894958 C1092.09875566 322.30701737 1094.0097535 322.42672321 1095.92074585 322.54650879 C1105.3603454 323.12950901 1114.80291687 323.62105446 1124.25 324.0625 C1125.15878906 324.10524551 1126.06757812 324.14799103 1127.00390625 324.19203186 C1162.15610133 325.82916208 1197.25763023 326.38438485 1232.44580078 326.32324219 C1239.05730134 326.31183708 1245.66864097 326.31865264 1252.28013611 326.33011913 C1286.31463442 326.38014893 1320.25585228 325.74099616 1354.25 324.0625 C1355.06279671 324.02256172 1355.87559341 323.98262344 1356.71302032 323.94147491 C1366.48049176 323.45720982 1376.2410122 322.88337678 1386 322.25 C1387.96969757 322.12452789 1387.96969757 322.12452789 1389.97918701 321.996521 C1485.01947848 315.92674684 1579.50668545 303.85336179 1831.25 253.0625 C1832.28608398 252.80895752 1833.32216797 252.55541504 1834.38964844 252.29418945 C1886.86442017 239.44624671 1938.74657161 224.35064716 1990.25 208.0625 C1991.19196228 207.76512939 1992.13392456 207.46775879 1993.10443115 207.16137695 C2022.72544911 197.80171297 2052.0423716 187.63777219 2081.25 177.0625 C2082.15582825 176.73505798 2083.06165649 176.40761597 2083.99493408 176.07025146 C2111.66125201 166.06116213 2139.00203841 155.28648126 2166.2890625 144.2890625 C2167.89275948 143.64323463 2167.89275948 143.64323463 2169.52885437 142.98435974 C2175.08132516 140.74723041 2180.63018136 138.50162956 2186.17480469 136.24511719 C2188.41597244 135.33778394 2190.65718192 134.43055376 2192.8984375 133.5234375 C2193.92208405 133.10422028 2194.94573059 132.68500305 2196.00039673 132.25308228 C2210.6961775 126.32172192 2224.25522368 124.73750237 2239.25 131.0625 C2248.49979145 135.69443514 2254.87832256 143.32209851 2258.25 153.0625 C2260.89713524 162.20714902 2259.08743138 171.23736828 2254.99609375 179.63671875 C2248.25976386 191.62261362 2237.73382821 198.60302921 2226.71630859 206.33154297 C2224.33177694 208.00510557 2221.95610553 209.69055365 2219.58203125 211.37890625 C2182.74072414 237.4808619 2144.5319486 261.77027877 2104.98193359 283.5546875 C2102.54101114 284.90188474 2100.10661712 286.25971382 2097.67578125 287.625 C2093.21414574 290.12917724 2088.73566543 292.60165675 2084.25 295.0625 C2083.33202637 295.5673291 2082.41405273 296.0721582 2081.46826172 296.59228516 C2048.77758912 314.50811304 2015.35914645 331.0955302 1981.26580811 346.16851807 C1978.48313314 347.40259444 1975.70595782 348.64881607 1972.92851257 349.89460754 C1918.71978557 374.19624243 1863.03276699 395.16038814 1806.58496094 413.63916016 C1803.12807664 414.77174031 1799.67643284 415.91927248 1796.22653198 417.07292175 C1702.63184444 448.33329495 1605.66251228 470.35531851 1290.66186523 508.95535278 C1288.99580652 509.02936751 1287.3299566 509.10818292 1285.66430664 509.19088745 C1261.37400838 510.39144181 1237.0632081 510.26300833 1212.75 510.25 C1211.07714872 510.24959969 1211.07714872 510.24959969 1209.37050247 510.24919128 C1177.32059888 510.23955776 1145.31508093 510.204173 1113.31335449 508.24932861 C1109.98296322 508.0462139 1106.65215421 507.85094435 1103.32128906 507.65576172 C995.36824177 501.25188975 888.42839704 486.46019205 662.25 430.0625 C661.37867432 429.79648987 660.50734863 429.53047974 659.60961914 429.25640869 C616.33238927 416.01582643 573.4420776 401.440303 531.25 385.0625 C530.57698853 384.80142456 529.90397705 384.54034912 529.21057129 384.2713623 C458.46664617 356.78056358 388.25508501 325.50244672 321.92285156 288.53564453 C317.87307201 286.30360491 313.78798866 284.13873486 309.70678711 281.96484375 C297.11282547 275.24658767 284.74037191 268.21452453 272.45458984 260.95019531 C269.02542751 258.93021336 265.58623639 256.92818423 262.14453125 254.9296875 C247.61084522 246.48148381 233.23271117 237.83342052 219.03515625 228.82714844 C216.37208349 227.13985093 213.70260547 225.46320623 211.03125 223.7890625 C181.86864624 205.44873277 153.29662765 186.06354571 125.25 166.0625 C124.18579834 165.30549805 124.18579834 165.30549805 123.10009766 164.53320312 C112.33459705 156.86462735 101.77713534 148.94817102 91.28515625 140.91015625 C86.90161264 137.55316487 82.48894998 134.23758152 78.0625 130.9375 C65.83949595 121.80045591 53.81960517 112.41163184 42.01000977 102.74633789 C37.78192691 99.28958379 33.50313913 95.90896189 29.1875 92.5625 C23.50999191 88.14719978 18.061811 83.50370359 12.65307617 78.7644043 C8.99213678 75.55898893 5.28837252 72.4304868 1.5 69.375 C-3.17628479 65.59108316 -7.60004977 61.58231331 -12.0234375 57.5078125 C-14.5761621 55.2184062 -17.19097854 53.07012128 -19.875 50.9375 C-24.95843126 46.82234136 -29.77686619 42.4570771 -34.5625 38 C-35.28002441 37.33919434 -35.99754883 36.67838867 -36.73681641 35.99755859 C-43.25713968 29.86623619 -50.06520316 23.28141081 -51.0859375 14.01171875 C-51.23816554 1.30067729 -51.23816554 1.30067729 -46.75 -3.9375 C-31.11528925 -17.01901945 -15.68449978 -8.95147982 0 0 Z " fill="#FF9900" transform="translate(64.75,1013.9375)"/>
<path d="M0 0 C1.04317383 0.51626953 1.04317383 0.51626953 2.10742188 1.04296875 C10.81954401 5.41158331 19.04640507 10.3541283 27 16 C27.98613281 16.69867188 28.97226562 17.39734375 29.98828125 18.1171875 C37.49768426 23.59096764 44.29279121 29.5939312 51 36 C51.85464844 36.80179687 52.70929687 37.60359375 53.58984375 38.4296875 C60.47520131 45.06486619 66.34322382 52.31555716 72 60 C72.41217773 60.55719727 72.82435547 61.11439453 73.24902344 61.68847656 C107.10920593 108.15414198 120.26573825 170.49597768 120.12025452 227.14865112 C120.12110894 228.39384588 120.12196337 229.63904064 120.12284368 230.92196858 C120.12419328 234.33363496 120.12111695 237.74524242 120.11606562 241.1569016 C120.11170942 244.85266818 120.11321118 248.54843323 120.1139679 252.24420166 C120.11448988 258.6326019 120.11137725 265.02099185 120.10573006 271.4093895 C120.09757073 280.64571124 120.09499531 289.88202806 120.09374207 299.11835302 C120.09155849 314.10706238 120.08491728 329.09576627 120.07543945 344.08447266 C120.06624734 358.63655571 120.05917532 373.18863728 120.05493164 387.74072266 C120.05466892 388.63911719 120.05440619 389.53751173 120.05413551 390.46313034 C120.05283038 394.97053097 120.0515667 399.47793161 120.05032361 403.98533225 C120.03997262 441.32355869 120.02237325 478.66177892 120 516 C120.66 516 121.32 516 122 516 C122.03963867 516.85827393 122.07927734 517.71654785 122.12011719 518.60083008 C124.4185134 566.30524971 135.33364402 606.02834867 157.15014648 648.38061523 C157.45917908 648.98263763 157.76821167 649.58466003 158.08660889 650.20492554 C158.92039916 651.82471046 159.76108274 653.44094186 160.60229492 655.05688477 C164.36859389 662.98749332 165.66298803 671.1331133 163.23046875 679.71484375 C156.49639607 694.77727486 140.53778392 702.98438845 127.3125 711.5 C125.36449482 712.76578966 123.41722375 714.03270985 121.47070312 715.30078125 C118.62381116 717.15480328 115.77583805 719.00696501 112.92292786 720.85171509 C108.7536035 723.54792003 104.5963304 726.25633778 100.48510742 729.04052734 C99.80429611 729.50108521 99.1234848 729.96164307 98.42204285 730.43615723 C97.19529937 731.2697308 95.97165736 732.10789966 94.75215149 732.95202637 C86.76575569 738.38014324 77.6779081 741.45623695 68 740 C44.32753201 734.47872467 29.16872663 709.07397836 17 689.875 C7.53230202 674.04212663 -0.90422615 657.56809531 -9 641 C-9.75539063 641.75667969 -10.51078125 642.51335938 -11.2890625 643.29296875 C-12.77843063 644.78019082 -14.27031782 646.2649591 -15.7734375 647.73828125 C-18.77116261 650.68482568 -21.63586873 653.68568743 -24.375 656.875 C-30.01020266 663.39267287 -36.13192887 669.41793331 -42.6796875 675.015625 C-44.44988034 676.5295273 -46.20184782 678.06476703 -47.9453125 679.609375 C-62.8244161 692.72195908 -78.8002731 704.13636978 -96 714 C-96.8652832 714.49773926 -97.73056641 714.99547852 -98.62207031 715.50830078 C-146.41979442 742.79319123 -200.12840814 755.21377059 -255 755.25 C-255.92352264 755.25067474 -256.84704529 755.25134949 -257.79855347 755.25204468 C-322.0471891 755.17791457 -382.25216007 737.44909863 -428.625 691.6875 C-435.71988758 684.56116345 -442.15121222 677.17674402 -448 669 C-448.41797852 668.4210498 -448.83595703 667.84209961 -449.26660156 667.24560547 C-474.39253993 632.08278996 -487.02282935 588.03799433 -488 545 C-488.02046387 544.12263184 -488.04092773 543.24526367 -488.06201172 542.34130859 C-489.3195172 479.4556421 -472.21106366 420.04313151 -428 374 C-427.46358887 373.43635742 -426.92717773 372.87271484 -426.37451172 372.29199219 C-418.15305565 363.69305661 -409.56957177 356.06140709 -400 349 C-399.42781738 348.57235352 -398.85563477 348.14470703 -398.26611328 347.70410156 C-390.10159551 341.61929029 -381.67476925 336.11248192 -372.83837891 331.05273438 C-371.10839455 330.06207136 -369.3878344 329.05500258 -367.66796875 328.046875 C-348.10508797 317.0469466 -326.67954438 309.55761672 -305 304 C-304.09507812 303.76587402 -303.19015625 303.53174805 -302.2578125 303.29052734 C-291.43253131 300.53910171 -280.54189169 298.48441613 -269.5 296.8125 C-268.48188232 296.6575708 -267.46376465 296.5026416 -266.41479492 296.34301758 C-245.9033573 293.40733305 -225.57870554 292.62808051 -204.875 292.6875 C-203.5414023 292.68942457 -202.20780447 292.69126497 -200.87420654 292.69302368 C-180.50468567 292.73201744 -160.35727656 293.3286772 -140.12615967 295.74676514 C-137.90403354 296.01143002 -135.68091265 296.26623228 -133.45751953 296.52001953 C-94.84413932 300.97372305 -56.93737297 308.67522288 -19 317 C-19.06200948 306.40079611 -19.13965857 295.80182238 -19.23571491 285.20286942 C-19.2798899 280.2780047 -19.31925145 275.35321279 -19.34643555 270.42822266 C-19.62324444 221.78349142 -21.45744588 170.36977445 -52 130 C-52.55042969 129.26394531 -53.10085938 128.52789062 -53.66796875 127.76953125 C-76.93807696 98.98354554 -119.73734466 90.1657917 -154.4375 86.25 C-185.01423927 83.18031164 -216.58672335 83.64777028 -247 88 C-248.13405273 88.1556543 -249.26810547 88.31130859 -250.43652344 88.47167969 C-293.32422059 94.53281827 -335.39648444 107.94254658 -375.63378906 123.68457031 C-381.09858419 125.82007337 -386.57756274 127.91687202 -392.0625 130 C-392.99537842 130.36174316 -393.92825684 130.72348633 -394.8894043 131.09619141 C-405.43487982 135.10219824 -416.65004569 139.28933003 -427.8125 135.8125 C-433.7633877 132.4286619 -435.53632581 128.31547441 -437.36700439 121.99084473 C-438.56036699 116.35231864 -438.42609559 110.69472376 -438.3984375 104.953125 C-438.40046548 103.61089928 -438.40338289 102.26867464 -438.40713501 100.92645264 C-438.41153052 98.12599094 -438.40522206 95.32581839 -438.39111328 92.52539062 C-438.37408935 88.9777258 -438.38383651 85.43074559 -438.40183067 81.88310623 C-438.41280159 79.1134143 -438.40916111 76.34387787 -438.4014473 73.5741806 C-438.39853627 71.64362636 -438.40747983 69.71306549 -438.4168396 67.78253174 C-438.3242928 55.96078742 -437.67753 43.77727172 -429 35 C-428.47019531 34.4328125 -427.94039062 33.865625 -427.39453125 33.28125 C-369.78907107 -22.67107336 -239.90786678 -33.59606532 0 0 Z M-228.375 397.6875 C-229.31069824 397.85266113 -230.24639648 398.01782227 -231.21044922 398.18798828 C-246.66516497 401.09041532 -262.07648956 405.60807327 -276 413 C-276.61891113 413.31662598 -277.23782227 413.63325195 -277.87548828 413.95947266 C-288.04714615 419.18289043 -296.60197594 425.25621295 -305 433 C-305.66257812 433.58136719 -306.32515625 434.16273438 -307.0078125 434.76171875 C-319.32563811 446.13422286 -328.17319302 462.53235864 -333.3125 478.3125 C-333.54291992 479.00947998 -333.77333984 479.70645996 -334.01074219 480.42456055 C-338.38284349 494.81365313 -339.52811533 509.48459419 -339.375 524.4375 C-339.37067963 525.24360718 -339.36635925 526.04971436 -339.36190796 526.88024902 C-339.28717896 538.79267097 -338.87590176 550.38599907 -336 562 C-335.83371094 562.70882324 -335.66742188 563.41764648 -335.49609375 564.14794922 C-329.3503415 589.69265462 -313.97040727 613.14248116 -291.33911133 627.05981445 C-250.03912055 651.06337603 -198.78315489 646.61742707 -154.25 635.125 C-150.48936146 634.11914549 -146.74162358 633.07432756 -143 632 C-142.20110352 631.77086914 -141.40220703 631.54173828 -140.57910156 631.30566406 C-103.64978476 620.45521661 -68.28924595 596.62129739 -46 565 C-45.60232422 564.43990234 -45.20464844 563.87980469 -44.79492188 563.30273438 C-31.5859253 544.435848 -24.65966908 523.76863155 -20.75 501.1875 C-20.59885742 500.32568115 -20.44771484 499.4638623 -20.29199219 498.57592773 C-17.07110361 478.32177342 -16.7225383 457.95863479 -16.875 437.5 C-16.88506924 435.10417049 -16.89418799 432.70833679 -16.90234375 430.3125 C-16.92400027 424.54157255 -16.95715324 418.77080711 -17 413 C-31.74424797 409.33888267 -46.45923533 405.92538714 -61.4375 403.375 C-62.2766394 403.23003082 -63.11577881 403.08506165 -63.98034668 402.93569946 C-81.25513295 399.96339506 -98.55960927 397.72336765 -116 396 C-117.65563965 395.82428467 -117.65563965 395.82428467 -119.34472656 395.64501953 C-136.34911251 393.87843235 -153.35856667 393.79627053 -170.4375 393.75 C-171.54502625 393.74464233 -172.65255249 393.73928467 -173.79364014 393.73376465 C-192.12087275 393.66652121 -210.29450094 394.48775283 -228.375 397.6875 Z " fill="#242E3D" transform="translate(606,43)"/>
<path d="M0 0 C1.18342987 0.00215515 2.36685974 0.0043103 3.58615112 0.00653076 C22.07181274 0.06038353 40.18269258 0.64288475 58.5 3.3125 C59.21893433 3.41667236 59.93786865 3.52084473 60.67858887 3.62817383 C72.32086101 5.32467753 83.9179436 7.24685149 95.5 9.3125 C96.6245459 9.51069336 97.7490918 9.70888672 98.90771484 9.91308594 C135.76238634 16.55154178 178.49506803 27.04060246 208.5 50.3125 C209.1909375 50.82167969 209.881875 51.33085938 210.59375 51.85546875 C219.67427755 58.96456597 225.29806364 69.48702205 227.03491211 80.79516602 C227.65713209 86.00102881 227.66211739 91.18859903 227.66796875 96.42578125 C227.67129715 97.47597946 227.67462555 98.52617767 227.67805481 99.60820007 C227.68309664 101.82107101 227.68546399 104.03394949 227.68530273 106.24682617 C227.68748643 109.60413342 227.70566411 112.96111023 227.72460938 116.31835938 C227.72754456 118.47916556 227.72952852 120.63997328 227.73046875 122.80078125 C227.73765427 123.79072586 227.74483978 124.78067047 227.75224304 125.8006134 C227.71993037 135.82393952 227.03668987 145.29914826 220.5 153.3125 C215.42424453 157.94039469 209.98890505 157.72638912 203.3984375 157.6328125 C193.27038768 156.80064809 184.18154064 152.19802641 174.98388672 148.17529297 C101.9093487 116.23096442 0.15207653 98.50942605 -76.55126953 128.515625 C-88.55453141 133.42399969 -99.67192836 138.72003852 -109.5 147.3125 C-110.45390625 148.14394531 -111.4078125 148.97539062 -112.390625 149.83203125 C-128.35163636 164.72461426 -135.79504014 185.81141572 -136.78515625 207.31640625 C-137.18469098 222.25757839 -135.07595921 235.72872755 -128.5 249.3125 C-127.92958984 250.49585938 -127.92958984 250.49585938 -127.34765625 251.703125 C-124.16120413 257.83999574 -120.00590676 263.09053829 -115.5 268.3125 C-114.97921875 268.91835938 -114.4584375 269.52421875 -113.921875 270.1484375 C-103.69913416 281.1456284 -89.66791257 288.48222493 -76.5 295.3125 C-75.84257812 295.65490723 -75.18515625 295.99731445 -74.5078125 296.35009766 C-51.65423367 308.0742168 -26.60541599 315.83497081 -2.20430756 323.60651398 C0.56374492 324.48969347 3.32972097 325.37928825 6.09579086 326.26865387 C21.32804429 331.16485072 36.58521718 335.97926081 51.86328125 340.73046875 C52.5715764 340.9509104 53.27987156 341.17135204 54.0096302 341.39847374 C63.26181608 344.278668 63.26181608 344.278668 72.52139282 347.13497925 C86.84601314 351.53306779 101.07534109 356.11088287 115.19921875 361.11328125 C115.84518635 361.34124516 116.49115395 361.56920906 117.15669632 361.80408096 C128.23706826 365.72555608 138.9265033 370.19214113 149.5 375.3125 C150.31436523 375.69728516 151.12873047 376.08207031 151.96777344 376.47851562 C172.92201333 386.3841563 192.1852398 398.47801509 209.2421875 414.24609375 C211.25844722 416.09142488 213.32885946 417.82521923 215.4375 419.5625 C249.52784243 449.55380326 266.49178927 498.55031235 269.359375 542.68017578 C272.57240552 602.82409092 253.45962028 658.24475176 213.31445312 703.03759766 C175.57876365 744.49042429 125.14101306 767.65158779 71.5 781.3125 C70.12134766 781.66586426 70.12134766 781.66586426 68.71484375 782.02636719 C-6.93041822 801.10094584 -89.332238 795.18871458 -256.73046875 743.9375 C-270.17949498 735.83500575 -281.53603646 725.94021237 -285.5 710.3125 C-286.36042002 706.59476837 -286.64088 703.13367412 -286.67700195 699.31982422 C-286.68983719 698.13444061 -286.70267242 696.94905701 -286.71589661 695.72775269 C-286.72328354 694.45376617 -286.73067047 693.17977966 -286.73828125 691.8671875 C-286.74235678 691.21251621 -286.7464323 690.55784492 -286.75063133 689.88333511 C-286.77144016 686.41473972 -286.78576144 682.94618322 -286.79516602 679.47753906 C-286.80619091 675.92378139 -286.84055911 672.37065666 -286.88033772 668.81712151 C-286.90668983 666.05959033 -286.91487435 663.30220544 -286.91844749 660.54455948 C-286.92558996 658.60659044 -286.95194908 656.66872219 -286.97883606 654.73092651 C-286.95901599 646.57208508 -286.26240521 638.37690608 -281.22944641 631.6022644 C-277.28475226 627.83764109 -272.75783765 626.69356848 -267.5 626.3125 C-257.17740723 626.85349678 -248.47354819 629.41465491 -239.06460571 633.50506592 C-236.29733069 634.70747338 -233.51294877 635.86774105 -230.72917175 637.03131104 C-229.32112124 637.62026318 -227.91389589 638.21119216 -226.50752258 638.80413818 C-216.62703291 642.96472878 -206.58238014 646.6739399 -196.5 650.3125 C-195.27385986 650.76351074 -195.27385986 650.76351074 -194.02294922 651.22363281 C-145.11434648 669.10077608 -91.31395974 676.52761414 -39.4375 676.5625 C-38.06828903 676.56351212 -38.06828903 676.56351212 -36.67141724 676.56454468 C9.68636402 676.51059631 62.55649979 670.72680457 98.5 638.3125 C99.35335937 637.55324219 100.20671875 636.79398438 101.0859375 636.01171875 C117.9027541 620.20391114 126.90667363 597.88035643 127.703125 574.9375 C128.08200711 552.63621148 123.17091399 534.10205595 109.5 516.3125 C108.98566406 515.62542969 108.47132813 514.93835938 107.94140625 514.23046875 C100.69481481 505.13630443 90.44442526 499.0359491 80.5 493.3125 C79.61441406 492.79284668 79.61441406 492.79284668 78.7109375 492.26269531 C37.203115 468.13075382 -13.60732874 457.29541231 -59.17261887 443.35146141 C-64.96073866 441.57963938 -70.74633748 439.79968941 -76.53137207 438.01782227 C-78.95910169 437.27172357 -81.38769613 436.52843151 -83.81726074 435.78833008 C-96.64235562 431.88098988 -109.34685671 427.76287116 -121.92578125 423.1171875 C-123.54350433 422.51983543 -123.54350433 422.51983543 -125.19390869 421.91041565 C-156.69462878 410.08044222 -184.83228895 393.98843438 -210.5 372.3125 C-211.41007812 371.54679687 -212.32015625 370.78109375 -213.2578125 369.9921875 C-218.13728298 365.77434014 -222.37065908 361.257299 -226.5 356.3125 C-227.23734375 355.47460938 -227.9746875 354.63671875 -228.734375 353.7734375 C-265.1827349 311.63727621 -281.82826473 257.42026864 -278.03540039 202.17895508 C-274.70935646 161.27189343 -258.75263862 123.08829343 -231.5 92.3125 C-230.48292969 91.13300781 -230.48292969 91.13300781 -229.4453125 89.9296875 C-227.17579565 87.34426721 -224.85390187 84.82140613 -222.5 82.3125 C-222.00935059 81.78785156 -221.51870117 81.26320313 -221.01318359 80.72265625 C-212.54393874 71.74271619 -203.50089318 64.05361659 -193.52685547 56.79248047 C-191.65071945 55.42255316 -189.79420787 54.03013648 -187.94140625 52.62890625 C-178.96661635 45.92425579 -169.40093527 40.52535991 -159.5 35.3125 C-158.82710937 34.95414063 -158.15421875 34.59578125 -157.4609375 34.2265625 C-127.81630844 18.51845228 -95.34777219 9.2813542 -62.3125 4.0625 C-61.36600586 3.91143799 -60.41951172 3.76037598 -59.44433594 3.60473633 C-39.69232768 0.68150506 -19.94064532 -0.06577995 0 0 Z " fill="#242E3D" transform="translate(2172.5,8.6875)"/>
<path d="M0 0 C1.75878479 0.00090637 1.75878479 0.00090637 3.55310059 0.00183105 C21.53749745 0.02695492 39.34569317 0.36032726 57.25 2.1875 C58.55130859 2.31640625 59.85261719 2.4453125 61.19335938 2.578125 C150.47900623 11.58817057 150.47900623 11.58817057 170.25 35.1875 C177.78127505 45.74536222 178.3869497 61.08273272 178.453125 73.64453125 C178.46018463 74.53642151 178.46724426 75.42831177 178.47451782 76.347229 C178.59553674 96.17584496 178.35155647 115.56089491 175.25 135.1875 C175.04361316 136.53315222 174.83757558 137.87885805 174.63183594 139.22460938 C164.65972402 203.84899099 144.5254633 265.76807463 115.25 324.1875 C114.69666992 325.29673828 114.14333984 326.40597656 113.57324219 327.54882812 C100.53147334 353.57037287 85.12168286 378.19489263 67.25 401.1875 C66.6209375 401.99832031 65.991875 402.80914063 65.34375 403.64453125 C18.54504808 463.00599946 18.54504808 463.00599946 -3.75 468.1875 C-9.70154341 468.86397531 -14.82364198 469.01782673 -20.375 466.625 C-24.05832943 462.84474085 -25.46045259 459.25569579 -26.1875 454.0625 C-24.99302158 443.48283396 -20.39060877 433.44228772 -16.38058472 423.65286255 C-14.81776793 419.83207203 -13.2777728 416.00211173 -11.73828125 412.171875 C-11.4137648 411.36464493 -11.08924835 410.55741486 -10.75489807 409.72572327 C47.71374993 278.77139551 47.71374993 278.77139551 54.25 134.1875 C49.82528207 123.98787449 40.81954783 117.79603593 30.86328125 113.55859375 C20.32001807 109.5578528 9.73917322 106.91377064 -1.375 105 C-2.26034424 104.84515137 -3.14568848 104.69030273 -4.05786133 104.53076172 C-25.69782348 101.05490308 -47.44285829 100.81777227 -69.29766464 100.86944199 C-71.7220949 100.87508046 -74.14651815 100.8779037 -76.57095337 100.88052368 C-102.73001896 100.92153438 -128.7254526 101.69039948 -154.79882812 103.93426514 C-157.87192315 104.19796201 -160.9456442 104.45323189 -164.01953125 104.70751953 C-185.49609868 106.49885607 -206.93490427 108.59585425 -228.34375 111.06640625 C-229.03842188 111.14652073 -229.73309376 111.22663521 -230.4488163 111.3091774 C-237.91436311 112.17166298 -245.3776194 113.05121028 -252.83862305 113.95214844 C-254.08659668 114.10062729 -255.33457031 114.24910614 -256.62036133 114.40208435 C-258.94158028 114.67853067 -261.26220218 114.96006318 -263.58203125 115.24794006 C-283.14481013 117.56557906 -283.14481013 117.56557906 -291.75 113.1875 C-295.93377903 108.7891682 -297.17016361 105.6989707 -297.09375 99.7578125 C-295.892154 90.77315147 -289.66922685 83.2713127 -282.78125 77.8515625 C-274.48717281 71.68475695 -265.72656168 66.29268199 -256.75 61.1875 C-255.53546143 60.49503174 -255.53546143 60.49503174 -254.29638672 59.78857422 C-195.23577699 26.33450805 -129.17161838 9.76282973 -62.0625 2.875 C-61.26905182 2.79350708 -60.47560364 2.71201416 -59.65811157 2.62805176 C-39.75840229 0.61766036 -19.99962273 -0.0190708 0 0 Z " fill="#FF9900" transform="translate(2367.75,952.8125)"/>
</svg>
