<?xml version="1.0" encoding="UTF-8"?>
<svg version="1.1" xmlns="http://www.w3.org/2000/svg" width="500" height="500">
<path d="M0 0 C1.60406505 -0.00302501 3.20812867 -0.00691623 4.81218976 -0.01159257 C9.19554565 -0.02183635 13.57881941 -0.01970001 17.96218193 -0.01541197 C22.69918749 -0.01293815 27.43617362 -0.02196706 32.173172 -0.02944946 C41.44414677 -0.04218036 50.71509256 -0.04399215 59.9860746 -0.0416492 C67.52431127 -0.03986404 75.06253915 -0.04161992 82.60077477 -0.04587364 C83.67485778 -0.04646883 84.74894079 -0.04706402 85.85557177 -0.04767724 C88.03778766 -0.04888903 90.22000355 -0.05010317 92.40221944 -0.05131962 C112.85425392 -0.06218901 133.3062719 -0.06003554 153.7583073 -0.05393478 C172.45259865 -0.04876643 191.14683787 -0.06001998 209.84111891 -0.07903299 C229.05401052 -0.09842309 248.26687749 -0.10666532 267.47977895 -0.10290974 C278.2592857 -0.10099945 289.03874809 -0.10346856 299.81824684 -0.11762428 C308.99523425 -0.12955399 318.17215 -0.13092515 327.34913842 -0.11883412 C332.02733641 -0.11295655 336.70540343 -0.11181486 341.38359261 -0.12383652 C345.67386702 -0.13473282 349.9639017 -0.13154771 354.25416508 -0.11757483 C355.79848958 -0.11493818 357.3428331 -0.11726169 358.88713888 -0.1253107 C375.50396021 -0.20584312 389.2284724 1.8818774 401.75346375 13.38569641 C414.06952115 26.42109877 414.31125016 42.48485943 414.25743103 59.48669434 C414.25974008 61.0912111 414.26291956 62.69572681 414.26688552 64.30024034 C414.27518093 68.67540252 414.27113236 73.05047667 414.26491308 77.42563903 C414.26036806 82.15707657 414.26738241 86.88849949 414.27287292 91.61993408 C414.28174613 100.87459016 414.27985435 110.12921371 414.27404764 119.38387104 C414.26952381 126.9063614 414.26892137 134.42884267 414.27109528 141.951334 C414.27140174 143.02352556 414.27170821 144.09571713 414.27202396 145.20039934 C414.27266343 147.37875809 414.27331186 149.55711684 414.27396914 151.73547558 C414.27966615 172.14018707 414.273124 192.54488057 414.26236841 212.94958911 C414.25342964 230.44937802 414.25498886 247.9491404 414.26420593 265.44892883 C414.27491306 285.7872034 414.27912092 306.12546222 414.27298141 326.46373922 C414.27234433 328.63299485 414.27171558 330.80225048 414.27109528 332.97150612 C414.27078672 334.03873894 414.27047817 335.10597176 414.27016027 336.20554497 C414.26843495 343.71860923 414.27134485 351.23166348 414.27605438 358.74472618 C414.28166795 367.90090792 414.28013656 377.05705537 414.26949289 386.2132332 C414.26424322 390.88282102 414.26216752 395.55235171 414.2687912 400.22193909 C414.27476706 404.49954456 414.27144859 408.77704013 414.26083609 413.05463568 C414.25860905 414.59882824 414.25972266 416.14303016 414.26458767 417.68721666 C414.30675445 432.18777058 412.79212358 444.76953351 403.62846375 456.63569641 C390.80404492 469.46011523 376.58923257 471.33136171 359.17045593 471.58808899 C357.82854878 471.60996353 356.48664258 471.63189728 355.14473724 471.65388298 C350.53005262 471.7263506 345.91522964 471.78515683 341.30033875 471.84272766 C340.47572112 471.85338139 339.6511035 471.86403512 338.80149746 471.87501168 C276.81604493 472.66968079 214.8150671 472.22536189 152.8268612 472.00957669 C138.54599016 471.9600615 124.26511192 471.92136252 109.98419634 471.8873321 C95.14677606 471.85187253 80.30939283 471.80913606 65.4720161 471.75857669 C57.20873266 471.73054929 48.94546505 471.70533554 40.68215179 471.68791771 C33.70482988 471.6731399 26.72757038 471.65150192 19.75029859 471.62104257 C16.20402896 471.60574731 12.65782322 471.59352501 9.11152077 471.58994102 C5.26197477 471.58595333 1.41258923 471.56661459 -2.43690491 471.54589844 C-3.54190236 471.54715105 -4.64689981 471.54840367 -5.78538203 471.54969424 C-15.26280758 471.47632128 -24.93940706 470.93344519 -33.43403625 466.38569641 C-34.38149719 465.89327454 -35.32895813 465.40085266 -36.30513 464.89350891 C-46.5618316 458.6710107 -53.04405381 448.80373511 -55.99653625 437.26069641 C-56.77032634 432.58018841 -57.12232481 428.09356792 -57.12517071 423.35213757 C-57.12692374 422.69027926 -57.12867678 422.02842095 -57.13048294 421.34650633 C-57.13512089 419.1370702 -57.13268316 416.92770052 -57.13024902 414.71826172 C-57.1321181 413.11479937 -57.1344192 411.51133748 -57.13711435 409.90787631 C-57.14322669 405.50778047 -57.14309942 401.10770365 -57.14191997 396.70760453 C-57.14171582 391.95970436 -57.14723606 387.21181029 -57.15197754 382.46391296 C-57.16028146 373.16432754 -57.16303226 363.86474846 -57.16358992 354.56515964 C-57.16406518 347.00581893 -57.16612045 339.44648032 -57.16929054 331.88714027 C-57.17809626 310.45285433 -57.18271002 289.0185734 -57.18196007 267.58428564 C-57.18192011 266.42892942 -57.18188016 265.27357319 -57.18183899 264.08320618 C-57.18179811 262.92643865 -57.18175723 261.76967111 -57.18171511 260.57785002 C-57.18130862 241.82888208 -57.19087915 223.07993423 -57.20497736 204.3309721 C-57.21934062 185.07754949 -57.22624757 165.82413668 -57.22538358 146.57070857 C-57.2250516 135.76221513 -57.22779905 124.95374275 -57.23856163 114.14525414 C-57.24766594 104.94318308 -57.24984242 95.74114263 -57.24305221 86.53906902 C-57.23978672 81.84521747 -57.2397314 77.15142463 -57.24840546 72.45757866 C-57.25626999 68.1575327 -57.25483948 63.85759201 -57.24612132 59.55754862 C-57.24458625 58.00509983 -57.2464028 56.45264319 -57.2519814 54.90020367 C-57.30244132 39.85716066 -55.97679202 27.01469432 -45.99653625 15.26069641 C-45.49380188 14.65096985 -44.9910675 14.04124329 -44.47309875 13.41304016 C-32.75416768 0.40788495 -16.2904861 -0.04378477 0 0 Z M16.00346375 68.26069641 C15.44787781 68.83561829 14.89229187 69.41054016 14.31987 70.00288391 C3.94388589 81.11522817 1.3079596 93.18921432 1.6870575 108.02632141 C2.42905473 121.87279707 10.27446587 132.9533405 20.00346375 142.26069641 C28.85031201 149.36245453 41.36092652 153.08048303 52.67533875 152.51850891 C67.39867776 150.88807204 80.29464668 144.64848185 90.00346375 133.26069641 C97.85808802 123.37130875 100.83582755 109.82966276 99.63237 97.44038391 C98.34089383 88.17612099 95.4373758 80.98513642 90.00346375 73.26069641 C89.26096375 72.18819641 88.51846375 71.11569641 87.75346375 70.01069641 C77.45952085 59.71675352 65.57958372 53.85056981 50.94096375 53.69819641 C37.33490841 53.91225007 25.255927 58.05926257 16.00346375 68.26069641 Z M240.00346375 175.26069641 C238.80979187 175.63452454 237.61612 176.00835266 236.38627625 176.39350891 C225.9874375 180.01989378 218.29045529 185.76654303 210.50346375 193.38569641 C209.98646912 193.88851135 209.46947449 194.39132629 208.93681335 194.90937805 C206.06348728 197.82102152 204.21049509 200.33784454 203.00346375 204.26069641 C202.34346375 203.93069641 201.68346375 203.60069641 201.00346375 203.26069641 C200.99411804 202.62043518 200.98477234 201.98017395 200.97514343 201.32051086 C200.92127528 198.40397266 200.83766176 195.48901016 200.75346375 192.57319641 C200.73928406 191.56579407 200.72510437 190.55839172 200.710495 189.52046204 C200.56507 185.11408482 200.45648377 182.06572525 198.26908875 178.17866516 C194.26629309 174.7900916 190.57214706 174.0107636 185.40629578 173.98603821 C183.75900986 173.97174019 183.75900986 173.97174019 182.07844543 173.95715332 C180.31269669 173.95852043 180.31269669 173.95852043 178.51127625 173.95991516 C176.68232315 173.95348747 176.68232315 173.95348747 174.81642151 173.94692993 C172.23928955 173.94119134 169.6621414 173.94068289 167.08500671 173.94502258 C163.14999116 173.94817914 159.21572995 173.92472788 155.2808075 173.89936829 C152.77429802 173.89709487 150.26778654 173.89639199 147.76127625 173.89741516 C146.58815887 173.88820541 145.4150415 173.87899567 144.20637512 173.86950684 C134.49068119 173.91771748 134.49068119 173.91771748 126.34663963 178.79733372 C124.28641046 182.57576046 124.59013561 186.16380735 124.62251282 190.40179443 C124.61783285 191.33681779 124.61315287 192.27184116 124.60833108 193.23519856 C124.59634192 196.37592117 124.60585378 199.5162106 124.61528015 202.65693665 C124.61121617 204.90554561 124.60587527 207.15415257 124.59934998 209.40275574 C124.5856492 215.51634559 124.59098668 221.62978392 124.60048723 227.74337649 C124.60807044 234.13522682 124.60104186 240.52706397 124.59632874 246.91891479 C124.59051679 258.34318527 124.59985422 269.76737167 124.61510675 281.19162793 C124.62850695 291.54907627 124.62618485 301.90642373 124.61235046 312.26387024 C124.59629378 324.2907302 124.59032124 336.31751396 124.59918725 348.34438854 C124.6038683 354.71109729 124.6044768 361.07773654 124.59457779 367.44444084 C124.58592122 373.43049802 124.59190626 379.41636443 124.60926056 385.40240097 C124.61323256 387.60144166 124.61207922 389.80049835 124.60547256 391.9995327 C124.59729524 394.99744457 124.60753288 397.99474219 124.62251282 400.99261475 C124.61582065 401.86634922 124.60912849 402.74008369 124.60223353 403.64029497 C124.64778642 408.32870343 124.92585143 411.47633301 128.00346375 415.26069641 C131.49696464 417.58969701 132.91710303 417.52252847 137.04789734 417.55122375 C138.29283966 417.56398346 139.53778198 417.57674316 140.82044983 417.58988953 C142.18093206 417.59294718 143.54141636 417.59517494 144.90190125 417.59663391 C146.29811236 417.60306174 147.69432212 417.60979009 149.0905304 417.61680603 C152.01759462 417.62878113 154.94454081 417.63248667 157.87162781 417.63130188 C161.61663282 417.63109877 165.36087826 417.65839013 169.10570335 417.6928463 C171.98997959 417.71512029 174.87407324 417.71913927 177.75842667 417.71808243 C179.13869975 417.72043806 180.5189779 417.72925965 181.89916611 417.74474716 C183.83275787 417.76441135 185.76657272 417.75604546 187.70024109 417.74653625 C189.34879593 417.75081131 189.34879593 417.75081131 191.03065491 417.75517273 C194.69576417 417.14554398 196.35754951 415.81642637 199.00346375 413.26069641 C200.14931896 410.96898598 200.11904313 409.73288352 200.10112 407.18745422 C200.09787216 406.32979462 200.09462433 405.47213501 200.09127808 404.58848572 C200.08292435 403.6398465 200.07457062 402.69120728 200.06596375 401.71382141 C200.05704948 399.62088608 200.0483534 397.52794982 200.0398407 395.43501282 C200.03360687 394.31040649 200.02737305 393.18580017 200.02095032 392.02711487 C199.909056 369.52600775 200.00877761 347.02494788 200.26591492 324.52522278 C200.30056923 321.45305781 200.32834012 318.38095425 200.34989929 315.30867004 C200.37596332 311.64085293 200.41626474 307.97344263 200.46665001 304.3058815 C200.49066629 302.32617816 200.50120436 300.34632509 200.5111084 298.36650085 C200.79103588 281.00330647 203.83635489 262.11648321 215.37846375 248.44819641 C216.24471375 247.72632141 217.11096375 247.00444641 218.00346375 246.26069641 C218.60029968 245.7592511 219.19713562 245.25780579 219.8120575 244.74116516 C228.9157793 237.44754009 238.24217424 235.71012357 249.86283875 236.44038391 C258.93451269 237.72510074 267.95807633 241.23478326 273.94096375 248.38569641 C288.90014023 270.13123101 285.14332806 299.86133824 285.01933289 324.97114563 C285.00761114 327.40097337 285.00346375 329.83084039 285.00346375 332.26069641 C284.99860124 334.2910523 284.99325013 336.32140703 284.9875946 338.35176086 C284.97145196 344.51641445 284.95995326 350.6810618 284.95165157 356.84573078 C284.9464632 360.56552655 284.93943183 364.28529887 284.92802429 368.00508118 C284.9170106 371.62127087 284.91114937 375.23743822 284.9085865 378.85364342 C284.9058947 380.87111528 284.89811612 382.88857837 284.89016724 384.90603638 C284.88994155 388.69272146 284.92955082 392.47474605 285.00346375 396.26069641 C285.01615925 396.93426052 285.02885475 397.60782463 285.04193497 398.30179977 C285.09123471 400.33810233 285.17058161 402.37104096 285.25956726 404.40596008 C285.30509232 405.60186264 285.35061737 406.7977652 285.39752197 408.02990723 C286.1065229 411.81019209 287.3436701 413.52978852 290.00346375 416.26069641 C292.75262273 417.63527591 294.96507765 417.39549216 298.04203796 417.40596008 C299.31030426 417.41233994 300.57857056 417.41871979 301.88526917 417.42529297 C303.27622947 417.42682174 304.66719029 417.42793565 306.05815125 417.42866516 C307.48060642 417.43187768 308.90306127 417.43524175 310.32551575 417.43875122 C313.30980698 417.44474421 316.29406926 417.44659098 319.27836609 417.44599915 C323.10061115 417.44589759 326.92267015 417.4595418 330.74487114 417.47677135 C333.68398388 417.48789647 336.62305174 417.48991819 339.56218338 417.48938942 C340.97117376 417.49056907 342.38016532 417.49499004 343.78913498 417.50272179 C345.76143244 417.51253001 347.73378436 417.50837722 349.70610046 417.50361633 C350.82813873 417.50504135 351.950177 417.50646637 353.10621643 417.50793457 C356.09481172 417.25290118 357.62207326 417.06583035 360.00346375 415.26069641 C364.03967995 409.73637002 363.4192212 403.61954342 363.3757782 397.07441711 C363.3812542 395.23621147 363.3812542 395.23621147 363.38684082 393.36087036 C363.39355174 390.00394444 363.38683014 386.6475744 363.37350869 383.29070306 C363.36212098 379.74791992 363.36630869 376.20514972 363.36825562 372.66235352 C363.36913871 366.69126174 363.35807516 360.72028339 363.33964539 354.7492218 C363.31868115 347.91950655 363.31492397 341.08995976 363.32120734 334.26021892 C363.32698705 327.630928 363.32114314 321.00169439 363.3100338 314.37241173 C363.3054788 311.58409209 363.30447344 308.7958086 363.30661964 306.00748634 C363.31282829 292.17842434 363.11345737 278.41049455 362.11747742 264.61299133 C362.04121533 263.5486276 361.96495325 262.48426386 361.8863802 261.38764668 C359.58531306 232.81745625 351.1851578 205.48099774 329.00346375 186.26069641 C313.7671379 173.87830471 292.9446391 170.86125214 273.94096375 170.88569641 C272.91824371 170.88601364 272.91824371 170.88601364 271.87486267 170.88633728 C260.81407301 170.92051652 250.57998939 171.88239072 240.00346375 175.26069641 Z M14.88082981 179.29638004 C12.27354728 183.41321715 12.44344512 186.69748317 12.48880005 191.47735596 C12.48185452 192.40844462 12.47490899 193.33953329 12.46775299 194.29883677 C12.44944904 197.42039981 12.45975694 200.54120577 12.47001648 203.66279602 C12.46295974 205.90008107 12.45421576 208.13736135 12.44390869 210.37463379 C12.42137757 216.45313712 12.42436323 222.53138054 12.43323016 228.60990977 C12.4383347 233.68216811 12.43105181 238.75437737 12.42375809 243.82663065 C12.40577428 256.47558392 12.41218182 269.12438158 12.42992789 281.77331866 C12.44462332 292.75567879 12.42999865 303.73776531 12.40115773 314.7200902 C12.37175598 326.0000863 12.36130188 337.27995928 12.37033993 348.56000334 C12.3752739 354.89157266 12.37302785 361.22292927 12.35255241 367.55447197 C12.33422224 373.50782291 12.340122 379.46066468 12.36475182 385.41398811 C12.36976805 387.59970977 12.36624902 389.78547005 12.35360336 391.97116089 C12.33771165 394.9537132 12.35258786 397.93458088 12.37527466 400.91705322 C12.36343893 401.78330179 12.3516032 402.64955035 12.33940881 403.54204887 C12.40459219 407.7561136 12.72303752 410.44250621 15.41772556 413.78217411 C19.08108746 417.29363719 20.76894493 417.39338171 25.73490906 417.4535675 C26.93665771 417.46963043 28.13840637 417.48569336 29.37657166 417.50224304 C34.87996773 417.5466191 40.38323204 417.58820486 45.88676453 417.61079407 C48.79105726 417.62411987 51.6946451 417.65194532 54.59867859 417.69282532 C58.1088791 417.74223654 61.6184415 417.7669254 65.12897491 417.77402115 C67.11098898 417.7839678 69.09283333 417.81819314 71.0745697 417.85282898 C78.4352163 418.02202028 78.4352163 418.02202028 84.80717468 414.85298157 C88.52842902 410.46077631 88.1493807 406.94527543 88.14390564 401.39807129 C88.14687676 400.46884033 88.14984788 399.53960937 88.15290904 398.5822199 C88.1616235 395.44923891 88.1631066 392.316296 88.16459656 389.18330383 C88.16922279 386.94484373 88.17424718 384.70638441 88.17964172 382.46792603 C88.19278648 376.3728621 88.19921471 370.27780919 88.20365238 364.1827333 C88.20657974 360.37786634 88.2106839 356.57300241 88.21515656 352.76813698 C88.22726843 342.23641589 88.23764948 331.7046966 88.24103165 321.17296886 C88.24125121 320.49868155 88.24147078 319.82439424 88.241697 319.12967398 C88.24191528 318.45375933 88.24213355 317.77784469 88.24235845 317.08144778 C88.24280191 315.71175396 88.24324848 314.34206015 88.24369812 312.97236633 C88.24391955 312.29294872 88.24414098 311.61353111 88.24436912 310.91352508 C88.24831713 299.90450492 88.26577057 288.89555094 88.28905764 277.88655635 C88.31276565 266.5874738 88.32497521 255.28842333 88.32639956 243.98931199 C88.32744942 237.64379807 88.33339561 231.29837746 88.35121918 224.95288658 C88.3676556 218.98493365 88.3698769 213.01714462 88.36108017 207.04917717 C88.36030742 204.85658073 88.36468366 202.66397564 88.37453842 200.47140121 C88.38718773 197.48216121 88.38141923 194.49350785 88.37095642 191.50427246 C88.37901283 190.6330647 88.38706923 189.76185693 88.39536977 188.86424893 C88.35695278 184.18335213 88.08284292 181.03692086 85.00346375 177.26069641 C78.83467388 173.46603293 72.57891275 173.824814 65.4995575 173.86225891 C64.3029097 173.85938873 63.1062619 173.85651855 61.87335205 173.8535614 C59.35104396 173.85152543 56.8287199 173.85702247 54.30644226 173.86958313 C50.45053273 173.88565652 46.59566916 173.86971018 42.73979187 173.85054016 C40.28471144 173.8525224 37.82963165 173.85636567 35.3745575 173.86225891 C33.64936134 173.85314987 33.64936134 173.85314987 31.88931274 173.84385681 C24.9082148 173.90509137 20.12014133 174.27168854 14.88082981 179.29638004 Z " fill="#0278B6" transform="translate(69.99653625488281,12.739303588867188)"/>
<path d="M0 0 C2.46786303 2.19212414 3.60395214 3.99453459 4.625 7.125 C4.86476563 7.82882813 5.10453125 8.53265625 5.3515625 9.2578125 C7.48401818 18.27578771 7.14392073 27.54097439 7.13371277 36.74497986 C7.13558286 38.34604351 7.13788435 39.94710671 7.14057809 41.5481692 C7.14667782 45.93234479 7.14656466 50.31650127 7.14538372 54.70068014 C7.14517925 59.43491176 7.15070275 64.16913731 7.15544128 68.90336609 C7.16373785 78.17192961 7.16649566 87.44048677 7.16705366 96.70905369 C7.1675292 104.24307958 7.1695858 111.77710338 7.17275429 119.31112862 C7.18155734 140.67826073 7.18617409 162.04538783 7.18542381 183.41252177 C7.18538386 184.56376019 7.1853439 185.71499861 7.18530273 186.90112305 C7.18526185 188.05376896 7.18522097 189.20641487 7.18517885 190.39398945 C7.18477225 209.08139826 7.1943463 227.76878694 7.2084411 246.45618992 C7.22280421 265.65091521 7.22971135 284.84563067 7.22884732 304.04036146 C7.22851538 314.81417254 7.23126139 325.58796249 7.24202538 336.36176872 C7.25112939 345.53268319 7.25330634 354.70356696 7.24651595 363.874484 C7.24325056 368.55214739 7.24319486 373.22975187 7.2518692 377.90740967 C7.25973393 382.19257257 7.25830303 386.47762983 7.24958507 390.76279015 C7.24805006 392.30979562 7.24986629 393.85680896 7.25544515 395.40380513 C7.29143489 406.09490712 7.03697023 415.90410958 2 425.5625 C1.484375 426.57441406 0.96875 427.58632813 0.4375 428.62890625 C-1 431 -1 431 -3 432 C-2.57781184 430.3501725 -2.13675575 428.70516335 -1.6875 427.0625 C-1.44386719 426.14597656 -1.20023437 425.22945313 -0.94921875 424.28515625 C-0.63597656 423.53105469 -0.32273437 422.77695312 0 422 C0.99 421.67 1.98 421.34 3 421 C3.72463536 370.41116699 4.17555797 319.82856018 4.29708112 269.23476118 C4.31866603 260.31636069 4.34490436 251.39797517 4.37124526 242.47958767 C4.41804649 226.59577432 4.4615255 210.7119539 4.50268555 194.828125 C4.54250097 179.46614034 4.58402419 164.10416173 4.62768555 148.7421875 C4.63040982 147.78347083 4.63313409 146.82475416 4.63594092 145.83698547 C4.64962782 141.02386078 4.66334662 136.21073617 4.67708123 131.39761162 C4.78965929 91.931754 4.89675049 52.46588307 5 13 C4.34 13 3.68 13 3 13 C2.87625 12.030625 2.7525 11.06125 2.625 10.0625 C2.315625 8.5465625 2.315625 8.5465625 2 7 C1.34 6.67 0.68 6.34 0 6 C0 4.02 0 2.04 0 0 Z " fill="#8BC0D5" transform="translate(477,35)"/>
<path d="M0 0 C1.47968324 0.14049518 2.95874516 0.28754826 4.4375 0.4375 C5.67306641 0.55931641 5.67306641 0.55931641 6.93359375 0.68359375 C9 1 9 1 10 2 C12.13175479 2.10305207 14.26699169 2.13401833 16.40123081 2.1386652 C17.08111088 2.14150742 17.76099094 2.14434964 18.46147344 2.14727798 C20.76823722 2.15568277 23.07495116 2.15689768 25.38172913 2.15821838 C27.04076316 2.16277981 28.69979603 2.1677792 30.35882753 2.17318195 C34.93999832 2.1868203 39.52116166 2.1941978 44.10234749 2.20060861 C49.0342186 2.20858766 53.96607407 2.22229395 58.89793396 2.23532104 C67.45011469 2.25711934 76.00229698 2.27525151 84.55449104 2.29092598 C96.91967982 2.31359416 109.28485129 2.34174115 121.65002542 2.37124526 C141.7094657 2.41895869 161.76891304 2.46221267 181.82836914 2.50268555 C201.31958567 2.54202142 220.81079592 2.58344304 240.30200195 2.62768555 C241.50251145 2.63040982 242.70302095 2.63313409 243.93990953 2.63594092 C249.96223561 2.64962008 255.98456161 2.66334042 262.00688756 2.67708123 C312.00457861 2.79110491 362.00228327 2.89790119 412 3 C412 2.34 412 1.68 412 1 C414.31 1 416.62 1 419 1 C411.24212086 6.17191943 399.90147506 5.32953395 390.87402344 5.42504883 C389.53639735 5.44505047 388.198779 5.46557484 386.86116791 5.4865551 C383.09261016 5.54197231 379.32401634 5.58289158 375.55523777 5.61995292 C373.06359668 5.64499127 370.57200669 5.6731948 368.08040619 5.70197487 C307.00053702 6.39024652 245.9051742 5.9614861 184.82339424 5.74888135 C170.54252427 5.69936551 156.26164711 5.66066611 141.98073259 5.62663569 C127.14331231 5.59117612 112.30592909 5.54843965 97.46855235 5.49788028 C89.20526892 5.46985288 80.9420013 5.44463913 72.67868805 5.4272213 C65.70136613 5.41244349 58.72410663 5.3908055 51.74683484 5.36034616 C48.20056522 5.3450509 44.65435948 5.3328286 41.10805702 5.32924461 C37.25851103 5.32525692 33.40912548 5.30591818 29.55963135 5.28520203 C28.4546339 5.28645464 27.34963645 5.28770726 26.21115422 5.28899783 C17.22135477 5.21940001 8.33187358 4.59954222 0 1 C0 0.67 0 0.34 0 0 Z " fill="#8EC1D7" transform="translate(38,479)"/>
<path d="M0 0 C2 0 2 0 4.09493637 1.42420578 C6.91852047 5.24191112 6.54215542 8.57800706 6.48101807 13.21270752 C6.48443577 14.15534226 6.48785347 15.097977 6.49137473 16.06917644 C6.49797624 19.23555218 6.47593964 22.40108484 6.45410156 25.56738281 C6.45297358 27.83395365 6.45360598 30.10052596 6.45587158 32.36709595 C6.45702156 38.52794705 6.433466 44.6884881 6.40557575 50.84926701 C6.38060955 57.28481039 6.37822387 63.72036049 6.37347412 70.15594482 C6.36244506 80.96014426 6.3374422 91.76421624 6.30175781 102.56835938 C6.26504118 113.69660878 6.23672774 124.82482725 6.21972656 135.953125 C6.21815022 136.98206213 6.21815022 136.98206213 6.21654204 138.03178588 C6.21132188 141.47303953 6.20626705 144.91429341 6.20129442 148.35554743 C6.1598282 176.90377531 6.08907876 205.4518832 6 234 C5.34 234 4.68 234 4 234 C3.896875 234.598125 3.79375 235.19625 3.6875 235.8125 C2.91123545 238.28243264 1.92911079 239.32251235 0 241 C0 238 0 238 2 236 C2.19809881 232.97774415 2.26913095 230.04698549 2.25396729 227.02348328 C2.25708727 226.08200166 2.26020725 225.14052004 2.26342177 224.17050868 C2.27143879 220.99601553 2.26506368 217.82171158 2.25878906 214.6472168 C2.26149734 212.37920011 2.26505734 210.1111843 2.26940918 207.84317017 C2.27855648 201.66750821 2.27497889 195.49191279 2.26865101 189.31624961 C2.26360124 182.86299693 2.26827977 176.40975009 2.27142334 169.95649719 C2.27530043 158.41895264 2.26906775 146.8814422 2.25890467 135.34390298 C2.24997509 124.8829808 2.25151528 114.42210302 2.26074219 103.96118164 C2.27144668 91.81934949 2.27542798 79.6775522 2.26951766 67.53571445 C2.26639642 61.10639143 2.2659927 54.677099 2.27259064 48.24777794 C2.27836186 42.20104932 2.2743712 36.15440463 2.26280212 30.10768509 C2.260154 27.88606849 2.26092321 25.66444485 2.26532745 23.44283104 C2.27077845 20.41428071 2.26395392 17.38600068 2.25396729 14.35746765 C2.25842873 13.47458704 2.26289017 12.59170643 2.26748681 11.68207186 C2.23962272 7.3365068 2.03311413 3.95653728 0 0 Z " fill="#67A7CD" transform="translate(155,190)"/>
<path d="M0 0 C0 4.00919778 -0.00723981 8.01838072 -0.01345825 12.02757263 C-0.05297476 38.20725226 -0.08309089 64.38692803 -0.10213066 90.56663081 C-0.1046319 93.99306969 -0.10722057 97.41950849 -0.10986328 100.84594727 C-0.1103879 101.5280523 -0.11091252 102.21015734 -0.11145304 102.91293222 C-0.12016607 113.97104374 -0.13594277 125.02913456 -0.15430559 136.08723377 C-0.17299592 147.43719229 -0.18396485 158.78713542 -0.18817699 170.13711029 C-0.1907883 176.511064 -0.19694219 182.88497059 -0.21146011 189.25890923 C-0.2250003 195.25146338 -0.22922987 201.24395086 -0.22621536 207.23651886 C-0.22676705 209.43921076 -0.23076471 211.64190481 -0.23841095 213.84458351 C-0.24831843 216.84495304 -0.24598426 219.84506867 -0.24050903 222.84544373 C-0.24633472 223.72277316 -0.2521604 224.6001026 -0.25816262 225.50401777 C-0.25418052 226.30782945 -0.25019842 227.11164114 -0.24609566 227.93981075 C-0.2468551 228.6323133 -0.24761454 229.32481584 -0.24839699 230.03830332 C0.24450973 233.93099731 2.15852984 236.41684531 5 239 C3.35 239 1.7 239 0 239 C-2.63342589 232.92439331 -3.43262948 228.07607944 -3.38095093 221.49177551 C-3.3856309 220.56558511 -3.39031087 219.63939471 -3.39513266 218.68513793 C-3.40704746 215.59829357 -3.39763919 212.51189606 -3.38818359 209.42504883 C-3.39225076 207.20540611 -3.39759346 204.98576541 -3.40411377 202.76612854 C-3.41777337 196.74987886 -3.41249486 190.73378377 -3.40297651 184.71753144 C-3.3953758 178.42046333 -3.40242641 172.12340836 -3.40713501 165.82633972 C-3.41293941 154.5785639 -3.40362566 143.33085176 -3.388357 132.08309092 C-3.37494481 121.8871463 -3.37729121 111.69130412 -3.39111328 101.49536133 C-3.4071697 89.6457379 -3.41314362 77.79616407 -3.40427649 65.94652766 C-3.39959709 59.677129 -3.39898278 53.4078009 -3.40888596 47.13840675 C-3.41754175 41.24750542 -3.41155896 35.35679794 -3.39420319 29.46591759 C-3.39023149 27.30234982 -3.39138402 25.13876579 -3.39799118 22.97520447 C-3.40616928 20.02567279 -3.39593018 17.0767653 -3.38095093 14.12727356 C-3.38764309 13.26794041 -3.39433526 12.40860726 -3.40123022 11.52323371 C-3.35490932 6.83226086 -2.95893001 3.86765091 0 0 Z " fill="#8BBEDE" transform="translate(196,191)"/>
<path d="M0 0 C0.33 0 0.66 0 1 0 C1.78105525 14.64861559 2.162292 29.25351018 2.16796875 43.921875 C2.17119567 45.92913841 2.17456071 47.93640159 2.17805481 49.94366455 C2.18396988 54.10144599 2.18590212 58.25920685 2.18530273 62.41699219 C2.18520021 67.72225643 2.19897847 73.02738955 2.21607494 78.33262253 C2.22721672 82.45746462 2.22922146 86.58227484 2.22869301 90.70713043 C2.22986496 92.66379508 2.23424209 94.62046077 2.24202538 96.57711029 C2.32792313 120.3462074 2.32792313 120.3462074 -3 130.5625 C-3.515625 131.57441406 -4.03125 132.58632813 -4.5625 133.62890625 C-6 136 -6 136 -8 137 C-7.57781184 135.3501725 -7.13675575 133.70516335 -6.6875 132.0625 C-6.44386719 131.14597656 -6.20023437 130.22945312 -5.94921875 129.28515625 C-5.63597656 128.53105469 -5.32273437 127.77695312 -5 127 C-3.515 126.505 -3.515 126.505 -2 126 C-1.98969254 125.09990204 -1.97938507 124.19980408 -1.96876526 123.27243042 C-1.83690295 111.80657735 -1.70127448 100.34077151 -1.5625 88.875 C-1.55147877 87.96419678 -1.54045753 87.05339355 -1.52910233 86.11499023 C-1.1803733 57.40576291 -0.73796406 28.70229335 0 0 Z " fill="#61A7C6" transform="translate(482,330)"/>
<path d="M0 0 C0.33 0 0.66 0 1 0 C0.89278721 17.40238934 0.78003052 34.80473271 0.66066074 52.20704269 C0.60536569 60.28710234 0.5518898 68.3671664 0.50268555 76.44726562 C0.45979817 83.48928094 0.41350868 90.53126423 0.36312145 97.57323003 C0.33655721 101.30241842 0.31170507 105.03160062 0.29092598 108.76082611 C0.26767469 112.92230449 0.23682854 117.08369312 0.20532227 121.24511719 C0.1995668 122.48373505 0.19381134 123.72235291 0.18788147 124.99850464 C0.17809265 126.13149994 0.16830383 127.26449524 0.15821838 128.43182373 C0.15176583 129.41629864 0.14531328 130.40077354 0.1386652 131.41508102 C0.0129431 133.758722 -0.33461812 135.75723713 -1 138 C-1.66 138 -2.32 138 -3 138 C-3.12075984 108.30074581 -3.05178607 78.60520007 -2.68161011 48.90802002 C-2.64314629 45.81621204 -2.6089038 42.72440387 -2.57839966 39.63250732 C-2.54165492 35.95049766 -2.4953585 32.26872314 -2.44199944 28.58691788 C-2.41509074 26.59186034 -2.39689403 24.59669112 -2.37904358 22.60153198 C-2.25370682 14.89317805 -1.51236246 7.56170319 0 0 Z " fill="#98C7E0" transform="translate(272,288)"/>
<path d="M0 0 C0.33 0 0.66 0 1 0 C3.71250013 17.66033433 3.15077737 35.66707484 3.1343255 53.48407078 C3.13175725 57.1447157 3.13415107 60.80535837 3.13571167 64.46600342 C3.13751776 70.59469054 3.1351655 76.72336551 3.13037109 82.85205078 C3.1249022 89.92438032 3.12671634 96.99668114 3.1321975 104.06901002 C3.13673855 110.17472652 3.13737519 116.28043439 3.13475883 122.38615203 C3.13320527 126.01901836 3.13297756 129.65187118 3.13629532 133.28473663 C3.13972678 137.32167769 3.13496818 141.35856915 3.12939453 145.39550781 C3.13141876 146.58930557 3.13344299 147.78310333 3.13552856 149.01307678 C3.13270874 150.11439438 3.12988892 151.21571198 3.12698364 152.35040283 C3.1264181 153.7782202 3.1264181 153.7782202 3.12584114 155.23488235 C2.98996787 158.22043687 2.54581405 161.06396583 2 164 C-2.406945 165.68468473 -6.03169122 166.24508931 -10.73974609 166.22705078 C-11.38435791 166.22734283 -12.02896973 166.22763489 -12.69311523 166.22793579 C-14.80336423 166.22655315 -16.91325092 166.21104311 -19.0234375 166.1953125 C-20.49459643 166.19157856 -21.96575785 166.18873339 -23.43692017 166.18673706 C-27.29371098 166.17913056 -31.15034921 166.159508 -35.00708008 166.1373291 C-38.94870948 166.11680613 -42.89036373 166.10772159 -46.83203125 166.09765625 C-54.55475677 166.07625903 -62.27735694 166.04215949 -70 166 C-70.33 165.34 -70.66 164.68 -71 164 C-70.18202942 164.00222061 -69.36405884 164.00444122 -68.52130127 164.00672913 C-60.81128786 164.0267693 -53.10128709 164.04199317 -45.39125443 164.05181217 C-41.42749164 164.05702991 -37.46375039 164.06410745 -33.5 164.07543945 C-29.67450499 164.08630771 -25.84903068 164.0922852 -22.02352142 164.09487724 C-20.56429468 164.09672438 -19.10506906 164.10033136 -17.64585114 164.10573006 C-15.60144098 164.11299274 -13.5571163 164.11398873 -11.51269531 164.11352539 C-9.76729462 164.11685631 -9.76729462 164.11685631 -7.9866333 164.12025452 C-4.34993064 164.10082219 -4.34993064 164.10082219 -1 163 C1.96879442 157.46819226 1.27271538 150.91970716 1.24291992 144.8137207 C1.24576744 142.97551506 1.24576744 142.97551506 1.24867249 141.10017395 C1.25173948 137.74335941 1.24586983 134.38679192 1.23571944 131.03000665 C1.22687911 127.48722523 1.22869782 123.9444473 1.2290802 120.4016571 C1.22814352 114.43059086 1.21947408 108.45957538 1.20581055 102.48852539 C1.19023631 95.65884456 1.1848073 88.82921984 1.1855461 81.99952251 C1.18623222 74.65758705 1.17921621 67.31567227 1.1700995 59.9737432 C1.16800389 57.89809126 1.1672632 55.82244283 1.16686058 53.74678993 C1.16021624 35.80971121 0.80312577 17.91973029 0 0 Z " fill="#AFD8EC" transform="translate(431,265)"/>
<path d="M0 0 C8.96578986 13.44868479 5.09306952 38.81258943 4.96337891 54.47094727 C4.95692856 55.56490059 4.95692856 55.56490059 4.9503479 56.68095398 C4.93818891 58.69081264 4.92043434 60.70063519 4.90234375 62.71044922 C4.98144818 65.37508193 5.19436631 67.48239471 6 70 C5.34 70 4.68 70 4 70 C4.16371094 70.89460938 4.32742188 71.78921875 4.49609375 72.7109375 C5.29230365 78.32513003 5.1028465 83.96748046 5.0625 89.625 C5.05871338 90.84469482 5.05492676 92.06438965 5.05102539 93.32104492 C5.03477759 98.51404024 5.00679953 103.70695522 4.97949219 108.89990234 C3.0832676 132.32001691 3.0832676 132.32001691 9 154 C7.02 153.34 5.04 152.68 3 152 C2.99668985 151.33076885 2.99337971 150.6615377 2.98996925 149.97202682 C2.90854367 133.64452804 2.8163882 117.317128 2.71247292 100.98975754 C2.66247447 93.09377708 2.61603075 85.19780635 2.578125 77.30175781 C2.54505487 70.41492081 2.50514221 63.5281622 2.45720994 56.64141202 C2.43209329 52.99915273 2.41026938 49.35694445 2.39665604 45.7146225 C2.38128371 41.63613227 2.35062649 37.55788763 2.31884766 33.47949219 C2.31668747 32.28833801 2.31452728 31.09718384 2.31230164 29.86993408 C2.24714936 23.29158241 1.68894034 17.07771338 0.43849754 10.61497879 C-0.16431919 7.02008298 -0.13983734 3.63577079 0 0 Z " fill="#83B8CE" transform="translate(351,275)"/>
<path d="M0 0 C1 3 1 3 0.28009033 4.7989502 C-2.10766357 8.0897516 -3.87913233 9.76275613 -7.93322754 10.62084961 C-11.66650841 10.8286776 -15.34013493 10.81225255 -19.078125 10.71875 C-20.45479439 10.70821888 -21.83148939 10.70065602 -23.20819092 10.69592285 C-26.81843676 10.67494951 -30.4267203 10.61110314 -34.03625488 10.53894043 C-36.98916803 10.48699782 -39.94194587 10.46509317 -42.89522171 10.44481659 C-48.98943729 10.40257929 -55.08342597 10.33691497 -61.17675781 10.22460938 C-62.2556427 10.20571655 -63.33452759 10.18682373 -64.44610596 10.1673584 C-67 10 -67 10 -69 9 C-69 8.01 -69 7.02 -69 6 C-68.22183426 6.00888245 -67.44366852 6.01776489 -66.641922 6.0269165 C-59.30015865 6.10714155 -51.95860852 6.16800415 -44.61652088 6.20724869 C-40.84205707 6.22810327 -37.06795615 6.2563809 -33.29370117 6.30175781 C-29.6497155 6.3452932 -26.00607836 6.36915313 -22.36185265 6.37950897 C-20.97317711 6.38688669 -19.58452015 6.40129401 -18.19599342 6.42292023 C-16.24779569 6.45205017 -14.29924553 6.45363471 -12.35083008 6.45410156 C-11.2427449 6.46298401 -10.13465973 6.47186646 -8.99299622 6.48101807 C-5.30624678 5.88850376 -3.65571043 4.5711494 -1 2 C-0.67 1.34 -0.34 0.68 0 0 Z " fill="#6AACCE" transform="translate(157,423)"/>
<path d="M0 0 C-1 3 -1 3 -3 4 C-4.94044277 4.09128293 -6.8840756 4.11752248 -8.82666016 4.11352539 C-10.04777496 4.11344986 -11.26888977 4.11337433 -12.52700806 4.11329651 C-13.86435995 4.10818952 -15.20171143 4.10297352 -16.5390625 4.09765625 C-17.90383859 4.0957914 -19.26861534 4.09436781 -20.63339233 4.09336853 C-24.22715093 4.08954863 -27.82086917 4.07972283 -31.41461182 4.06866455 C-35.08108982 4.05843911 -38.74757435 4.05386848 -42.4140625 4.04882812 C-49.60939341 4.0381001 -56.80469105 4.02102999 -64 4 C-64.33 3.01 -64.66 2.02 -65 1 C-56.82036442 0.86942979 -48.64072615 0.73902977 -40.46108437 0.60884857 C-36.6631825 0.54839856 -32.8652816 0.48788935 -29.06738281 0.42724609 C-25.40399771 0.36875285 -21.74061019 0.31041349 -18.07722092 0.25218201 C-16.67774747 0.22990937 -15.27827491 0.20758075 -13.87880325 0.18519592 C-11.92262248 0.15391587 -9.96643827 0.12285114 -8.01025391 0.09179688 C-6.33813339 0.06514954 -6.33813339 0.06514954 -4.63223267 0.03796387 C-3.08826383 0.01569569 -1.54412941 0 0 0 Z " fill="#68AACC" transform="translate(266,429)"/>
<path d="M0 0 C1.83738235 -0.01441132 1.83738235 -0.01441132 3.71188354 -0.02911377 C5.05027073 -0.03396174 6.38866008 -0.03824057 7.72705078 -0.04199219 C9.10084027 -0.04774636 10.47462973 -0.05350406 11.84841919 -0.05926514 C14.72837701 -0.06976526 17.60830699 -0.07561442 20.48828125 -0.07910156 C24.17260084 -0.08458509 27.85655065 -0.10861378 31.54075432 -0.13707352 C34.37868311 -0.15572745 37.21652329 -0.16090694 40.05450821 -0.16243744 C41.41244657 -0.16545817 42.77038358 -0.17346716 44.12826157 -0.18662262 C46.03074542 -0.20373913 47.9333823 -0.19994996 49.8359375 -0.1953125 C50.91720917 -0.19895813 51.99848083 -0.20260376 53.11251831 -0.20635986 C56.47887301 0.21516519 58.3447382 1.13752014 61.04736328 3.16113281 C63.44686508 8.00324124 63.28860193 12.76068634 63.17236328 18.03613281 C63.16333984 18.81988281 63.15431641 19.60363281 63.14501953 20.41113281 C63.12164391 22.32793336 63.08577981 24.24457472 63.04736328 26.16113281 C63.70736328 26.16113281 64.36736328 26.16113281 65.04736328 26.16113281 C65.04736328 25.50113281 65.04736328 24.84113281 65.04736328 24.16113281 C66.53236328 24.65613281 66.53236328 24.65613281 68.04736328 25.16113281 C66.72736328 27.14113281 65.40736328 29.12113281 64.04736328 31.16113281 C62.56236328 30.66613281 62.56236328 30.66613281 61.04736328 30.16113281 C61.04325439 29.52087158 61.03914551 28.88061035 61.03491211 28.22094727 C61.0019029 25.30425377 60.93125302 22.38962897 60.85986328 19.47363281 C60.8540625 18.46623047 60.84826172 17.45882812 60.84228516 16.42089844 C60.67728483 10.27594156 60.67728483 10.27594156 57.68408203 5.01660156 C53.89529598 2.35041879 51.17865062 2.03544306 46.66137695 2.03173828 C45.55980759 2.02858612 44.45823822 2.02543396 43.32328796 2.02218628 C41.53734978 2.02522263 41.53734978 2.02522263 39.71533203 2.02832031 C38.4908284 2.02736359 37.26632477 2.02640686 36.00471497 2.02542114 C33.41142729 2.02474002 30.81813792 2.02658961 28.22485352 2.03076172 C24.26135402 2.03609715 20.29796855 2.0308215 16.33447266 2.02441406 C13.8155922 2.02507513 11.29671181 2.02635687 8.77783203 2.02832031 C7.00100288 2.02528397 7.00100288 2.02528397 5.1882782 2.02218628 C4.07725235 2.02533844 2.9662265 2.0284906 1.8215332 2.03173828 C0.8490715 2.03253387 -0.1233902 2.03332947 -1.12532043 2.03414917 C-4.13360755 2.16926078 -6.99461678 2.60977816 -9.95263672 3.16113281 C-7.99894849 -0.74624364 -3.87413468 0.0245004 0 0 Z " fill="#98C9E2" transform="translate(208.95263671875,185.8388671875)"/>
<path d="M0 0 C1.47968324 0.14049518 2.95874516 0.28754826 4.4375 0.4375 C5.67306641 0.55931641 5.67306641 0.55931641 6.93359375 0.68359375 C9 1 9 1 10 2 C11.44169463 2.10767826 12.88857858 2.14680953 14.33424377 2.15821838 C15.26958954 2.1680072 16.2049353 2.17779602 17.16862488 2.18788147 C18.20296158 2.19363693 19.23729828 2.1993924 20.30297852 2.20532227 C21.92716705 2.22017166 21.92716705 2.22017166 23.58416748 2.23532104 C27.18239109 2.26704412 30.78062793 2.29173603 34.37890625 2.31640625 C36.86612807 2.33696645 39.35334632 2.35796266 41.84056091 2.37937927 C47.73017888 2.42903483 53.61981797 2.47427503 59.50948709 2.51740164 C66.87029421 2.57156899 74.23104219 2.63254604 81.59179688 2.69335938 C94.72782439 2.80105878 107.8638918 2.90266665 121 3 C121 3.33 121 3.66 121 4 C106.40483275 4.07019365 91.80968795 4.12303878 77.21438599 4.15543652 C70.43697454 4.17088162 63.65966819 4.19192576 56.88232422 4.22631836 C50.34008175 4.25950197 43.79790739 4.27686087 37.25558472 4.28463173 C34.76136559 4.29016865 32.26715234 4.30098087 29.77297974 4.31719017 C26.2756059 4.33901227 22.77868113 4.34196485 19.28125 4.34057617 C17.73944313 4.35675491 17.73944313 4.35675491 16.16648865 4.3732605 C10.07227521 4.34712972 5.57215388 3.50070327 0 1 C0 0.67 0 0.34 0 0 Z " fill="#3378A0" transform="translate(38,479)"/>
<path d="M0 0 C0.33 0 0.66 0 1 0 C1.00808685 1.05742905 1.01617371 2.11485809 1.02450562 3.20433044 C1.1021581 13.1938938 1.18994497 23.18332416 1.28752708 33.17271328 C1.33736672 38.30774192 1.3836975 43.44275122 1.421875 48.57788086 C1.45888401 53.53817481 1.50528556 58.49830187 1.55806351 63.45845222 C1.57652475 65.34613159 1.59166287 67.23384662 1.60334396 69.12158012 C1.62034877 71.7758055 1.64941653 74.4296555 1.68115234 77.08374023 C1.68331253 77.85554626 1.68547272 78.62735229 1.68769836 79.42254639 C1.80458973 87.1289931 2.43710767 94.25167793 8 100 C6.35 100 4.7 100 3 100 C0.38725039 93.96529765 -0.42538991 89.18498234 -0.34057617 82.64648438 C-0.34101425 81.74798767 -0.34145233 80.84949097 -0.34190369 79.92376709 C-0.33982849 76.98020011 -0.31655772 74.03721638 -0.29296875 71.09375 C-0.28736828 69.04252432 -0.28310031 66.99129461 -0.28010559 64.94006348 C-0.26869238 59.56092097 -0.2392556 54.18202437 -0.20599365 48.80297852 C-0.17521665 43.30618617 -0.16158398 37.80935381 -0.14648438 32.3125 C-0.11438247 21.54155908 -0.06322889 10.77080005 0 0 Z " fill="#388BB7" transform="translate(193,330)"/>
<path d="M0 0 C1.05409058 0.00141495 2.10818115 0.0028299 3.19421387 0.00428772 C6.53575571 0.00985117 9.87722867 0.02239684 13.21875 0.03515625 C15.49479069 0.04017598 17.77083245 0.04473805 20.046875 0.04882812 C25.60418987 0.05980861 31.16146501 0.07651003 36.71875 0.09765625 C37.21375 1.08765625 37.21375 1.08765625 37.71875 2.09765625 C30.73050327 3.03502894 23.80950255 3.1590815 16.7734375 3.08984375 C15.87272522 3.08196838 14.97201294 3.07409302 14.04400635 3.065979 C10.27507215 3.02951745 6.50641351 2.98747982 2.73779297 2.92626953 C-0.04202875 2.88366507 -2.8215019 2.86043261 -5.6015625 2.83984375 C-6.85817184 2.81191238 -6.85817184 2.81191238 -8.14016724 2.78341675 C-13.34790359 2.76106147 -17.43343911 3.56784689 -22.26217651 5.54812622 C-24.63537622 6.19403857 -25.97956138 5.87615612 -28.28125 5.09765625 C-26.95491937 4.43756115 -25.61964185 3.79544022 -24.28125 3.16015625 C-23.53875 2.80050781 -22.79625 2.44085938 -22.03125 2.0703125 C-14.98766839 -0.42095429 -7.37447334 -0.03773531 0 0 Z " fill="#7DBBD5" transform="translate(65.28125,12.90234375)"/>
<path d="M0 0 C2.5 1.375 2.5 1.375 5 3 C5 3.66 5 4.32 5 5 C5.66 5 6.32 5 7 5 C14.63151175 38.61414709 14.63151175 38.61414709 9 48 C8.34 48 7.68 48 7 48 C6.814375 49.2065625 6.814375 49.2065625 6.625 50.4375 C6.315625 51.7059375 6.315625 51.7059375 6 53 C5.01 53.495 5.01 53.495 4 54 C4.19335938 53.46375 4.38671875 52.9275 4.5859375 52.375 C9.29057542 38.21450568 11.21895111 22.67572784 4.45703125 8.84375 C3.42481599 7.13728487 2.34699848 5.4567618 1.20703125 3.8203125 C0 2 0 2 0 0 Z " fill="#87C1DC" transform="translate(160,86)"/>
<path d="M0 0 C0.66 0 1.32 0 2 0 C1.99476318 1.28463135 1.98952637 2.5692627 1.98413086 3.89282227 C1.96581986 8.72924076 1.95447412 13.56565629 1.94506836 18.40209961 C1.94008709 20.482183 1.93329965 22.56226298 1.92456055 24.64233398 C1.84882389 39.15232883 1.84882389 39.15232883 2.31640625 53.65234375 C2.3738501 54.77503662 2.43129395 55.89772949 2.49047852 57.05444336 C3.05077538 60.29353377 4.14014587 62.31569051 6 65 C4.02 64.34 2.04 63.68 0 63 C0 42.21 0 21.42 0 0 Z " fill="#85BCD2" transform="translate(354,364)"/>
<path d="M0 0 C0 0.99 0 1.98 0 3 C-0.78375 3.0825 -1.5675 3.165 -2.375 3.25 C-3.24125 3.4975 -4.1075 3.745 -5 4 C-6.09166275 5.93330603 -6.09166275 5.93330603 -7 8 C-9.125 9.25 -9.125 9.25 -11 10 C-11 9.34 -11 8.68 -11 8 C-11.66 8 -12.32 8 -13 8 C-13 8.66 -13 9.32 -13 10 C-26.38535678 12.2308928 -38.92374258 11.156338 -52 8 C-52.33 7.01 -52.66 6.02 -53 5 C-51.88882813 5.28875 -50.77765625 5.5775 -49.6328125 5.875 C-33.01573285 10.07461302 -19.23131441 10.2867405 -4.0625 1.25 C-2 0 -2 0 0 0 Z " fill="#69ACCF" transform="translate(151,155)"/>
<path d="M0 0 C18.48 0 36.96 0 56 0 C56 0.66 56 1.32 56 2 C23.42454132 3.09624742 23.42454132 3.09624742 11.6875 3.125 C10.57217896 3.13176758 10.57217896 3.13176758 9.43432617 3.13867188 C6.14659232 3.12926379 3.1434313 3.01818083 0 2 C0 1.34 0 0.68 0 0 Z " fill="#84B6D0" transform="translate(228,13)"/>
<path d="M0 0 C0.33 0 0.66 0 1 0 C1.19501307 6.36761083 1.37206874 12.73554634 1.53710938 19.10400391 C1.59522509 21.26687719 1.65733249 23.42964729 1.72363281 25.59228516 C1.81865251 28.71497787 1.89893548 31.83776966 1.9765625 34.9609375 C2.00875885 35.91551849 2.0409552 36.87009949 2.0741272 37.85360718 C2.26821226 46.70739353 1.13299299 54.63748595 -3 62.5625 C-3.7734375 64.08037109 -3.7734375 64.08037109 -4.5625 65.62890625 C-6 68 -6 68 -8 69 C-7.57781184 67.3501725 -7.13675575 65.70516335 -6.6875 64.0625 C-6.44386719 63.14597656 -6.20023437 62.22945313 -5.94921875 61.28515625 C-5.63597656 60.53105469 -5.32273437 59.77695312 -5 59 C-3.515 58.505 -3.515 58.505 -2 58 C-0.73074341 52.04668973 -0.77511287 46.09818526 -0.68359375 40.0390625 C-0.66281265 38.89335785 -0.64203156 37.7476532 -0.62062073 36.56723022 C-0.55541782 32.91987914 -0.49637648 29.27245816 -0.4375 25.625 C-0.39428695 23.14712829 -0.35067178 20.66926356 -0.30664062 18.19140625 C-0.19976648 12.1276773 -0.09794651 6.06387937 0 0 Z " fill="#32799F" transform="translate(482,398)"/>
<path d="M0 0 C4.45315687 4.01215963 5.74254705 9.06066124 6.25643921 14.92776489 C6.34563737 18.25960911 6.33758497 21.57743343 6.29296875 24.91015625 C6.28872391 26.11820419 6.28447906 27.32625214 6.28010559 28.57090759 C6.26341094 32.40167212 6.22577474 36.23189642 6.1875 40.0625 C6.17244131 42.67121632 6.15875498 45.27994095 6.14648438 47.88867188 C6.11353755 54.25929663 6.06343014 60.6296097 6 67 C5.67 67 5.34 67 5 67 C5 49.18 5 31.36 5 13 C4.34 13 3.68 13 3 13 C2.87625 12.030625 2.7525 11.06125 2.625 10.0625 C2.41875 9.051875 2.2125 8.04125 2 7 C1.34 6.67 0.68 6.34 0 6 C0 4.02 0 2.04 0 0 Z " fill="#327AA0" transform="translate(477,35)"/>
<path d="M0 0 C7.4659249 -0.36717663 7.4659249 -0.36717663 10 1.375 C11 3 11 3 11 5 C13.64 4.67 16.28 4.34 19 4 C19 6.31 19 8.62 19 11 C20.32 11 21.64 11 23 11 C23 12.98 23 14.96 23 17 C22.030625 16.154375 21.06125 15.30875 20.0625 14.4375 C10.81844427 6.44954203 10.81844427 6.44954203 0 1 C0 0.67 0 0.34 0 0 Z " fill="#4599C2" transform="translate(137,69)"/>
<path d="M0 0 C11.22 0 22.44 0 34 0 C34 0.66 34 1.32 34 2 C26.25917797 2.77825141 18.58840016 3.10730907 10.8125 3.125 C9.55602661 3.13176758 9.55602661 3.13176758 8.27416992 3.13867188 C2.24766567 3.12383284 2.24766567 3.12383284 0 2 C0 1.34 0 0.68 0 0 Z " fill="#67A7C9" transform="translate(182,13)"/>
<path d="M0 0 C4.92127034 -0.16682272 8.50343896 -0.24828052 13 2 C13.33 1.34 13.66 0.68 14 0 C14.99 0.33 15.98 0.66 17 1 C17.6875 3.0625 17.6875 3.0625 18 5 C18.53625 5.0825 19.0725 5.165 19.625 5.25 C22.88779721 6.28035701 25.280672 7.94539662 28 10 C28.33 10.99 28.66 11.98 29 13 C25.80384486 11.86588043 23.01724509 10.42612748 20.125 8.6875 C13.82042312 5.09100113 6.90018342 3.13642042 0 1 C0 0.67 0 0.34 0 0 Z " fill="#519EC3" transform="translate(370,186)"/>
<path d="M0 0 C1.65902344 -0.0309375 1.65902344 -0.0309375 3.3515625 -0.0625 C4.94097656 -0.07023437 4.94097656 -0.07023437 6.5625 -0.078125 C7.53316406 -0.0874707 8.50382812 -0.09681641 9.50390625 -0.10644531 C12.37660185 0.30377922 13.23930558 1.00466999 15 3.25 C13.53433594 3.01216797 13.53433594 3.01216797 12.0390625 2.76953125 C0.86934659 1.19028714 -9.8687458 1.46609041 -20.49609375 5.375 C-23 6.25 -23 6.25 -26 6.25 C-25.67 5.26 -25.34 4.27 -25 3.25 C-24.31292969 3.11722656 -23.62585938 2.98445313 -22.91796875 2.84765625 C-21.56638672 2.58275391 -21.56638672 2.58275391 -20.1875 2.3125 C-18.84751953 2.05146484 -18.84751953 2.05146484 -17.48046875 1.78515625 C-11.4302601 0.47983564 -6.25312739 0.02915211 0 0 Z " fill="#8EC2DE" transform="translate(122,65.75)"/>
<path d="M0 0 C0.66 0.33 1.32 0.66 2 1 C1.505 1.433125 1.01 1.86625 0.5 2.3125 C-1.33218192 3.99740483 -1.33218192 3.99740483 -1 7 C-2.93823179 9.39971554 -3.99390037 9.99796679 -7 11 C-7.35412344 12.32796291 -7.68521554 13.66216607 -8 15 C-9.4375 16.75 -9.4375 16.75 -11 18 C-11.66 18 -12.32 18 -13 18 C-11.09396298 10.37585192 -6.36533158 4.49317523 0 0 Z " fill="#4396C1" transform="translate(291,255)"/>
<path d="M0 0 C0.33 0 0.66 0 1 0 C1.02480163 5.15950168 1.04290809 10.31896831 1.05493164 15.47851562 C1.05994651 17.23210251 1.06676002 18.98568524 1.07543945 20.73925781 C1.08763 23.2662865 1.09325688 25.79325968 1.09765625 28.3203125 C1.10281754 29.09867462 1.10797882 29.87703674 1.11329651 30.6789856 C1.1137272 34.9003949 0.8358664 38.84091388 0 43 C-2.475 43.495 -2.475 43.495 -5 44 C-5 43.34 -5 42.68 -5 42 C-4.34 42 -3.68 42 -3 42 C-1.09038648 37.15561201 -0.66456095 32.68811005 -0.5859375 27.5390625 C-0.56657135 26.74849457 -0.5472052 25.95792664 -0.5272522 25.1434021 C-0.46783947 22.63737517 -0.42122573 20.13130135 -0.375 17.625 C-0.33678487 15.91794957 -0.29773111 14.21091769 -0.2578125 12.50390625 C-0.16216989 8.33608956 -0.07799885 4.1681827 0 0 Z " fill="#8FC1DA" transform="translate(433,386)"/>
<path d="M0 0 C7.29432446 -0.14524097 14.79613416 -0.25800623 22 1 C22.33 1.66 22.66 2.32 23 3 C19.9166866 3.02911321 16.83340875 3.04683682 13.75 3.0625 C12.87730469 3.07087891 12.00460938 3.07925781 11.10546875 3.08789062 C10.26113281 3.09111328 9.41679687 3.09433594 8.546875 3.09765625 C7.38430176 3.10551147 7.38430176 3.10551147 6.19824219 3.11352539 C4.00716402 3.00036998 2.10362139 2.60552448 0 2 C0 1.34 0 0.68 0 0 Z " fill="#4F99C0" transform="translate(228,13)"/>
<path d="M0 0 C0.33 0.66 0.66 1.32 1 2 C-8.01824887 3.06996173 -16.93664124 3.10234659 -26 3 C-19.04000681 -1.63999546 -8.14257325 -0.14425819 0 0 Z " fill="#559DC3" transform="translate(102,13)"/>
<path d="M0 0 C0.66 1.32 1.32 2.64 2 4 C2.99 4 3.98 4 5 4 C5.33821197 6.85366354 5.6706978 9.70780596 6 12.5625 C6.09539062 13.36236328 6.19078125 14.16222656 6.2890625 14.98632812 C6.82714176 19.69452167 7.10176703 24.26147265 7 29 C6.67 29 6.34 29 6 29 C5.1871695 25.10423555 4.37479359 21.20837643 3.5625 17.3125 C3.33240234 16.20970703 3.10230469 15.10691406 2.86523438 13.97070312 C2.53168945 12.3706543 2.53168945 12.3706543 2.19140625 10.73828125 C1.98717041 9.75899658 1.78293457 8.77971191 1.57250977 7.77075195 C1.03771458 5.18252569 0.51513069 2.59220381 0 0 Z " fill="#B2D9EE" transform="translate(424,236)"/>
<path d="M0 0 C1.47968324 0.14049518 2.95874516 0.28754826 4.4375 0.4375 C5.67306641 0.55931641 5.67306641 0.55931641 6.93359375 0.68359375 C9 1 9 1 10 2 C12.21687994 2.15873955 14.43855298 2.25133837 16.66015625 2.31640625 C17.65685585 2.3475779 17.65685585 2.3475779 18.6736908 2.37937927 C20.80318543 2.44493658 22.93280668 2.50378785 25.0625 2.5625 C26.50326847 2.60567939 27.94402399 2.64929349 29.38476562 2.69335938 C32.9230404 2.80062393 36.46145869 2.90187371 40 3 C40 3.33 40 3.66 40 4 C35.58922656 4.07471341 31.17879816 4.12886513 26.76757812 4.16479492 C25.27011693 4.17978888 23.77269895 4.20019105 22.27539062 4.22631836 C6.95521933 4.48676127 6.95521933 4.48676127 0 1 C0 0.67 0 0.34 0 0 Z " fill="#367AA0" transform="translate(38,479)"/>
<path d="M0 0 C0.66 0.33 1.32 0.66 2 1 C1.39671875 1.556875 0.7934375 2.11375 0.171875 2.6875 C-4.27871331 6.937094 -7.70844293 10.60912401 -10.16015625 16.26953125 C-11.32474357 18.6691228 -12.99221457 20.27904106 -15 22 C-13.58185035 12.69237413 -6.63628678 6.18151586 0 0 Z " fill="#80BAD9" transform="translate(31,21)"/>
<path d="M0 0 C0 0.33 0 0.66 0 1 C-0.56396484 1.0093457 -1.12792969 1.01869141 -1.70898438 1.02832031 C-4.30681992 1.08257486 -6.90295919 1.16610683 -9.5 1.25 C-10.8303125 1.27126953 -10.8303125 1.27126953 -12.1875 1.29296875 C-17.69106588 1.49530573 -21.53070009 2.31100054 -26.22851562 5.24902344 C-28.50895415 6.2157584 -29.70738461 5.79825387 -32 5 C-21.19539369 -1.00255906 -12.21506148 -1.30247053 0 0 Z " fill="#90C2DC" transform="translate(325,249)"/>
<path d="M0 0 C0.99 0.33 1.98 0.66 3 1 C3 2.32 3 3.64 3 5 C3.66 5 4.32 5 5 5 C5.33 6.98 5.66 8.96 6 11 C6.99 11.33 7.98 11.66 9 12 C8.67 13.32 8.34 14.64 8 16 C7.03760548 14.75312408 6.08025991 13.50235031 5.125 12.25 C4.59132813 11.55390625 4.05765625 10.8578125 3.5078125 10.140625 C0.90125634 6.44012559 0 4.64041283 0 0 Z " fill="#5EA4C8" transform="translate(16,453)"/>
<path d="M0 0 C0.66 0.66 1.32 1.32 2 2 C1.87456852 9.87082517 -2.00590529 17.41191443 -6 24 C-6.66 24.33 -7.32 24.66 -8 25 C-7.57781184 23.3501725 -7.13675575 21.70516335 -6.6875 20.0625 C-6.44386719 19.14597656 -6.20023437 18.22945313 -5.94921875 17.28515625 C-5.63597656 16.53105469 -5.32273437 15.77695312 -5 15 C-4.01 14.67 -3.02 14.34 -2 14 C-1.34 9.38 -0.68 4.76 0 0 Z " fill="#80BAD6" transform="translate(482,442)"/>
<path d="M0 0 C1.46033351 4.38100054 0.77390839 8.22456309 -1.0625 12.4375 C-1.5265625 13.2109375 -1.5265625 13.2109375 -2 14 C-2.66 14 -3.32 14 -4 14 C-4.12375 14.804375 -4.2475 15.60875 -4.375 16.4375 C-4.684375 17.7059375 -4.684375 17.7059375 -5 19 C-5.66 19.33 -6.32 19.66 -7 20 C-6.79503906 19.33613281 -6.59007812 18.67226562 -6.37890625 17.98828125 C-6.10949219 17.10527344 -5.84007812 16.22226563 -5.5625 15.3125 C-5.29566406 14.44238281 -5.02882812 13.57226562 -4.75390625 12.67578125 C-4.03655471 10.12974079 -3.482459 7.5996577 -3 5 C-2.34 5 -1.68 5 -1 5 C-0.67 3.35 -0.34 1.7 0 0 Z " fill="#5FA3C6" transform="translate(171,120)"/>
<path d="M0 0 C0.33 0 0.66 0 1 0 C1 5.61 1 11.22 1 17 C1.66 17 2.32 17 3 17 C3 16.34 3 15.68 3 15 C3.99 15.33 4.98 15.66 6 16 C4.7260411 18.03833424 3.38938077 20.03852126 2 22 C1.34 22 0.68 22 0 22 C0 14.74 0 7.48 0 0 Z " fill="#68A4C3" transform="translate(271,195)"/>
<path d="M0 0 C4.20463662 3.73352888 5.74946028 8.83693606 6.1875 14.3671875 C6.1875 16.2458316 6.1023194 18.12414436 6 20 C5.67 20 5.34 20 5 20 C5 17.69 5 15.38 5 13 C4.34 13 3.68 13 3 13 C2.87625 12.030625 2.7525 11.06125 2.625 10.0625 C2.41875 9.051875 2.2125 8.04125 2 7 C1.34 6.67 0.68 6.34 0 6 C0 4.02 0 2.04 0 0 Z " fill="#6BACCF" transform="translate(477,35)"/>
<path d="M0 0 C3.96 0 7.92 0 12 0 C12 0.33 12 0.66 12 1 C6.06 2.32 0.12 3.64 -6 5 C-6 4.01 -6 3.02 -6 2 C-4.02 2 -2.04 2 0 2 C0 1.34 0 0.68 0 0 Z " fill="#6FB1D4" transform="translate(310,185)"/>
<path d="M0 0 C1 2 1 2 0.3515625 4.35546875 C-1.22399601 7.4382812 -2.98638159 9.08852162 -5.625 11.3125 C-6.44226563 12.00988281 -7.25953125 12.70726562 -8.1015625 13.42578125 C-8.72804687 13.94527344 -9.35453125 14.46476563 -10 15 C-10.66 14.67 -11.32 14.34 -12 14 C-11.20335937 13.23816406 -11.20335937 13.23816406 -10.390625 12.4609375 C-6.36535478 8.53850265 -2.89400247 4.82333745 0 0 Z " fill="#84BDDC" transform="translate(163,140)"/>
<path d="M0 0 C3.11227851 4.66841777 3.11824029 8.17597138 3.0625 13.75 C3.05347656 14.92046875 3.04445313 16.0909375 3.03515625 17.296875 C3.02355469 18.18890625 3.01195312 19.0809375 3 20 C2.67 20 2.34 20 2 20 C0.74158054 13.25846717 -0.26404456 6.86515862 0 0 Z " fill="#69A9CD" transform="translate(351,275)"/>
<path d="M0 0 C0.33 0 0.66 0 1 0 C1.09796875 0.59167969 1.1959375 1.18335938 1.296875 1.79296875 C2.25769801 6.87042139 3.2985201 10.17513744 7 14 C5.35 14 3.7 14 2 14 C0.09391902 10.78817851 -0.22266247 8.46117397 -0.125 4.75 C-0.09792969 3.41195313 -0.09792969 3.41195313 -0.0703125 2.046875 C-0.04710937 1.37140625 -0.02390625 0.6959375 0 0 Z " fill="#76B5D4" transform="translate(194,416)"/>
<path d="M0 0 C7.10993658 -0.7230444 7.10993658 -0.7230444 9.64453125 1.3359375 C11 3 11 3 13 6 C9.51038791 6 7.88519705 5.09620626 4.8125 3.5 C3.91144531 3.0359375 3.01039063 2.571875 2.08203125 2.09375 C1.39496094 1.7328125 0.70789063 1.371875 0 1 C0 0.67 0 0.34 0 0 Z " fill="#6EAED2" transform="translate(137,69)"/>
<path d="M0 0 C1 2 1 2 0.25 4.9375 C-0.89861935 7.75161742 -1.60483069 9.20362301 -4 11 C-4.66 11 -5.32 11 -6 11 C-4.74194623 6.49197399 -3.09592835 3.5087188 0 0 Z " fill="#65A6CC" transform="translate(284,262)"/>
<path d="M0 0 C5.56890517 0.47986031 10.67067568 1.29915181 16 3 C16 3.33 16 3.66 16 4 C9.79029227 4.33266291 5.71735105 3.45029331 0 1 C0 0.67 0 0.34 0 0 Z " fill="#84BEDB" transform="translate(38,479)"/>
<path d="M0 0 C2.97 0.495 2.97 0.495 6 1 C4.75453595 4.73639216 3.36595047 5.18756513 0 7 C0 4.69 0 2.38 0 0 Z " fill="#469BC5" transform="translate(466,468)"/>
<path d="M0 0 C0.66 1.32 1.32 2.64 2 4 C2.99 4 3.98 4 5 4 C5 6.64 5 9.28 5 12 C4.67 11.01 4.34 10.02 4 9 C3.34 9 2.68 9 2 9 C1.34 6.03 0.68 3.06 0 0 Z " fill="#62A9CB" transform="translate(424,236)"/>
<path d="M0 0 C1 2 1 2 0.3125 4.875 C-1.03712351 8.08838932 -2.39272995 9.74036595 -5 12 C-5.99 11.67 -6.98 11.34 -8 11 C-7.236875 10.484375 -6.47375 9.96875 -5.6875 9.4375 C-2.38424393 6.44152356 -1.51374274 4.14287486 0 0 Z " fill="#0E74AA" transform="translate(165,139)"/>
<path d="M0 0 C1.79068573 2.6860286 2.66055791 4.6626589 3.625 7.6875 C3.88539062 8.49574219 4.14578125 9.30398437 4.4140625 10.13671875 C4.60742188 10.75160156 4.80078125 11.36648437 5 12 C4.34 12 3.68 12 3 12 C3 11.34 3 10.68 3 10 C2.01 9.67 1.02 9.34 0 9 C0 6.03 0 3.06 0 0 Z " fill="#6FADD0" transform="translate(73,129)"/>
<path d="M0 0 C2.8125 0.625 2.8125 0.625 6 2 C7.875 5.125 7.875 5.125 9 8 C5.18284914 6.44486447 2.77292558 4.00400272 0 1 C0 0.67 0 0.34 0 0 Z " fill="#6BAACC" transform="translate(25,469)"/>
<path d="M0 0 C5 1 5 1 6.375 2.8125 C7 5 7 5 6 9 C4.02 6.03 2.04 3.06 0 0 Z " fill="#569FC6" transform="translate(408,208)"/>
<path d="M0 0 C1.08557659 3.24215827 0.94015194 5.02321809 -0.3125 8.1875 C-0.57675781 8.88230469 -0.84101563 9.57710938 -1.11328125 10.29296875 C-2 12 -2 12 -4 13 C-3.71517632 11.58194169 -3.42181856 10.16559621 -3.125 8.75 C-2.96257812 7.96109375 -2.80015625 7.1721875 -2.6328125 6.359375 C-2.00849925 4.03168856 -1.15161458 2.10968048 0 0 Z " fill="#8DC2DA" transform="translate(277,273)"/>
<path d="M0 0 C4.61691161 0.52464905 6.09987886 1.07490914 10 4 C6.7 3.67 3.4 3.34 0 3 C0 2.01 0 1.02 0 0 Z " fill="#589FC4" transform="translate(325,250)"/>
<path d="M0 0 C2.50298434 2.93828597 3.46930939 5.17902761 4 9 C2.66666667 9 1.33333333 9 0 9 C0 6.03 0 3.06 0 0 Z " fill="#5CA7CF" transform="translate(347,266)"/>
<path d="M0 0 C0.598125 0.350625 1.19625 0.70125 1.8125 1.0625 C-2.9375 4.0625 -2.9375 4.0625 -5.1875 4.0625 C-5.1875 2.7425 -5.1875 1.4225 -5.1875 0.0625 C-2.1875 -0.9375 -2.1875 -0.9375 0 0 Z " fill="#59A0C7" transform="translate(294.1875,193.9375)"/>
<path d="M0 0 C0.33 0 0.66 0 1 0 C1.06058594 0.74765625 1.12117188 1.4953125 1.18359375 2.265625 C1.26738281 3.25046875 1.35117188 4.2353125 1.4375 5.25 C1.51871094 6.22453125 1.59992188 7.1990625 1.68359375 8.203125 C1.95074584 10.56461753 2.35371968 12.71901065 3 15 C2.34 15 1.68 15 1 15 C-0.44207941 12.11584117 -0.09394887 9.58278472 -0.0625 6.375 C-0.05347656 5.18648438 -0.04445313 3.99796875 -0.03515625 2.7734375 C-0.02355469 1.85820313 -0.01195313 0.94296875 0 0 Z " fill="#4D96B9" transform="translate(70,113)"/>
<path d="M0 0 C-5.17578125 3.22265625 -5.17578125 3.22265625 -7 4 C-7.99 3.67 -8.98 3.34 -10 3 C-10 2.34 -10 1.68 -10 1 C-8.71073008 0.63720544 -7.41846728 0.28503302 -6.125 -0.0625 C-5.40570313 -0.25972656 -4.68640625 -0.45695312 -3.9453125 -0.66015625 C-2 -1 -2 -1 0 0 Z " fill="#70B1D2" transform="translate(466,476)"/>
<path d="M0 0 C5.859375 -0.390625 5.859375 -0.390625 8 0 C9.32 1.32 10.64 2.64 12 4 C6.06 2.515 6.06 2.515 0 1 C0 0.67 0 0.34 0 0 Z " fill="#8EC2DC" transform="translate(370,186)"/>
<path d="M0 0 C2.97 0.495 2.97 0.495 6 1 C5.67 1.66 5.34 2.32 5 3 C4.34 3 3.68 3 3 3 C2.67 3.99 2.34 4.98 2 6 C1.34 6 0.68 6 0 6 C0 4.02 0 2.04 0 0 Z " fill="#71B1D4" transform="translate(88,73)"/>
<path d="M0 0 C0 0.99 0 1.98 0 3 C-2.64 3.66 -5.28 4.32 -8 5 C-3.22727273 0 -3.22727273 0 0 0 Z " fill="#7CB9D7" transform="translate(151,155)"/>
<path d="M0 0 C4.46840411 0.49648935 5.68987756 0.68987756 9 4 C4.545 3.01 4.545 3.01 0 2 C0 1.34 0 0.68 0 0 Z " fill="#79B6D2" transform="translate(453,16)"/>
<path d="" fill="#FFFFFF" transform="translate(0,0)"/>
<path d="" fill="#FFFFFF" transform="translate(0,0)"/>
<path d="" fill="#FFFFFF" transform="translate(0,0)"/>
<path d="" fill="#FFFFFF" transform="translate(0,0)"/>
<path d="" fill="#FFFFFF" transform="translate(0,0)"/>
<path d="" fill="#FFFFFF" transform="translate(0,0)"/>
<path d="" fill="#FFFFFF" transform="translate(0,0)"/>
<path d="" fill="#FFFFFF" transform="translate(0,0)"/>
<path d="" fill="#FFFFFF" transform="translate(0,0)"/>
<path d="" fill="#FFFFFF" transform="translate(0,0)"/>
<path d="" fill="#FFFFFF" transform="translate(0,0)"/>
<path d="" fill="#FFFFFF" transform="translate(0,0)"/>
<path d="" fill="#FFFFFF" transform="translate(0,0)"/>
<path d="" fill="#FFFFFF" transform="translate(0,0)"/>
<path d="" fill="#FFFFFF" transform="translate(0,0)"/>
<path d="" fill="#FFFFFF" transform="translate(0,0)"/>
<path d="" fill="#FFFFFF" transform="translate(0,0)"/>
<path d="" fill="#FFFFFF" transform="translate(0,0)"/>
<path d="" fill="#FFFFFF" transform="translate(0,0)"/>
<path d="" fill="#FFFFFF" transform="translate(0,0)"/>
<path d="" fill="#FFFFFF" transform="translate(0,0)"/>
<path d="" fill="#FFFFFF" transform="translate(0,0)"/>
<path d="" fill="#FFFFFF" transform="translate(0,0)"/>
<path d="" fill="#FFFFFF" transform="translate(0,0)"/>
<path d="" fill="#FFFFFF" transform="translate(0,0)"/>
<path d="" fill="#FFFFFF" transform="translate(0,0)"/>
<path d="" fill="#FFFFFF" transform="translate(0,0)"/>
<path d="" fill="#FFFFFF" transform="translate(0,0)"/>
<path d="" fill="#FFFFFF" transform="translate(0,0)"/>
<path d="" fill="#FFFFFF" transform="translate(0,0)"/>
<path d="" fill="#FFFFFF" transform="translate(0,0)"/>
<path d="" fill="#FFFFFF" transform="translate(0,0)"/>
<path d="" fill="#FFFFFF" transform="translate(0,0)"/>
<path d="" fill="#FFFFFF" transform="translate(0,0)"/>
<path d="" fill="#FFFFFF" transform="translate(0,0)"/>
<path d="" fill="#FFFFFF" transform="translate(0,0)"/>
</svg>
