<?xml version="1.0" encoding="UTF-8"?>
<svg version="1.1" xmlns="http://www.w3.org/2000/svg" width="1000" height="1200">
<path d="M0 0 C0.99515625 0.48339844 1.9903125 0.96679688 3.015625 1.46484375 C29.66012442 15.20579274 47.62501108 38.39756138 60 65 C60.78310547 66.62228516 60.78310547 66.62228516 61.58203125 68.27734375 C72.80009319 92.69660788 77.29281433 119.93268602 80.25 146.4375 C80.33317474 147.17955688 80.41634949 147.92161377 80.50204468 148.68615723 C82.40167244 165.90862131 83.1344672 183.06875174 83.19923019 200.39099121 C83.21129732 203.33787058 83.23080645 206.28462066 83.25234985 209.23144531 C83.31308371 217.59565838 83.367911 225.95984778 83.40136719 234.32421875 C83.42252159 239.48039989 83.4579649 244.63632526 83.50212479 249.7923584 C83.51609612 251.73121097 83.5249635 253.67010854 83.52817917 255.60900879 C83.55721874 271.42732378 84.89240055 286.76307104 89.6875 301.9375 C89.9438623 302.76193604 90.20022461 303.58637207 90.46435547 304.43579102 C100.11736666 334.59211954 117.52932402 360.33084256 137 385 C137.86786286 386.11275485 138.73503066 387.22605209 139.6015625 388.33984375 C144.47842996 394.59530283 149.4291749 400.78683411 154.4375 406.9375 C155.25915649 407.94695679 155.25915649 407.94695679 156.09741211 408.97680664 C156.64405518 409.64832764 157.19069824 410.31984863 157.75390625 411.01171875 C158.83598291 412.34110887 159.91801541 413.67053494 161 415 C161.49612793 415.60924316 161.99225586 416.21848633 162.50341797 416.84619141 C181.64542848 440.40116124 199.45714345 464.91591707 215 491 C215.50772949 491.85174805 216.01545898 492.70349609 216.53857422 493.58105469 C240.6930258 534.37903298 259.10964561 578.67181311 265 626 C265.0942627 626.71462402 265.18852539 627.42924805 265.28564453 628.16552734 C266.24563513 636.33489281 266.24355557 644.53585953 266.25 652.75 C266.25101212 653.91284515 266.25101212 653.91284515 266.25204468 655.09918213 C266.22073315 677.82549808 263.41192547 700.72565361 255 722 C255.87914062 722.25652344 256.75828125 722.51304687 257.6640625 722.77734375 C269.74682538 727.20580368 278.95518348 737.72425584 284.49487305 749.02441406 C289.73572963 760.5413952 292.32748156 773.18317377 295.29907227 785.42480469 C298.91200828 800.27400639 302.75043504 812.18959929 313.0625 823.875 C328.24185395 841.51649661 340.49825866 860.05636127 339.18652344 884.03076172 C338.35943478 892.76282604 333.00787102 899.91359472 327 906 C324.38854378 908.07870919 321.71401617 910.05763211 319 912 C319.47308594 912.32685791 319.94617188 912.65371582 320.43359375 912.99047852 C352.93418235 935.50885661 352.93418235 935.50885661 358.375 955.375 C360.41599415 966.9136897 357.08503679 976.28449098 351 986 C348.25262365 989.63100571 345.25994337 992.8268438 342 996 C340.94619141 997.08474609 340.94619141 997.08474609 339.87109375 998.19140625 C275.96310098 1060.32108965 146.33054392 1069.76823055 -22.60882568 1084.89285278 C-24.26271531 1084.96696268 -25.91639818 1085.04578182 -27.56988525 1085.12838745 C-49.76334432 1086.22969449 -71.96474171 1086.18747615 -94.1796875 1086.18530273 C-98.52413152 1086.18522216 -102.86846855 1086.19206915 -107.21289062 1086.20581055 C-146.55594893 1086.32809928 -185.83004767 1085.35231942 -225.0625 1082.25 C-226.66111374 1082.12644638 -226.66111374 1082.12644638 -228.29202271 1082.00039673 C-281.22320609 1077.87915075 -333.9787427 1071.33894694 -385.96130371 1060.42779541 C-387.96744213 1060.00683187 -389.97440349 1059.58997165 -391.98144531 1059.17333984 C-444.35031483 1048.19488472 -507.71326729 1033.56647594 -547 995 C-547.7940625 994.23042969 -548.588125 993.46085937 -549.40625 992.66796875 C-557.33073486 984.49254187 -562.29509614 974.89492327 -563.3125 963.5 C-563.11306156 952.92976257 -558.47034384 944.04847649 -552 936 C-551.35998047 935.11634766 -551.35998047 935.11634766 -550.70703125 934.21484375 C-548.31340253 931.09944391 -546.1450602 929.08930815 -542.7578125 927.00390625 C-532.58198971 920.63206553 -529.82620778 913.85698292 -527.04125977 902.29931641 C-526.56977427 900.20984851 -526.11530174 898.11646628 -525.67822266 896.01953125 C-525.03313896 893.14753873 -524.20519077 890.40053199 -523.32421875 887.59375 C-519.68301027 874.26690311 -522.8766969 860.06540923 -524.86376953 846.67333984 C-528.04478024 825.02082748 -529.37432982 804.72270827 -515.92578125 786.1328125 C-504.57809834 772.72747075 -488.03368068 767.19465001 -471.9609375 761.48242188 C-456.1857424 755.72467948 -446.68165983 748.22510058 -437 734.625 C-435.78263335 732.94561094 -434.56389458 731.26721561 -433.34375 729.58984375 C-432.76753906 728.79562012 -432.19132813 728.00139648 -431.59765625 727.18310547 C-429.61515698 724.47413412 -427.58337141 721.81975965 -425.5 719.1875 C-424.90316406 718.43082031 -424.30632812 717.67414062 -423.69140625 716.89453125 C-422.05958159 715.06673689 -420.40079547 713.81952036 -418.4375 712.375 C-416.23537111 710.19661374 -416.00860256 709.17693374 -415.85546875 706.02734375 C-416.04922465 703.35688197 -416.28339996 700.70901233 -416.5546875 698.046875 C-421.3684493 649.27534603 -406.93335225 599.53562332 -386.30273438 555.76708984 C-385.02782186 553.05909538 -383.78462613 550.33842656 -382.546875 547.61328125 C-376.9013253 535.3172626 -370.46060611 523.54719345 -363.66015625 511.85546875 C-362.04428576 509.0761715 -360.4435028 506.28859652 -358.84375 503.5 C-344.86464343 479.31206731 -328.95126924 456.19952698 -312 434 C-311.23429688 432.989375 -310.46859375 431.97875 -309.6796875 430.9375 C-305.06211256 424.86697314 -300.32405508 418.90770943 -295.5 413 C-293.84257922 410.96237286 -292.18634015 408.92379799 -290.53125 406.88427734 C-289.57542134 405.70808385 -288.61744818 404.53362596 -287.65625 403.36181641 C-262.51013512 372.58729379 -247.19981084 335.83697963 -240 297 C-239.82210938 296.08202637 -239.64421875 295.16405273 -239.4609375 294.21826172 C-234.05034871 265.32421464 -236.64999361 234.73210113 -238.75634766 205.59228516 C-242.55889995 149.5294049 -243.17928821 79.84856771 -204.19921875 34.6796875 C-201.54658471 31.70561933 -198.78377573 28.8512612 -196 26 C-195.33484375 25.27296875 -194.6696875 24.5459375 -193.984375 23.796875 C-188.38839182 17.82469127 -181.8294124 13.41950251 -175 9 C-173.61361328 8.08734375 -173.61361328 8.08734375 -172.19921875 7.15625 C-124.81882645 -22.33083998 -49.85953059 -24.33101547 0 0 Z " fill="#E2DCD4" transform="translate(602,64)"/>
<path d="M0 0 C0.99515625 0.48339844 1.9903125 0.96679688 3.015625 1.46484375 C29.66012442 15.20579274 47.62501108 38.39756138 60 65 C60.78310547 66.62228516 60.78310547 66.62228516 61.58203125 68.27734375 C72.80009319 92.69660788 77.29281433 119.93268602 80.25 146.4375 C80.33317474 147.17955688 80.41634949 147.92161377 80.50204468 148.68615723 C82.40167244 165.90862131 83.1344672 183.06875174 83.19923019 200.39099121 C83.21129732 203.33787058 83.23080645 206.28462066 83.25234985 209.23144531 C83.31308371 217.59565838 83.367911 225.95984778 83.40136719 234.32421875 C83.42252159 239.48039989 83.4579649 244.63632526 83.50212479 249.7923584 C83.51609612 251.73121097 83.5249635 253.67010854 83.52817917 255.60900879 C83.55721874 271.42732378 84.89240055 286.76307104 89.6875 301.9375 C89.9438623 302.76193604 90.20022461 303.58637207 90.46435547 304.43579102 C100.11736666 334.59211954 117.52932402 360.33084256 137 385 C137.86786286 386.11275485 138.73503066 387.22605209 139.6015625 388.33984375 C144.47842996 394.59530283 149.4291749 400.78683411 154.4375 406.9375 C155.25915649 407.94695679 155.25915649 407.94695679 156.09741211 408.97680664 C156.64405518 409.64832764 157.19069824 410.31984863 157.75390625 411.01171875 C158.83598291 412.34110887 159.91801541 413.67053494 161 415 C161.49612793 415.60924316 161.99225586 416.21848633 162.50341797 416.84619141 C181.64542848 440.40116124 199.45714345 464.91591707 215 491 C215.50772949 491.85174805 216.01545898 492.70349609 216.53857422 493.58105469 C240.6930258 534.37903298 259.10964561 578.67181311 265 626 C265.0942627 626.71462402 265.18852539 627.42924805 265.28564453 628.16552734 C266.24563513 636.33489281 266.24355557 644.53585953 266.25 652.75 C266.25101212 653.91284515 266.25101212 653.91284515 266.25204468 655.09918213 C266.22073315 677.82549808 263.41192547 700.72565361 255 722 C255.87914062 722.25652344 256.75828125 722.51304687 257.6640625 722.77734375 C269.74682538 727.20580368 278.95518348 737.72425584 284.49487305 749.02441406 C289.73572963 760.5413952 292.32748156 773.18317377 295.29907227 785.42480469 C298.91200828 800.27400639 302.75043504 812.18959929 313.0625 823.875 C328.24185395 841.51649661 340.49825866 860.05636127 339.18652344 884.03076172 C338.35943478 892.76282604 333.00787102 899.91359472 327 906 C324.38854378 908.07870919 321.71401617 910.05763211 319 912 C319.47308594 912.32685791 319.94617188 912.65371582 320.43359375 912.99047852 C352.93418235 935.50885661 352.93418235 935.50885661 358.375 955.375 C360.41599415 966.9136897 357.08503679 976.28449098 351 986 C348.25262365 989.63100571 345.25994337 992.8268438 342 996 C340.94619141 997.08474609 340.94619141 997.08474609 339.87109375 998.19140625 C275.96310098 1060.32108965 146.33054392 1069.76823055 -22.60882568 1084.89285278 C-24.26271531 1084.96696268 -25.91639818 1085.04578182 -27.56988525 1085.12838745 C-49.76334432 1086.22969449 -71.96474171 1086.18747615 -94.1796875 1086.18530273 C-98.52413152 1086.18522216 -102.86846855 1086.19206915 -107.21289062 1086.20581055 C-146.55594893 1086.32809928 -185.83004767 1085.35231942 -225.0625 1082.25 C-226.66111374 1082.12644638 -226.66111374 1082.12644638 -228.29202271 1082.00039673 C-281.22320609 1077.87915075 -333.9787427 1071.33894694 -385.96130371 1060.42779541 C-387.96744213 1060.00683187 -389.97440349 1059.58997165 -391.98144531 1059.17333984 C-444.35031483 1048.19488472 -507.71326729 1033.56647594 -547 995 C-547.7940625 994.23042969 -548.588125 993.46085937 -549.40625 992.66796875 C-557.33073486 984.49254187 -562.29509614 974.89492327 -563.3125 963.5 C-563.11306156 952.92976257 -558.47034384 944.04847649 -552 936 C-551.35998047 935.11634766 -551.35998047 935.11634766 -550.70703125 934.21484375 C-545.67610031 927.66689363 -538.52942551 922.94626344 -532 918 C-531.19095039 920.80750823 -530.91377272 923.17598162 -531.04296875 926.08984375 C-531.43030599 938.47822242 -531.09037903 950.27230663 -522.68359375 960.23046875 C-516.45656067 966.77535503 -510.47665432 970.77187332 -502 974 C-500.65615234 974.52207031 -500.65615234 974.52207031 -499.28515625 975.0546875 C-482.40445744 980.90062078 -463.89473953 982.04589018 -446.24890137 984.12112427 C-429.67042443 986.07356066 -413.28898885 988.25119148 -397 992 C-396.24074219 992.16902832 -395.48148438 992.33805664 -394.69921875 992.51220703 C-381.39149598 995.57456462 -369.37817973 1001.73792703 -357.09423828 1007.55029297 C-321.37536402 1024.28523658 -278.45378583 1036.37377455 -239.69458008 1022.94897461 C-219.68676637 1015.58736426 -205.30825479 1003.87304532 -196.05859375 984.43359375 C-188.59798957 967.2824631 -186.69180198 946.51346149 -193.3671875 928.83203125 C-196.58560005 921.03699558 -200.27021437 913.28375451 -204.8046875 906.16796875 C-205.19914062 905.45253906 -205.59359375 904.73710938 -206 904 C-205.67 903.34 -205.34 902.68 -205 902 C-204.2471875 902.4846875 -203.494375 902.969375 -202.71875 903.46875 C-179.0842051 918.38375406 -153.74512204 928.29381083 -126 932 C-124.94063232 932.14356934 -124.94063232 932.14356934 -123.85986328 932.29003906 C-73.75170908 938.50759522 -19.16229045 920.88749913 22.18237305 893.19555664 C24 892 24 892 25.92114258 890.92749023 C30.72428151 888.04434869 32.12600389 885.16364741 33.5456543 879.80493164 C33.75746338 878.8999292 33.96927246 877.99492676 34.1875 877.0625 C34.67690129 875.16661966 35.16648485 873.27078637 35.65625 871.375 C35.99849609 869.99248047 35.99849609 869.99248047 36.34765625 868.58203125 C37.19960019 865.20996572 38.18812234 861.89375886 39.1875 858.5625 C42.9911237 844.99737354 44.5815116 832.28706636 45.27871704 818.25756836 C49.75720955 729.90309991 49.75720955 729.90309991 74 705 C74.66257812 704.29875 75.32515625 703.5975 76.0078125 702.875 C79.90411902 699.07933608 83.40109818 696.74835594 88.47241211 694.71826172 C91.70159342 693.39310814 94.17333916 692.11906947 97 690 C98.54288592 686.19276601 99.0494946 682.79925824 99.5234375 678.7265625 C100.57772068 670.48241374 104.83750749 664.29296173 110.8125 658.69140625 C119.98627925 651.59810908 130.83696513 651.08614013 142 652 C147.46820289 652.80626823 152.73591462 654.34679536 158 656 C158.68707031 656.21430664 159.37414062 656.42861328 160.08203125 656.64941406 C181.59048714 663.50298976 207.50264292 674.06152085 221 693 C221.4125 693.56847656 221.825 694.13695312 222.25 694.72265625 C226.07038663 700.97058022 225.55038075 707.89918608 225 715 C224.67 715.99 224.34 716.98 224 718 C226.64 718 229.28 718 232 718 C234.26424856 705.76183011 234.16543391 695.50437837 227 685 C213.01878475 666.70458118 189.96753395 654.68186953 169 646 C169.48365964 642.07407805 169.97801158 638.15456096 170.53515625 634.23828125 C174.99907572 601.00688079 169.90016161 567.55869296 156 537 C155.6292334 536.16855469 155.2584668 535.33710937 154.87646484 534.48046875 C145.35226969 513.26390798 133.64174134 494.06109805 119 476 C118.52320801 475.40751465 118.04641602 474.8150293 117.55517578 474.20458984 C112.48677581 467.94049454 107.16204315 461.98418203 101.5 456.25 C100.99525146 455.73590576 100.49050293 455.22181152 99.97045898 454.69213867 C97.65292391 452.39504666 96.14153017 451.04717672 93 450 C94.61344578 457.17087012 99.54636886 461.4499211 104.484375 466.58203125 C138.8510442 502.8855503 158.42045381 552.44202743 157.10498047 602.26660156 C156.00148616 630.99851384 156.00148616 630.99851384 149 638 C147.57939808 637.93321957 146.16214782 637.79354668 144.75 637.625 C140.55154296 637.14517634 136.35448442 636.77724501 132.140625 636.4609375 C130.4086084 636.33017822 130.4086084 636.33017822 128.64160156 636.19677734 C127.76987305 636.13184082 126.89814453 636.0669043 126 636 C125.8548999 635.30777344 125.7097998 634.61554687 125.56030273 633.90234375 C115.53759128 586.48675826 98.12043037 543.4669443 76.23876953 500.41088867 C47.98960075 444.80243882 25.3914834 387.01424212 6.78503418 327.50128174 C6.26281345 325.83737818 5.73556813 324.17504306 5.20324707 322.51434326 C4.4587033 320.18912171 3.73111096 317.85924736 3.0078125 315.52734375 C2.78729218 314.84958389 2.56677185 314.17182404 2.33956909 313.473526 C0.8304947 308.50436242 0.83909462 304.68867697 2.90234375 299.91015625 C3.24394531 299.30042969 3.58554687 298.69070313 3.9375 298.0625 C8.34781145 289.56262701 9.58459941 280.59568376 6.875 271.3125 C2.89235213 260.89061773 -5.4062374 254.09056791 -15 249 C-13.91728468 245.8502827 -12.53527016 243.24260225 -10.6875 240.5 C-0.13407164 223.81375339 2.88494746 201.05276328 -1.03027344 181.78735352 C-4.11588648 168.814628 -10.39232133 157.11983844 -19 147 C-19.66 146.01 -20.32 145.02 -21 144 C-19.88121617 142.82737096 -18.75476949 141.66204862 -17.625 140.5 C-16.68527344 139.52546875 -16.68527344 139.52546875 -15.7265625 138.53125 C-14 137 -14 137 -12 137 C-11.74476563 136.41992188 -11.48953125 135.83984375 -11.2265625 135.2421875 C-9.87775365 132.77653057 -8.33642336 131.13330997 -6.375 129.125 C-1.14084037 123.34937558 2.40474793 116.85103828 6 110 C6.74636719 108.62328125 6.74636719 108.62328125 7.5078125 107.21875 C15.15476657 92.01642215 16.1049116 73.89199078 11.32421875 57.73828125 C7.62111981 47.28440019 2.4461232 38.24710059 -5 30 C-5.56460938 29.36578125 -6.12921875 28.7315625 -6.7109375 28.078125 C-20.09333445 13.87896204 -39.42160765 5.71832187 -58 1 C-58.6904541 0.82210937 -59.3809082 0.64421875 -60.09228516 0.4609375 C-94.87573344 -8.01012214 -134.21848996 -0.96952708 -165.26123047 16.04882812 C-166.88199898 16.93544903 -168.52052405 17.78939444 -170.16015625 18.640625 C-178.74861094 23.30260568 -185.82089529 29.44930499 -193 36 C-193.70125 36.6290625 -194.4025 37.258125 -195.125 37.90625 C-206.40945055 48.56378663 -215.07366903 62.95828135 -219 78 C-219.20367187 78.763125 -219.40734375 79.52625 -219.6171875 80.3125 C-223.86341319 98.46075227 -219.57410572 117.28967203 -210 133 C-207.37446528 136.80621666 -204.65975462 140.42780124 -201.296875 143.61328125 C-200 145 -200 145 -200 147 C-199.34 147.33 -198.68 147.66 -198 148 C-198.43570312 148.44988281 -198.87140625 148.89976562 -199.3203125 149.36328125 C-211.62363382 162.6519335 -216.17716021 178.45476743 -216.1875 196.1875 C-216.19974609 197.27353516 -216.21199219 198.35957031 -216.22460938 199.47851562 C-216.25923485 218.69565223 -209.61141619 234.88583017 -198 250 C-198.68775513 250.50599731 -198.68775513 250.50599731 -199.3894043 251.0222168 C-201.49200999 252.5729714 -203.58976032 254.13017019 -205.6875 255.6875 C-206.40873047 256.21794922 -207.12996094 256.74839844 -207.87304688 257.29492188 C-213.2668235 261.30946795 -218.22870205 265.29427937 -221.75 271.125 C-222.15734375 271.78757812 -222.5646875 272.45015625 -222.984375 273.1328125 C-226.6286861 279.83273829 -225.79711873 289.00001655 -223.9375 296.1875 C-221.52968156 303.06698125 -217.42598548 308.82206059 -212.09765625 313.7578125 C-211.59685547 314.22582275 -211.09605469 314.69383301 -210.58007812 315.17602539 C-209.13103954 316.49988159 -207.64626968 317.78430839 -206.16015625 319.06640625 C-201.4825842 325.41876902 -204.36769638 334.60782566 -205.47045898 341.94506836 C-205.68697321 343.31780939 -205.90519686 344.69028174 -206.125 346.0625 C-206.238367 346.77262238 -206.35173401 347.48274475 -206.46853638 348.21438599 C-216.0850818 407.83196553 -242.58574557 463.96225392 -267.99804688 518.27099609 C-292.82115283 571.35365361 -309.56772631 623.22000222 -313 682 C-322.69365389 672.68942429 -328.03836483 658.63630278 -332 646 C-332.21027832 645.36562012 -332.42055664 644.73124023 -332.63720703 644.07763672 C-336.0769862 633.33888039 -336.36652778 622.55566952 -336.375 611.375 C-336.37799103 610.3392131 -336.37799103 610.3392131 -336.38104248 609.28250122 C-336.37628575 594.71805289 -334.89175084 580.64382777 -331 566.5625 C-330.69586182 565.4576123 -330.39172363 564.35272461 -330.07836914 563.21435547 C-324.04221172 542.06000543 -314.59322284 522.54695371 -304.56982422 503.05908203 C-302.17356015 498.3895348 -299.83643612 493.69111607 -297.50146484 488.99072266 C-296.16635548 486.30939654 -294.81138001 483.64361481 -293.41015625 480.99609375 C-292.94480469 480.11050781 -292.47945313 479.22492188 -292 478.3125 C-291.608125 477.58675781 -291.21625 476.86101562 -290.8125 476.11328125 C-289.85594759 473.62532523 -289.94327684 471.64499004 -290 469 C-306.3795163 495.94010942 -306.3795163 495.94010942 -320.96972656 523.87011719 C-322.10493243 526.21692667 -323.26709372 528.54945682 -324.4296875 530.8828125 C-334.5482151 551.39621405 -341.74317157 572.48981848 -346.6875 594.8125 C-346.90237061 595.77986084 -347.11724121 596.74722168 -347.33862305 597.74389648 C-353.96865348 628.56121107 -350.86136469 661.00174343 -334 688 C-321.99926402 705.7845414 -306.21147429 718.07532187 -288.12670898 729.16259766 C-271.55736976 739.37731556 -255.89355964 751.15353236 -241.71875 764.4921875 C-239.79802397 766.26389168 -237.88599165 767.93686166 -235.8671875 769.5859375 C-233.5310038 771.55291505 -231.58136896 773.42619119 -229.625 775.75 C-227.82761502 777.86989169 -226.0338695 779.96400923 -224.12890625 781.98828125 C-210.08602987 796.99183731 -199.44293469 815.20935002 -199.7890625 836.07421875 C-200.17156474 843.19301047 -202.42165843 848.22801399 -207.28125 853.46875 C-213.00955682 858.57215062 -220.64933314 860.45022544 -228 862 C-228.72574219 862.165 -229.45148438 862.33 -230.19921875 862.5 C-232.1875 862.75 -232.1875 862.75 -236 862 C-239.23985649 859.46537089 -241.53321052 856.26828842 -244 853 C-245.0012049 851.71375335 -246.00391665 850.42867875 -247.0078125 849.14453125 C-250.3854244 844.7979116 -253.69554149 840.40233109 -257 836 C-257.51062988 835.32533691 -258.02125977 834.65067383 -258.54736328 833.95556641 C-268.56153022 820.71399155 -276.01402136 807.08213481 -283.10546875 792.09375 C-295.69469391 765.5169677 -309.26004767 740.01284905 -329 718 C-329.59039062 717.32582031 -330.18078125 716.65164063 -330.7890625 715.95703125 C-341.70001025 704.21298158 -357.85389997 695.38603796 -373.98828125 694.6640625 C-387.90622397 694.42706766 -397.4613677 695.8522346 -408.80859375 704.4140625 C-410.813913 705.86532741 -412.75658213 706.96772116 -415 708 C-424.57967426 656.93691487 -407.97393403 601.74325174 -386.30273438 555.76708984 C-385.02782186 553.05909538 -383.78462613 550.33842656 -382.546875 547.61328125 C-376.9013253 535.3172626 -370.46060611 523.54719345 -363.66015625 511.85546875 C-362.04428576 509.0761715 -360.4435028 506.28859652 -358.84375 503.5 C-344.86464343 479.31206731 -328.95126924 456.19952698 -312 434 C-311.23429688 432.989375 -310.46859375 431.97875 -309.6796875 430.9375 C-305.06211256 424.86697314 -300.32405508 418.90770943 -295.5 413 C-293.84257922 410.96237286 -292.18634015 408.92379799 -290.53125 406.88427734 C-289.57542134 405.70808385 -288.61744818 404.53362596 -287.65625 403.36181641 C-262.51013512 372.58729379 -247.19981084 335.83697963 -240 297 C-239.82210938 296.08202637 -239.64421875 295.16405273 -239.4609375 294.21826172 C-234.05034871 265.32421464 -236.64999361 234.73210113 -238.75634766 205.59228516 C-242.55889995 149.5294049 -243.17928821 79.84856771 -204.19921875 34.6796875 C-201.54658471 31.70561933 -198.78377573 28.8512612 -196 26 C-195.33484375 25.27296875 -194.6696875 24.5459375 -193.984375 23.796875 C-188.38839182 17.82469127 -181.8294124 13.41950251 -175 9 C-173.61361328 8.08734375 -173.61361328 8.08734375 -172.19921875 7.15625 C-124.81882645 -22.33083998 -49.85953059 -24.33101547 0 0 Z " fill="#3F2300" transform="translate(602,64)"/>
<path d="M0 0 C0.99515625 0.48339844 1.9903125 0.96679688 3.015625 1.46484375 C29.66012442 15.20579274 47.62501108 38.39756138 60 65 C60.52207031 66.08152344 61.04414062 67.16304688 61.58203125 68.27734375 C72.80009319 92.69660788 77.29281433 119.93268602 80.25 146.4375 C80.33317474 147.17955688 80.41634949 147.92161377 80.50204468 148.68615723 C82.40167244 165.90862131 83.1344672 183.06875174 83.19923019 200.39099121 C83.21129732 203.33787058 83.23080645 206.28462066 83.25234985 209.23144531 C83.31308371 217.59565838 83.367911 225.95984778 83.40136719 234.32421875 C83.42252159 239.48039989 83.4579649 244.63632526 83.50212479 249.7923584 C83.51609612 251.73121097 83.5249635 253.67010854 83.52817917 255.60900879 C83.55721874 271.42732378 84.89240055 286.76307104 89.6875 301.9375 C89.9438623 302.76193604 90.20022461 303.58637207 90.46435547 304.43579102 C100.11736666 334.59211954 117.52932402 360.33084256 137 385 C137.86786286 386.11275485 138.73503066 387.22605209 139.6015625 388.33984375 C144.47842996 394.59530283 149.4291749 400.78683411 154.4375 406.9375 C155.25915649 407.94695679 155.25915649 407.94695679 156.09741211 408.97680664 C156.64405518 409.64832764 157.19069824 410.31984863 157.75390625 411.01171875 C158.83598291 412.34110887 159.91801541 413.67053494 161 415 C161.49612793 415.60924316 161.99225586 416.21848633 162.50341797 416.84619141 C181.64542848 440.40116124 199.45714345 464.91591707 215 491 C215.50772949 491.85174805 216.01545898 492.70349609 216.53857422 493.58105469 C240.6930258 534.37903298 259.10964561 578.67181311 265 626 C265.0942627 626.71462402 265.18852539 627.42924805 265.28564453 628.16552734 C266.24563513 636.33489281 266.24355557 644.53585953 266.25 652.75 C266.25101212 653.91284515 266.25101212 653.91284515 266.25204468 655.09918213 C266.22073315 677.82549808 263.41192547 700.72565361 255 722 C254.41734375 721.87882813 253.8346875 721.75765625 253.234375 721.6328125 C246.51427184 720.25920651 239.77092195 719.09358533 233 718 C233.0314209 717.42668945 233.0628418 716.85337891 233.09521484 716.26269531 C233.80776566 701.27206921 232.7632854 691.54184408 222.75 679.75 C208.27859469 664.67762271 188.19116684 653.94634252 169 646 C169.48365964 642.07407805 169.97801158 638.15456096 170.53515625 634.23828125 C174.99907572 601.00688079 169.90016161 567.55869296 156 537 C155.6292334 536.16855469 155.2584668 535.33710937 154.87646484 534.48046875 C145.35226969 513.26390798 133.64174134 494.06109805 119 476 C118.52320801 475.40751465 118.04641602 474.8150293 117.55517578 474.20458984 C112.48677581 467.94049454 107.16204315 461.98418203 101.5 456.25 C100.99525146 455.73590576 100.49050293 455.22181152 99.97045898 454.69213867 C97.65292391 452.39504666 96.14153017 451.04717672 93 450 C94.61344578 457.17087012 99.54636886 461.4499211 104.484375 466.58203125 C138.8510442 502.8855503 158.42045381 552.44202743 157.10498047 602.26660156 C156.00148616 630.99851384 156.00148616 630.99851384 149 638 C147.57939808 637.93321957 146.16214782 637.79354668 144.75 637.625 C140.55154296 637.14517634 136.35448442 636.77724501 132.140625 636.4609375 C130.4086084 636.33017822 130.4086084 636.33017822 128.64160156 636.19677734 C127.76987305 636.13184082 126.89814453 636.0669043 126 636 C125.8548999 635.30777344 125.7097998 634.61554687 125.56030273 633.90234375 C115.53759128 586.48675826 98.12043037 543.4669443 76.23876953 500.41088867 C47.98960075 444.80243882 25.3914834 387.01424212 6.78503418 327.50128174 C6.26281345 325.83737818 5.73556813 324.17504306 5.20324707 322.51434326 C4.4587033 320.18912171 3.73111096 317.85924736 3.0078125 315.52734375 C2.78729218 314.84958389 2.56677185 314.17182404 2.33956909 313.473526 C0.8304947 308.50436242 0.83909462 304.68867697 2.90234375 299.91015625 C3.24394531 299.30042969 3.58554687 298.69070313 3.9375 298.0625 C8.34781145 289.56262701 9.58459941 280.59568376 6.875 271.3125 C2.89235213 260.89061773 -5.4062374 254.09056791 -15 249 C-13.91728468 245.8502827 -12.53527016 243.24260225 -10.6875 240.5 C-0.13407164 223.81375339 2.88494746 201.05276328 -1.03027344 181.78735352 C-4.11588648 168.814628 -10.39232133 157.11983844 -19 147 C-19.66 146.01 -20.32 145.02 -21 144 C-19.88121617 142.82737096 -18.75476949 141.66204862 -17.625 140.5 C-16.99851562 139.8503125 -16.37203125 139.200625 -15.7265625 138.53125 C-14 137 -14 137 -12 137 C-11.74476563 136.41992188 -11.48953125 135.83984375 -11.2265625 135.2421875 C-9.87775365 132.77653057 -8.33642336 131.13330997 -6.375 129.125 C-1.14084037 123.34937558 2.40474793 116.85103828 6 110 C6.49757813 109.0821875 6.99515625 108.164375 7.5078125 107.21875 C15.15476657 92.01642215 16.1049116 73.89199078 11.32421875 57.73828125 C7.62111981 47.28440019 2.4461232 38.24710059 -5 30 C-5.56460937 29.36578125 -6.12921875 28.7315625 -6.7109375 28.078125 C-20.09333445 13.87896204 -39.42160765 5.71832187 -58 1 C-58.6904541 0.82210937 -59.3809082 0.64421875 -60.09228516 0.4609375 C-94.87573344 -8.01012214 -134.21848996 -0.96952708 -165.26123047 16.04882812 C-166.88199898 16.93544903 -168.52052405 17.78939444 -170.16015625 18.640625 C-178.74861094 23.30260568 -185.82089529 29.44930499 -193 36 C-193.70125 36.6290625 -194.4025 37.258125 -195.125 37.90625 C-206.40945055 48.56378663 -215.07366903 62.95828135 -219 78 C-219.20367187 78.763125 -219.40734375 79.52625 -219.6171875 80.3125 C-223.86341319 98.46075227 -219.57410572 117.28967203 -210 133 C-207.37446528 136.80621666 -204.65975462 140.42780124 -201.296875 143.61328125 C-200 145 -200 145 -200 147 C-199.34 147.33 -198.68 147.66 -198 148 C-198.65355469 148.67482422 -198.65355469 148.67482422 -199.3203125 149.36328125 C-211.62363382 162.6519335 -216.17716021 178.45476743 -216.1875 196.1875 C-216.19974609 197.27353516 -216.21199219 198.35957031 -216.22460938 199.47851562 C-216.25923485 218.69565223 -209.61141619 234.88583017 -198 250 C-198.68775513 250.50599731 -198.68775513 250.50599731 -199.3894043 251.0222168 C-201.49200999 252.5729714 -203.58976032 254.13017019 -205.6875 255.6875 C-206.40873047 256.21794922 -207.12996094 256.74839844 -207.87304688 257.29492188 C-213.2668235 261.30946795 -218.22870205 265.29427937 -221.75 271.125 C-222.15734375 271.78757812 -222.5646875 272.45015625 -222.984375 273.1328125 C-226.6286861 279.83273829 -225.79711873 289.00001655 -223.9375 296.1875 C-221.52968156 303.06698125 -217.42598548 308.82206059 -212.09765625 313.7578125 C-211.59685547 314.22582275 -211.09605469 314.69383301 -210.58007812 315.17602539 C-209.13103954 316.49988159 -207.64626968 317.78430839 -206.16015625 319.06640625 C-201.4825842 325.41876902 -204.36769638 334.60782566 -205.47045898 341.94506836 C-205.68697321 343.31780939 -205.90519686 344.69028174 -206.125 346.0625 C-206.238367 346.77262238 -206.35173401 347.48274475 -206.46853638 348.21438599 C-216.0850818 407.83196553 -242.58574557 463.96225392 -267.99804688 518.27099609 C-292.82115283 571.35365361 -309.56772631 623.22000222 -313 682 C-322.69365389 672.68942429 -328.03836483 658.63630278 -332 646 C-332.21027832 645.36562012 -332.42055664 644.73124023 -332.63720703 644.07763672 C-336.0769862 633.33888039 -336.36652778 622.55566952 -336.375 611.375 C-336.37699402 610.6844754 -336.37898804 609.99395081 -336.38104248 609.28250122 C-336.37628575 594.71805289 -334.89175084 580.64382777 -331 566.5625 C-330.69586182 565.4576123 -330.39172363 564.35272461 -330.07836914 563.21435547 C-324.04221172 542.06000543 -314.59322284 522.54695371 -304.56982422 503.05908203 C-302.17356015 498.3895348 -299.83643612 493.69111607 -297.50146484 488.99072266 C-296.16635548 486.30939654 -294.81138001 483.64361481 -293.41015625 480.99609375 C-292.94480469 480.11050781 -292.47945313 479.22492188 -292 478.3125 C-291.608125 477.58675781 -291.21625 476.86101562 -290.8125 476.11328125 C-289.85594759 473.62532523 -289.94327684 471.64499004 -290 469 C-306.3795163 495.94010942 -306.3795163 495.94010942 -320.96972656 523.87011719 C-322.10493243 526.21692667 -323.26709372 528.54945682 -324.4296875 530.8828125 C-334.5482151 551.39621405 -341.74317157 572.48981848 -346.6875 594.8125 C-346.90237061 595.77986084 -347.11724121 596.74722168 -347.33862305 597.74389648 C-353.96865348 628.56121107 -350.86136469 661.00174343 -334 688 C-321.99926402 705.7845414 -306.21147429 718.07532187 -288.12670898 729.16259766 C-271.55736976 739.37731556 -255.89355964 751.15353236 -241.71875 764.4921875 C-239.79802397 766.26389168 -237.88599165 767.93686166 -235.8671875 769.5859375 C-233.5310038 771.55291505 -231.58136896 773.42619119 -229.625 775.75 C-227.82761502 777.86989169 -226.0338695 779.96400923 -224.12890625 781.98828125 C-210.08602987 796.99183731 -199.44293469 815.20935002 -199.7890625 836.07421875 C-200.17156474 843.19301047 -202.42165843 848.22801399 -207.28125 853.46875 C-213.00955682 858.57215062 -220.64933314 860.45022544 -228 862 C-228.72574219 862.165 -229.45148438 862.33 -230.19921875 862.5 C-232.1875 862.75 -232.1875 862.75 -236 862 C-239.23985649 859.46537089 -241.53321052 856.26828842 -244 853 C-245.0012049 851.71375335 -246.00391665 850.42867875 -247.0078125 849.14453125 C-250.3854244 844.7979116 -253.69554149 840.40233109 -257 836 C-257.51062988 835.32533691 -258.02125977 834.65067383 -258.54736328 833.95556641 C-268.56153022 820.71399155 -276.01402136 807.08213481 -283.10546875 792.09375 C-295.69469391 765.5169677 -309.26004767 740.01284905 -329 718 C-329.59039062 717.32582031 -330.18078125 716.65164063 -330.7890625 715.95703125 C-341.70001025 704.21298158 -357.85389997 695.38603796 -373.98828125 694.6640625 C-387.90622397 694.42706766 -397.4613677 695.8522346 -408.80859375 704.4140625 C-410.813913 705.86532741 -412.75658213 706.96772116 -415 708 C-424.57967426 656.93691487 -407.97393403 601.74325174 -386.30273438 555.76708984 C-385.02782186 553.05909538 -383.78462613 550.33842656 -382.546875 547.61328125 C-376.9013253 535.3172626 -370.46060611 523.54719345 -363.66015625 511.85546875 C-362.04428576 509.0761715 -360.4435028 506.28859652 -358.84375 503.5 C-344.86464343 479.31206731 -328.95126924 456.19952698 -312 434 C-311.23429687 432.989375 -310.46859375 431.97875 -309.6796875 430.9375 C-305.06211256 424.86697314 -300.32405508 418.90770943 -295.5 413 C-293.84257922 410.96237286 -292.18634015 408.92379799 -290.53125 406.88427734 C-289.57542134 405.70808385 -288.61744818 404.53362596 -287.65625 403.36181641 C-262.51013512 372.58729379 -247.19981084 335.83697963 -240 297 C-239.73316406 295.62303955 -239.73316406 295.62303955 -239.4609375 294.21826172 C-234.05034871 265.32421464 -236.64999361 234.73210113 -238.75634766 205.59228516 C-242.55889995 149.5294049 -243.17928821 79.84856771 -204.19921875 34.6796875 C-201.54658471 31.70561933 -198.78377573 28.8512612 -196 26 C-195.33484375 25.27296875 -194.6696875 24.5459375 -193.984375 23.796875 C-188.38839182 17.82469127 -181.8294124 13.41950251 -175 9 C-173.61361328 8.08734375 -173.61361328 8.08734375 -172.19921875 7.15625 C-124.81882645 -22.33083998 -49.85953059 -24.33101547 0 0 Z " fill="#0B0B0B" transform="translate(602,64)"/>
<path d="M0 0 C35.38603098 20.68082281 53.24689615 62.81234149 70.6484375 97.9140625 C70.96265656 98.54670517 71.27687561 99.17934784 71.60061646 99.8311615 C73.05632858 102.76463476 74.50088468 105.7020924 75.92651367 108.65039062 C78.84503866 114.63701207 81.95608171 120.17758376 85.875 125.5625 C86.38748291 126.27792969 86.89996582 126.99335937 87.42797852 127.73046875 C91.54813391 133.41464737 95.91369615 138.87780728 100.3828125 144.28979492 C104.90052295 149.7628129 109.21936434 155.36799996 113.50317383 161.02514648 C116.58263507 165.08137361 119.71841044 169.07816801 122.93359375 173.02758789 C130.73981163 182.6168169 138.06931751 192.62417157 144.3125 203.3125 C144.63968018 203.86502441 144.96686035 204.41754883 145.30395508 204.98681641 C153.84839724 219.48358801 160.71757899 233.64943071 160.6875 250.8125 C160.68588867 251.77575195 160.68427734 252.73900391 160.68261719 253.73144531 C160.53567265 262.40693543 159.02385279 270.10312628 156.3125 278.3125 C156.02375 279.2303125 155.735 280.148125 155.4375 281.09375 C149.04733469 299.12314498 134.80354561 311.921923 117.9375 320 C82.04534612 335.49888463 42.58846039 328.13390836 7.265625 314.7578125 C0.5288167 312.08350375 -5.9402052 308.89152126 -12.4375 305.6875 C-41.57520302 291.35981758 -71.98070362 287.34045307 -103.98924255 283.5670166 C-161.03666454 276.83612488 -161.03666454 276.83612488 -175.6875 258.3125 C-180.96658591 249.75674008 -183.07223604 241.2686901 -183 231.3125 C-182.99436035 230.48363281 -182.9887207 229.65476562 -182.98291016 228.80078125 C-182.70934151 214.65105235 -178.82464912 201.67023718 -174.30419922 188.37036133 C-170.20006294 174.67528424 -173.50315418 159.78931258 -175.55126953 145.98583984 C-178.73228024 124.33332748 -180.06182982 104.03520827 -166.61328125 85.4453125 C-155.26559834 72.03997075 -138.72118068 66.50715001 -122.6484375 60.79492188 C-106.87306002 55.03711291 -97.36946993 47.53748154 -87.6875 33.9375 C-86.46880295 32.2568291 -85.24876217 30.5771317 -84.02734375 28.8984375 C-83.45097168 28.10405273 -82.87459961 27.30966797 -82.28076172 26.49121094 C-72.81630581 13.54900981 -61.90671437 1.47338438 -46.6875 -4.6875 C-45.39779297 -5.22117187 -45.39779297 -5.22117187 -44.08203125 -5.765625 C-29.52593007 -9.71872037 -13.19819172 -6.66406586 0 0 Z " fill="#FEC84A" transform="translate(252.6875,764.6875)"/>
<path d="M0 0 C1.66300585 1.45983319 3.31045329 2.93769322 4.9375 4.4375 C5.99130859 5.35402344 5.99130859 5.35402344 7.06640625 6.2890625 C16.75745333 15.20255003 23.01402603 27.00767069 26.9375 39.4375 C27.18242188 40.20320313 27.42734375 40.96890625 27.6796875 41.7578125 C32.69738617 60.3851596 26.80263821 80.07455424 17.53515625 96.234375 C14.44412311 101.36519357 10.93437713 105.98048577 6.9375 110.4375 C6.10150481 111.49790688 5.26784947 112.56016646 4.4375 113.625 C1.21956224 117.24517998 -2.3562865 120.32906287 -6.0625 123.4375 C-5.69898438 123.91058594 -5.33546875 124.38367188 -4.9609375 124.87109375 C10.37090361 145.03836168 17.75320851 165.31666462 14.4296875 190.7421875 C12.23896841 204.87467045 6.79685774 216.64846339 -1.0625 228.4375 C-0.36125 228.685 0.34 228.9325 1.0625 229.1875 C10.6987952 233.37719357 17.82563712 240.82049839 21.9375 250.4375 C24.62083105 261.18791548 22.94640348 271.64274833 17.32421875 281.171875 C15.61446312 283.67395641 13.81544541 286.05987954 11.9375 288.4375 C11.51082031 289.03949219 11.08414063 289.64148438 10.64453125 290.26171875 C1.4664709 302.37675841 -14.59915677 309.76873547 -28.48950195 314.80151367 C-37.06019537 317.92376757 -44.3844808 321.88186465 -52.01293945 326.87573242 C-73.57492668 340.99092821 -96.49287373 349.99554073 -122.6875 345.1875 C-138.90864458 341.58097141 -150.29672248 333.22939288 -162.0925293 321.90917969 C-167.66266999 316.67006353 -173.90589449 312.66554983 -180.32714844 308.55615234 C-194.31897943 299.53665746 -205.07422888 289.6814382 -211.4375 274.0625 C-213.42385623 262.54163389 -211.97105083 254.69204939 -205.46875 245.08203125 C-202.02455369 241.29677005 -197.99032196 238.5527393 -193.8125 235.625 C-192.97203125 235.02751953 -192.1315625 234.43003906 -191.265625 233.81445312 C-189.20233467 232.34904806 -187.13463844 230.89035306 -185.0625 229.4375 C-185.44704346 228.9513623 -185.83158691 228.46522461 -186.2277832 227.96435547 C-189.78168973 223.36738868 -192.71240736 218.78439286 -195.25 213.5625 C-195.59168213 212.86777588 -195.93336426 212.17305176 -196.28540039 211.45727539 C-204.89935451 193.55779893 -206.35399312 170.47666042 -200.2578125 151.52734375 C-196.70291805 142.33805778 -192.07675723 134.45175723 -185.0625 127.4375 C-185.70316406 126.71046875 -186.34382813 125.9834375 -187.00390625 125.234375 C-200.60948803 109.53440937 -208.75559611 92.08458845 -208.37890625 70.96484375 C-207.41467351 60.21543432 -204.08199828 49.96603911 -199.0625 40.4375 C-198.37800781 39.0453125 -198.37800781 39.0453125 -197.6796875 37.625 C-183.11857186 10.11254029 -153.28520256 -7.89038156 -124.4921875 -17.0625 C-120.05387356 -18.39996847 -115.57750006 -19.51730483 -111.0625 -20.5625 C-110.05461426 -20.80806641 -110.05461426 -20.80806641 -109.02636719 -21.05859375 C-73.1990419 -29.51321366 -29.24268273 -23.39414618 0 0 Z " fill="#616161" transform="translate(588.0625,84.5625)"/>
<path d="M0 0 C0.21914063 1.11375 0.43828125 2.2275 0.6640625 3.375 C4.41123132 21.7023562 9.70705301 40.81883527 25 53 C36.77259095 60.58346927 49.64081584 62.10576152 63.41796875 59.55175781 C84.74129938 54.22092515 103.64294938 41.35705062 119 26 C134.3381452 24.07565706 149.90463032 24.99313554 162.9375 33.6875 C167.83226313 37.53795227 171.09689914 41.51636504 174 47 C174.43828125 47.80953125 174.8765625 48.6190625 175.328125 49.453125 C179.21854416 57.28083585 181.0535555 65.54297152 183 74 C187.81934755 94.72319445 193.15345906 112.36121874 207.39379883 128.61767578 C217.61389758 140.35074838 229.05908389 155.22781807 229.25 171.3125 C229.27578125 172.60800781 229.3015625 173.90351562 229.328125 175.23828125 C228.62575722 183.29042614 223.62999861 188.6287444 218 194 C204.53406128 204.5196711 188.67247245 211.35093324 173.38977051 218.7791748 C144.00137387 233.071998 117.08734412 248.71787259 95.625 273.875 C78.68517548 293.6103128 58.52688284 308.84905121 34.0625 318 C33.31838867 318.27875977 32.57427734 318.55751953 31.80761719 318.84472656 C12.69944177 325.59127193 -9.85189782 325.76755491 -28.375 317.4921875 C-35.97963318 313.70747423 -42.05634292 309.03556931 -48 303 C-49.06347656 301.93458984 -49.06347656 301.93458984 -50.1484375 300.84765625 C-64.69847905 285.43353177 -67.73732809 269.67725852 -67.25390625 249.24609375 C-66.57037312 230.00134729 -61.55180307 211.672779 -55.875 193.36572266 C-53.46319327 185.57522461 -51.13806528 177.76246254 -48.89880371 169.92080688 C-48.33793838 167.96376288 -47.76734212 166.00951551 -47.19628906 164.05541992 C-41.9211341 145.48178479 -39.40281424 127.13433184 -38.21832275 107.87789917 C-33.21874684 27.66175133 -33.21874684 27.66175133 -8.9375 5.08203125 C-3.1432601 0 -3.1432601 0 0 0 Z " fill="#FECB33" transform="translate(699,769)"/>
<path d="M0 0 C1.41811312 2.83622625 0.56825619 4.2903884 -0.2578125 7.328125 C-0.55155762 8.42801758 -0.84530273 9.52791016 -1.14794922 10.66113281 C-1.47037598 11.84545898 -1.79280273 13.02978516 -2.125 14.25 C-4.5109663 23.22161639 -6.82314909 32.19560229 -8.875 41.25 C-9.07754395 42.13461914 -9.28008789 43.01923828 -9.48876953 43.93066406 C-14.56722568 66.56681976 -14.46681059 91.7447555 -2 112 C10.53789797 131.38116357 26.66508333 144.58579741 49.3671875 150.45703125 C79.13086868 156.5952385 108.61394618 147.46236604 134 132 C142.52520826 126.36425164 150.42462729 119.91061054 157.8984375 112.94921875 C159.77927667 111.20472294 161.70618031 109.56532432 163.6875 107.9375 C167.54943012 104.65170864 170.71709879 100.84938936 174 97 C176.96446227 93.63348589 179.96917535 90.30683671 183 87 C183.60199219 86.33097656 184.20398438 85.66195313 184.82421875 84.97265625 C195.55869926 73.58618994 209.32138002 65.7250268 222.87353516 58.19091797 C224.76739976 57.13026681 226.64231269 56.04438327 228.51171875 54.94140625 C229.47722656 54.38324219 230.44273437 53.82507813 231.4375 53.25 C232.24058594 52.78078125 233.04367187 52.3115625 233.87109375 51.828125 C236 51 236 51 238.09375 51.10546875 C242.95358373 53.38600548 245.77336302 60.07136633 247.875 64.8125 C250.51367424 72.7601236 249.7747529 81.09910567 246.3125 88.63671875 C227.83086643 121.91466014 179.89053364 135.43650322 146.125 145.1875 C87.567184 161.60653235 26.64738993 170.09248099 -33.98046875 173.83984375 C-35.06781815 173.90711166 -36.15516754 173.97437958 -37.27546692 174.04368591 C-42.61152227 174.36938378 -47.94793774 174.67770201 -53.28637695 174.96166992 C-54.26266556 175.01702408 -55.23895416 175.07237823 -56.24482727 175.12940979 C-58.08527979 175.23369203 -59.92619037 175.33025557 -61.76750183 175.41807556 C-63.85050895 175.53936563 -65.92741256 175.75914476 -68 176 C-68.33 176.66 -68.66 177.32 -69 178 C-65.7 178 -62.4 178 -59 178 C-59 178.33 -59 178.66 -59 179 C-74.65458878 179.76343217 -90.2652938 180.15110243 -105.9375 180.1328125 C-108.04288748 180.13348975 -110.14827489 180.13446324 -112.25366211 180.13571167 C-116.62321736 180.13716889 -120.99275189 180.13509883 -125.36230469 180.13037109 C-130.88805289 180.12467508 -136.41375247 180.12796485 -141.9394989 180.13394356 C-146.27421416 180.13760326 -150.60891839 180.13638613 -154.94363403 180.13381577 C-156.97803758 180.13316135 -159.01244222 180.13392111 -161.04684448 180.13629532 C-175.72094725 180.1496737 -190.34338742 179.71476356 -205 179 C-205 178.67 -205 178.34 -205 178 C-201.7 178 -198.4 178 -195 178 C-195.33 177.34 -195.66 176.68 -196 176 C-198.90766756 175.66298904 -201.73670267 175.45683529 -204.65625 175.32421875 C-206.53964866 175.22067722 -208.42303002 175.11682072 -210.30639648 175.01269531 C-211.31290253 174.96036743 -212.31940857 174.90803955 -213.35641479 174.85412598 C-296.68034384 170.43753468 -391.29057268 162.27050087 -467 124 C-467.68771484 123.6601709 -468.37542969 123.3203418 -469.08398438 122.97021484 C-483.0004068 116.06156354 -499.14859639 106.9183973 -507 93 C-496.05824547 93.71016494 -485.19468667 94.92880497 -474.3125 96.25 C-473.41047852 96.35948975 -472.50845703 96.46897949 -471.57910156 96.58178711 C-456.57764394 98.42046134 -441.74171889 100.60728595 -427 104 C-426.24074219 104.16902832 -425.48148437 104.33805664 -424.69921875 104.51220703 C-411.39149598 107.57456462 -399.37817973 113.73792703 -387.09423828 119.55029297 C-351.37536402 136.28523658 -308.45378583 148.37377455 -269.69458008 134.94897461 C-249.68676637 127.58736426 -235.30825479 115.87304532 -226.05859375 96.43359375 C-218.59798957 79.2824631 -216.69180198 58.51346149 -223.3671875 40.83203125 C-226.58560005 33.03699558 -230.27021437 25.28375451 -234.8046875 18.16796875 C-235.19914062 17.45253906 -235.59359375 16.73710938 -236 16 C-235.67 15.34 -235.34 14.68 -235 14 C-234.2471875 14.4846875 -233.494375 14.969375 -232.71875 15.46875 C-209.0842051 30.38375406 -183.74512204 40.29381083 -156 44 C-155.29375488 44.09571289 -154.58750977 44.19142578 -153.85986328 44.29003906 C-99.44148262 51.04241985 -44.41801047 29.81860238 0 0 Z " fill="#3F2600" transform="translate(632,952)"/>
<path d="M0 0 C1.03060547 0.32145996 1.03060547 0.32145996 2.08203125 0.64941406 C23.59048714 7.50298976 49.50264292 18.06152085 63 37 C63.4125 37.56847656 63.825 38.13695312 64.25 38.72265625 C68.07038663 44.97058022 67.55038075 51.89918608 67 59 C66.67 59.99 66.34 60.98 66 62 C68.64 62 71.28 62 74 62 C74.33 61.34 74.66 60.68 75 60 C75 60.66 75 61.32 75 62 C75.70382812 62.02578125 76.40765625 62.0515625 77.1328125 62.078125 C92.99418101 62.98922189 107.07786782 67.78222005 118.09765625 79.61328125 C128.34256061 92.46674442 131.90689933 107.4240436 135.75 123.0859375 C136.20234009 124.92647705 136.20234009 124.92647705 136.66381836 126.80419922 C137.24673544 129.20142792 137.81855069 131.60139396 138.37719727 134.00439453 C141.52122342 147.14048463 146.08954372 157.70704721 155.0625 167.875 C170.24185395 185.51649661 182.49825866 204.05636127 181.18652344 228.03076172 C180.24894874 237.92929247 173.59133318 245.9552541 166.375 252.3125 C161.13747793 256.41143032 155.64629275 259.91388181 149.8515625 263.16796875 C149.16611359 263.55297546 148.48066467 263.93798218 147.77444458 264.33465576 C139.8547122 268.71933243 131.69387801 272.59140411 123.52474976 276.48422241 C91.20357769 291.92395031 63.59845857 308.78728325 40.0625 336.26171875 C39.4025 337.02097656 38.7425 337.78023437 38.0625 338.5625 C37.47597656 339.24441406 36.88945313 339.92632813 36.28515625 340.62890625 C23.94882883 353.42916393 8.86578523 364.08283165 -7 372 C-7.64259766 372.32194336 -8.28519531 372.64388672 -8.94726562 372.97558594 C-33.07492154 384.82117379 -60.4010892 389.24970934 -86.32421875 380.93359375 C-104.58350721 374.38618025 -118.49056128 363.2221382 -129 347 C-129.81210937 345.83791016 -129.81210937 345.83791016 -130.640625 344.65234375 C-142.90063317 326.10753342 -143.4280148 301.34346279 -139.41308594 280.17675781 C-138.54571783 276.02131088 -137.62539128 271.88176319 -136.64941406 267.75048828 C-136.07961805 265.33720937 -135.54262883 262.92064008 -135.0234375 260.49609375 C-132.52745364 249.06789866 -129.12640731 237.88963753 -125.79443359 226.68310547 C-124.46147626 222.18119977 -123.17816081 217.66575141 -121.8984375 213.1484375 C-121.26884711 210.94213378 -120.62718407 208.73925607 -119.9765625 206.5390625 C-119.63367188 205.37117187 -119.29078125 204.20328125 -118.9375 203 C-118.48697266 201.4840625 -118.48697266 201.4840625 -118.02734375 199.9375 C-117.6785656 198.62666796 -117.33718204 197.31386266 -117 196 C-116.75644775 195.09233887 -116.51289551 194.18467773 -116.26196289 193.24951172 C-113.76149768 182.98136557 -113.24419088 172.77976911 -112.72128296 162.25756836 C-108.24279045 73.90309991 -108.24279045 73.90309991 -84 49 C-83.33742188 48.29875 -82.67484375 47.5975 -81.9921875 46.875 C-78.09588098 43.07933608 -74.59890182 40.74835594 -69.52758789 38.71826172 C-66.29840658 37.39310814 -63.82666084 36.11906947 -61 34 C-59.45711408 30.19276601 -58.9505054 26.79925824 -58.4765625 22.7265625 C-57.42227932 14.48241374 -53.16249251 8.29296173 -47.1875 2.69140625 C-33.46628252 -7.91803512 -15.34245407 -4.81835197 0 0 Z M-74 57.5625 C-97.66287959 81.82848147 -97.21084299 124.70740226 -99.07861328 156.2512207 C-100.37336608 177.75544249 -103.65212231 198.47300519 -109.875 219.125 C-110.21450684 220.28692871 -110.55401367 221.44885742 -110.90380859 222.64599609 C-112.50639642 228.10255038 -114.16060575 233.54141869 -115.859375 238.96875 C-119.05297989 249.18112274 -121.94500533 259.38789671 -124.375 269.8125 C-124.75132568 271.41375732 -124.75132568 271.41375732 -125.13525391 273.04736328 C-129.97075006 294.42126718 -131.53744538 318.28470021 -120.3125 337.6875 C-116.41125277 343.68386149 -112.04425505 348.93835097 -107 354 C-106.31421875 354.70898438 -105.6284375 355.41796875 -104.921875 356.1484375 C-92.55593773 368.10217687 -76.48950213 372.60298721 -59.625 372.375 C-58.52937744 372.36484863 -57.43375488 372.35469727 -56.30493164 372.34423828 C-48.1606642 372.18846536 -40.80229553 371.48126206 -33 369 C-31.75863281 368.60941406 -30.51726562 368.21882813 -29.23828125 367.81640625 C-0.4565091 358.13956151 22.85158168 337.67601147 42.3203125 314.9140625 C62.1187879 292.35300913 89.00636935 279.11195628 115.5625 266.1875 C119.15296028 264.43773178 122.74083033 262.68303119 126.32420349 260.91877747 C128.5274557 259.83420245 130.73442098 258.75712021 132.94593811 257.6894989 C145.49694146 251.51590316 159.95684664 243.61898311 167 231 C169.99658475 222.01024576 168.5399116 212.18679303 164.53515625 203.8203125 C158.27946883 192.32767556 150.40777053 181.55327815 141.3125 172.125 C129.33470668 158.51387122 125.58730182 138.83659462 122 121.625 C118.6506624 105.63415937 112.62458292 90.82237373 99 81 C86.81931697 73.83334813 71.80421111 72.87222672 58 75 C54.6249312 76.78408487 53.21561172 78.32577103 50.98046875 81.37109375 C40.70276795 95.01388001 16.63089808 106.37524945 0 109 C-15.71925686 110.5214171 -27.31463051 108.43940011 -39.83984375 98.546875 C-53.56267047 86.22433672 -57.97129198 66.3596679 -61 49 C-66.08361693 49 -70.55785585 54.30179417 -74 57.5625 Z " fill="#E58C3E" transform="translate(760,720)"/>
<path d="M0 0 C9.80177995 5.60209423 19.95828949 9.54862927 30.58984375 13.2578125 C62.24413095 24.34648337 62.24413095 24.34648337 69.9140625 39.2109375 C72.66608791 47.46701372 70.41670958 55.13345161 66.6953125 62.68359375 C56.71124243 80.62718635 38.54866053 89.20714073 20.16625977 96.26611328 C12.55225927 99.27263244 5.93645073 103.1088706 -0.8984375 107.5859375 C-21.0637751 120.43196992 -41.76321638 130.24331656 -66.26806641 125.07788086 C-80.83284373 121.61294269 -90.74241855 113.52823921 -101.65527344 103.81396484 C-108.01516967 98.17432184 -114.42854461 93.21567067 -121.6484375 88.7109375 C-134.25800831 80.79140029 -145.05606717 71.74167401 -150.0859375 57.2109375 C-151.0560069 50.471508 -150.35884264 45.01825441 -146.67578125 39.25390625 C-141.32029319 32.3720383 -133.74736092 27.7386194 -126.69140625 22.76171875 C-116.69934094 15.90067519 -116.69934094 15.90067519 -107.7109375 7.8359375 C-75.83821549 -25.34873675 -36.95554817 -21.56803096 0 0 Z " fill="#FECE37" transform="translate(533.0859375,297.7890625)"/>
<path d="M0 0 C35.38603098 20.68082281 53.24689615 62.81234149 70.6484375 97.9140625 C70.96265656 98.54670517 71.27687561 99.17934784 71.60061646 99.8311615 C73.05632858 102.76463476 74.50088468 105.7020924 75.92651367 108.65039062 C78.84503866 114.63701207 81.95608171 120.17758376 85.875 125.5625 C86.38748291 126.27792969 86.89996582 126.99335937 87.42797852 127.73046875 C91.54813391 133.41464737 95.91369615 138.87780728 100.3828125 144.28979492 C104.90052295 149.7628129 109.21936434 155.36799996 113.50317383 161.02514648 C116.58263507 165.08137361 119.71841044 169.07816801 122.93359375 173.02758789 C130.73981163 182.6168169 138.06931751 192.62417157 144.3125 203.3125 C144.63968018 203.86502441 144.96686035 204.41754883 145.30395508 204.98681641 C153.84839724 219.48358801 160.71757899 233.64943071 160.6875 250.8125 C160.68588867 251.77575195 160.68427734 252.73900391 160.68261719 253.73144531 C160.53567265 262.40693543 159.02385279 270.10312628 156.3125 278.3125 C156.02375 279.2303125 155.735 280.148125 155.4375 281.09375 C149.04733469 299.12314498 134.80354561 311.921923 117.9375 320 C82.04534612 335.49888463 42.58846039 328.13390836 7.265625 314.7578125 C0.5288167 312.08350375 -5.9402052 308.89152126 -12.4375 305.6875 C-41.57520302 291.35981758 -71.98070362 287.34045307 -103.98924255 283.5670166 C-161.03666454 276.83612488 -161.03666454 276.83612488 -175.6875 258.3125 C-180.96658591 249.75674008 -183.07223604 241.2686901 -183 231.3125 C-182.99436035 230.48363281 -182.9887207 229.65476562 -182.98291016 228.80078125 C-182.70934151 214.65105235 -178.82464912 201.67023718 -174.30419922 188.37036133 C-170.20006294 174.67528424 -173.50315418 159.78931258 -175.55126953 145.98583984 C-178.73228024 124.33332748 -180.06182982 104.03520827 -166.61328125 85.4453125 C-155.26559834 72.03997075 -138.72118068 66.50715001 -122.6484375 60.79492188 C-106.87306002 55.03711291 -97.36946993 47.53748154 -87.6875 33.9375 C-86.46880295 32.2568291 -85.24876217 30.5771317 -84.02734375 28.8984375 C-83.45097168 28.10405273 -82.87459961 27.30966797 -82.28076172 26.49121094 C-72.81630581 13.54900981 -61.90671437 1.47338438 -46.6875 -4.6875 C-45.39779297 -5.22117187 -45.39779297 -5.22117187 -44.08203125 -5.765625 C-29.52593007 -9.71872037 -13.19819172 -6.66406586 0 0 Z M-64.03125 24.37988281 C-69.12094721 30.31886322 -73.5531836 36.80603624 -78.11572266 43.15087891 C-90.62748831 60.35795767 -104.15063439 68.41651641 -123.9375 75.4375 C-138.88442739 80.76570874 -151.92911496 86.26513983 -160.515625 100.30078125 C-167.70677415 115.90226864 -164.05792198 133.80346926 -161.46948242 150.13525391 C-158.6223566 168.42722602 -158.59233027 183.62065809 -164.90917969 201.125 C-169.73948729 214.70077044 -173.89726618 233.46221408 -167.6875 247.25 C-159.58863772 259.78287626 -145.991994 263.75780996 -132.13323975 266.82504272 C-123.83676196 268.47860315 -115.39233919 269.35560128 -107 270.375 C-103.07903059 270.86273113 -99.1586823 271.35538035 -95.23828125 271.84765625 C-94.28018051 271.96713623 -93.32207977 272.08661621 -92.33494568 272.2097168 C-85.61847182 273.05233033 -78.91239445 273.95550215 -72.2109375 274.91015625 C-71.36376663 275.03036636 -70.51659576 275.15057648 -69.64375305 275.27442932 C-45.84000426 278.70902549 -24.46794152 285.56642686 -2.89453125 296.08666992 C12.85704302 303.76032736 29.09650651 309.83986545 46.3125 313.3125 C47.62154297 313.57957764 47.62154297 313.57957764 48.95703125 313.85205078 C56.7813698 315.31198945 64.36578872 315.61455269 72.3125 315.5625 C73.49328125 315.57023437 74.6740625 315.57796875 75.890625 315.5859375 C97.61322585 315.53809036 116.73932497 309.85820911 132.3125 294.3125 C132.88871094 293.74789063 133.46492188 293.18328125 134.05859375 292.6015625 C145.24631719 280.68736352 147.88529348 264.51854175 147.7980957 248.77416992 C146.78832141 217.58961547 119.66803791 188.90800886 100.97485352 166.04418945 C96.44112814 160.49368179 92.01653944 154.8764904 87.70361328 149.15136719 C86.70217805 147.82760269 85.69458507 146.50848843 84.68310547 145.19238281 C71.4803268 127.99892335 62.06371788 109.92525274 52.68408203 90.47219849 C29.18679412 41.17222155 29.18679412 41.17222155 -12.3359375 8.19140625 C-33.58772029 0.81329561 -49.5578982 8.51418038 -64.03125 24.37988281 Z " fill="#E58B3E" transform="translate(252.6875,764.6875)"/>
<path d="M0 0 C9.34052442 6.61260786 17.31381364 16.74662757 20 28 C21.23527467 39.05379811 19.47055204 47.56559972 12.875 56.5 C11.60802074 58.0209097 10.31479017 59.52022651 9 61 C8.29101562 61.80308594 7.58203125 62.60617187 6.8515625 63.43359375 C-11.85164638 83.3484723 -39.78235192 94.14074418 -65 103 C-66.06718262 103.37721191 -67.13436523 103.75442383 -68.23388672 104.14306641 C-156.02862968 134.75247732 -252.67741146 143.19684376 -356.375 146.5625 C-357.19194336 146.58334656 -358.00888672 146.60419312 -358.85058594 146.62567139 C-447.94985924 148.83906604 -537.53170137 143.91321585 -763 89 C-763.73798828 88.63841797 -764.47597656 88.27683594 -765.23632812 87.90429688 C-784.82374699 78.25523823 -804.67955804 65.63561019 -813.375 44.6875 C-813.9967463 42.01399091 -814.04574878 39.73120217 -814 37 C-813.175 37.51949219 -812.35 38.03898437 -811.5 38.57421875 C-801.83751308 44.47686733 -791.94893469 48.67989222 -780.70703125 50.546875 C-773.37949901 51.79814829 -769.92289798 54.65695504 -765.25756836 60.18188477 C-714.78563772 119.5163142 -582.99956022 125.94575271 -510.84545898 131.77996826 C-494.24549615 133.06359902 -477.62122715 134.03863363 -461 135 C-460.67 135.99 -460.34 136.98 -460 138 C-447.89138745 139.13789944 -435.83800543 139.14641524 -423.6875 139.1328125 C-421.54386382 139.13348785 -419.40022772 139.13445979 -417.2565918 139.13571167 C-412.78531152 139.13717777 -408.31405136 139.13506929 -403.84277344 139.13037109 C-398.14760232 139.1246745 -392.45247835 139.12795936 -386.75730896 139.13394356 C-382.33719536 139.13757867 -377.91709271 139.1363971 -373.49697876 139.13381577 C-371.3984883 139.13315464 -369.29999681 139.13394602 -367.20150757 139.13629532 C-356.08573882 139.14601249 -345.0764611 139.04090364 -334 138 C-333.67 137.01 -333.34 136.02 -333 135 C-331.24925171 134.90295776 -331.24925171 134.90295776 -329.46313477 134.80395508 C-241.54254191 129.85836532 -142.07453501 123.47702737 -62 83 C-61.31228516 82.6601709 -60.62457031 82.3203418 -59.91601562 81.97021484 C-51.37938575 77.73230101 -43.4521238 72.98445361 -36 67 C-34.68708984 65.95199219 -34.68708984 65.95199219 -33.34765625 64.8828125 C-25.12321501 57.93223208 -17.96043489 49.17486445 -16.6640625 38.140625 C-16.53591849 28.65796844 -18.84545474 22.00840569 -24.1484375 14.19921875 C-24.68388184 13.40733154 -25.21932617 12.61544434 -25.77099609 11.79956055 C-26.17656738 11.20570557 -26.58213867 10.61185059 -27 10 C-23.25933545 8.12654604 -19.50615406 6.27967592 -15.75 4.4375 C-14.68652344 3.90447266 -13.62304688 3.37144531 -12.52734375 2.82226562 C-10.99013672 2.07299805 -10.99013672 2.07299805 -9.421875 1.30859375 C-8.47924805 0.84251709 -7.53662109 0.37644043 -6.56542969 -0.10375977 C-3.7739061 -1.07898655 -2.69449337 -1.10861252 0 0 Z " fill="#3E2600" transform="translate(897,992)"/>
<path d="M0 0 C1.41811312 2.83622625 0.56825619 4.2903884 -0.2578125 7.328125 C-0.55155762 8.42801758 -0.84530273 9.52791016 -1.14794922 10.66113281 C-1.47037598 11.84545898 -1.79280273 13.02978516 -2.125 14.25 C-4.5109663 23.22161639 -6.82314909 32.19560229 -8.875 41.25 C-9.07754395 42.13461914 -9.28008789 43.01923828 -9.48876953 43.93066406 C-11.48747995 52.83949754 -12.15727888 61.25083712 -12.125 70.375 C-12.12886719 71.46039062 -12.13273438 72.54578125 -12.13671875 73.6640625 C-12.12923565 79.86006717 -11.81472643 85.85722139 -11 92 C-26.62144266 92.47068897 -41.86413648 92.11484217 -57.375 90.25 C-58.10613007 90.16210205 -58.83726013 90.0742041 -59.59054565 89.98364258 C-67.52952133 89.01614773 -75.45330944 87.94262121 -83.375 86.84375 C-105.46906403 83.79326463 -125.8760281 83.38005596 -148 86 C-149.21236328 86.13680176 -149.21236328 86.13680176 -150.44921875 86.27636719 C-165.41631827 87.99360687 -180.19311112 90.78802296 -194.98999023 93.57495117 C-196.19848633 93.80227684 -196.19848633 93.80227684 -197.43139648 94.03419495 C-198.94627504 94.31985061 -200.46086493 94.60704333 -201.97509766 94.89610291 C-208.13074572 96.06007918 -214.15938228 97.14850161 -220.4375 97.0625 C-221.30246094 97.05347656 -222.16742188 97.04445313 -223.05859375 97.03515625 C-223.69925781 97.02355469 -224.33992188 97.01195312 -225 97 C-224.3499436 92.51118952 -223.22163976 88.344903 -221.9375 84 C-215.80048481 60.80532852 -221.9297256 41.31094278 -233 21 C-233.89332031 19.59814453 -233.89332031 19.59814453 -234.8046875 18.16796875 C-235.19914062 17.45253906 -235.59359375 16.73710938 -236 16 C-235.67 15.34 -235.34 14.68 -235 14 C-234.2471875 14.4846875 -233.494375 14.969375 -232.71875 15.46875 C-209.0842051 30.38375406 -183.74512204 40.29381083 -156 44 C-155.29375488 44.09571289 -154.58750977 44.19142578 -153.85986328 44.29003906 C-99.44148262 51.04241985 -44.41801047 29.81860238 0 0 Z " fill="#010000" transform="translate(632,952)"/>
<path d="M0 0 C0.68707031 0.21430664 1.37414062 0.42861328 2.08203125 0.64941406 C23.59048714 7.50298976 49.50264292 18.06152085 63 37 C63.4125 37.56847656 63.825 38.13695312 64.25 38.72265625 C68.57855399 45.80164559 68.10668407 54.30532966 66.2578125 62.1484375 C59.28332018 81.54465336 38.18498424 94.36550363 20.5 102.75 C18.01488603 103.87587016 15.51582067 104.94169418 13 106 C11.96488281 106.43699219 10.92976562 106.87398437 9.86328125 107.32421875 C3.15331431 109.77279823 -3.17152059 110.37045785 -10.25 110.4375 C-11.07781982 110.44773193 -11.90563965 110.45796387 -12.75854492 110.46850586 C-24.55483993 110.30003785 -33.47635969 105.33149907 -42.0625 97.5 C-57.17475712 81.63514043 -61.63704452 58.72659661 -61.25 37.51171875 C-60.29333474 24.07356138 -57.2170637 12.09412222 -47.1875 2.69140625 C-33.46628252 -7.91803512 -15.34245407 -4.81835197 0 0 Z " fill="#272727" transform="translate(760,720)"/>
<path d="M0 0 C2.37092323 1.47864029 4.57788742 2.96524438 6.8125 4.625 C7.4327002 5.07939453 8.05290039 5.53378906 8.69189453 6.00195312 C21.49057845 15.46956446 33.86554697 27.18789427 36.76953125 43.60546875 C37.91767793 55.53451817 34.02680499 65.35644072 26.88671875 74.79296875 C24.68630573 77.31386821 22.3973787 79.66644502 20 82 C18.94619141 83.08474609 18.94619141 83.08474609 17.87109375 84.19140625 C-46.03689902 146.32108965 -175.66945608 155.76823055 -344.60882568 170.89285278 C-346.26271531 170.96696268 -347.91639818 171.04578182 -349.56988525 171.12838745 C-371.76334432 172.22969449 -393.96474171 172.18747615 -416.1796875 172.18530273 C-420.52413152 172.18522216 -424.86846855 172.19206915 -429.21289062 172.20581055 C-468.55594893 172.32809928 -507.83004767 171.35231942 -547.0625 168.25 C-548.12824249 168.16763092 -549.19398499 168.08526184 -550.29202271 168.00039673 C-603.22320609 163.87915075 -655.9787427 157.33894694 -707.96130371 146.42779541 C-709.96744213 146.00683187 -711.97440349 145.58997165 -713.98144531 145.17333984 C-766.35031483 134.19488472 -829.71326729 119.56647594 -869 81 C-869.7940625 80.23042969 -870.588125 79.46085937 -871.40625 78.66796875 C-879.33073486 70.49254187 -884.29509614 60.89492327 -885.3125 49.5 C-885.11306156 38.92976257 -880.47034384 30.04847649 -874 22 C-873.57332031 21.41089844 -873.14664063 20.82179688 -872.70703125 20.21484375 C-867.67610031 13.66689363 -860.52942551 8.94626344 -854 4 C-852.24649285 10.48345353 -852.25273841 17.76229218 -855.48828125 23.7578125 C-856.7037421 25.41833504 -857.94623258 27.05940793 -859.21484375 28.6796875 C-864.58780518 35.66336166 -866.26867718 43.26799179 -866 52 C-863.72022592 68.04610216 -852.62892103 79.53970402 -840.22827148 88.92138672 C-768.45615533 141.64301873 -658.60216385 151.68860797 -546.375 162.25 C-545.39868622 162.32713226 -544.42237244 162.40426453 -543.41647339 162.48373413 C-535.94864721 163.0647207 -528.47681924 163.55052758 -521 164 C-520.3036935 164.04274551 -519.60738701 164.08549103 -518.88998032 164.12953186 C-489.79798368 165.90838796 -460.76575723 166.31762265 -431.6237793 166.26074219 C-425.74453685 166.2493554 -419.86547571 166.25613351 -413.98623943 166.26762009 C-384.93501707 166.31574673 -356.00064791 165.74286083 -327 164 C-325.7244223 163.92438843 -324.4488446 163.84877686 -323.13461304 163.77087402 C-315.93804151 163.33324933 -308.74969127 162.82036118 -301.5625 162.25 C-300.50788574 162.16763092 -299.45327148 162.08526184 -298.36669922 162.00039673 C-258.33966409 158.84365205 -218.54652302 153.94451757 -179 147 C-178.20843506 146.8616272 -177.41687012 146.72325439 -176.60131836 146.58068848 C-117.79658322 136.25757139 -47.56851697 122.73956484 -1 83 C-0.01644531 82.22914062 0.96710937 81.45828125 1.98046875 80.6640625 C10.62588063 73.45088895 16.34973245 62.72234382 17.875 51.6875 C18.68340078 39.23468791 12.77013111 29.25772127 5 20 C-0.5657871 13.98551308 -7.22308701 9.53079531 -14 5 C-5.70859161 -1.69585776 -5.70859161 -1.69585776 0 0 Z " fill="#373400" transform="translate(924,978)"/>
<path d="M0 0 C8.02647091 3.58269679 12.77147383 10.32498997 15.9140625 18.34765625 C20.61274171 31.88305601 18.23360294 46.64398607 12.53515625 59.4453125 C11.38171907 61.78176217 10.19080368 64.07673137 8.9140625 66.34765625 C10.84765625 66.72664063 10.84765625 66.72664063 12.8203125 67.11328125 C17.93384694 68.25362344 22.60930094 70.03367325 27.4140625 72.09765625 C28.24776367 72.45400146 29.08146484 72.81034668 29.94042969 73.17749023 C42.21418613 78.5427445 52.49033737 85.66241483 57.9140625 98.34765625 C60.59739355 109.09807173 58.92296598 119.55290458 53.30078125 129.08203125 C51.59102562 131.58411266 49.79200791 133.97003579 47.9140625 136.34765625 C47.48738281 136.94964844 47.06070313 137.55164063 46.62109375 138.171875 C37.4430334 150.28691466 21.37740573 157.67889172 7.48706055 162.71166992 C-1.08363287 165.83392382 -8.4079183 169.7920209 -16.03637695 174.78588867 C-37.59836418 188.90108446 -60.51631123 197.90569698 -86.7109375 193.09765625 C-102.93208208 189.49112766 -114.32015998 181.13954913 -126.1159668 169.81933594 C-131.68610749 164.58021978 -137.92933199 160.57570608 -144.35058594 156.46630859 C-158.34241693 147.44681371 -169.09766638 137.59159445 -175.4609375 121.97265625 C-177.44518518 110.46401971 -176.01468719 102.57888754 -169.48046875 92.9921875 C-166.08224175 89.23917008 -162.12715251 86.47578626 -158.0234375 83.53515625 C-157.17740967 82.92075684 -156.33138184 82.30635742 -155.4597168 81.67333984 C-153.77764649 80.45267691 -152.09352891 79.23482937 -150.40722656 78.02001953 C-148.39697595 76.57174264 -146.39189497 75.11689521 -144.390625 73.65625 C-141.9591856 71.8818706 -139.52451645 70.11220102 -137.0859375 68.34765625 C-138.35603083 65.68512114 -139.77308821 63.32367323 -141.4609375 60.91015625 C-147.89048869 50.55037496 -149.30478456 39.24360357 -148.0859375 27.34765625 C-146.36078418 20.02455646 -143.51378485 12.63288782 -137.0859375 8.34765625 C-133.03761276 7.76390905 -129.2607038 7.93785405 -125.3984375 9.28515625 C-116.75130433 16.99746421 -113.8310521 27.20761769 -112.8984375 38.34765625 C-112.7756543 39.65283203 -112.7756543 39.65283203 -112.65039062 40.984375 C-112.45235059 43.10456831 -112.26773194 45.22600824 -112.0859375 47.34765625 C-111.08175781 46.80496094 -110.07757813 46.26226562 -109.04296875 45.703125 C-89.45744928 35.34240691 -68.97285857 33.06774885 -47.48852539 39.20581055 C-41.4592155 41.07210339 -35.67220902 43.39760275 -30.0859375 46.34765625 C-30.12074219 45.331875 -30.15554688 44.31609375 -30.19140625 43.26953125 C-30.52112053 29.61969328 -29.02534748 15.92290643 -19.28125 5.3984375 C-13.49327625 0.26875261 -7.77024514 -2.43002048 0 0 Z M-124.5234375 67.47265625 C-132.41648387 74.89353634 -141.31183807 81.02590894 -150.0859375 87.34765625 C-152.40614146 89.02525329 -154.71700496 90.71350269 -157.0234375 92.41015625 C-158.36728516 93.38662109 -158.36728516 93.38662109 -159.73828125 94.3828125 C-164.57992165 98.43496744 -168.4419603 103.42003295 -169.48046875 109.75390625 C-170.1133069 119.99705396 -165.44143959 127.90964742 -158.9609375 135.53515625 C-152.39180229 142.41290856 -144.72934644 147.77059997 -136.6484375 152.72265625 C-128.78527087 157.61454009 -121.9697995 163.87164657 -115.0859375 170.03125 C-101.36541803 182.01845916 -86.33056166 188.15719486 -68.03125 187.6875 C-49.07857468 186.05494282 -33.56720567 177.80981958 -17.82958984 167.64404297 C-9.40964545 162.21154129 -0.85380648 157.9962866 8.4765625 154.34765625 C25.85927149 147.54486684 41.78950986 137.00166439 50.0390625 119.671875 C52.21174682 113.90068226 53.157424 107.19141951 51.23046875 101.234375 C44.85127032 87.60247795 32.93235807 82.384881 19.4140625 77.41015625 C18.2705835 76.97759521 17.12710449 76.54503418 15.94897461 76.09936523 C10.9416918 74.20638094 5.92415774 72.34627735 0.88671875 70.53515625 C-8.02504914 67.2809024 -15.97165075 63.2714577 -24.12060547 58.41015625 C-59.29654625 37.52873447 -94.17364118 38.84394105 -124.5234375 67.47265625 Z " fill="#E58C3F" transform="translate(552.0859375,236.65234375)"/>
<path d="M0 0 C14.56577545 10.46308203 22.7963777 28.18191542 26.01855469 45.4609375 C28.98681509 65.74850708 24.22391315 86.23545058 13.87109375 103.7578125 C12.09527191 105.99689222 11.04592688 106.76318758 8.34375 107.68359375 C5.68652344 107.08447266 5.68652344 107.08447266 2.703125 105.91015625 C1.63320313 105.49765625 0.56328125 105.08515625 -0.5390625 104.66015625 C-2.20582031 103.99113281 -2.20582031 103.99113281 -3.90625 103.30859375 C-5.03289062 102.8703125 -6.15953125 102.43203125 -7.3203125 101.98046875 C-10.10460909 100.89506499 -12.8825482 99.79573297 -15.65625 98.68359375 C-15.02600551 95.75102754 -14.24646696 93.91866541 -12.78125 91.18359375 C-6.5949718 78.92392564 -5.51363455 64.26577872 -9.6796875 51.18359375 C-12.81662996 43.15302105 -16.35909241 37.61097031 -24.03125 33.37109375 C-28.7602344 32.13255022 -32.45792909 31.73719797 -36.9609375 33.67578125 C-45.64411289 38.85060295 -49.69061243 47.31842247 -52.65625 56.68359375 C-53.71990377 61.68130939 -53.7747168 66.47853053 -53.71875 71.55859375 C-53.71423828 72.34234375 -53.70972656 73.12609375 -53.70507812 73.93359375 C-53.69339093 75.85029389 -53.67545908 77.76695423 -53.65625 79.68359375 C-54.17010254 79.4820166 -54.68395508 79.28043945 -55.21337891 79.07275391 C-57.56872724 78.14980512 -59.92497868 77.22918348 -62.28125 76.30859375 C-63.49361328 75.83292969 -63.49361328 75.83292969 -64.73046875 75.34765625 C-69.00716799 73.67870045 -73.28220111 72.08498805 -77.65625 70.68359375 C-81.11281065 51.6725102 -76.72338823 31.35159668 -66.375 15.08984375 C-49.9175931 -7.95052591 -24.63353371 -15.62982123 0 0 Z " fill="#D1CDC7" transform="translate(576.65625,204.31640625)"/>
<path d="M0 0 C3.61821916 1.29037773 6.49529065 3.33210079 9.55078125 5.6015625 C10.17098145 6.05595703 10.79118164 6.51035156 11.43017578 6.97851562 C24.2288597 16.44612696 36.60382822 28.16445677 39.5078125 44.58203125 C40.65595918 56.51108067 36.76508624 66.33300322 29.625 75.76953125 C27.42458698 78.29043071 25.13565995 80.64300752 22.73828125 82.9765625 C21.68447266 84.06130859 21.68447266 84.06130859 20.609375 85.16796875 C-43.29861777 147.29765215 -172.93117483 156.74479305 -341.87054443 171.86941528 C-343.52443406 171.94352518 -345.17811693 172.02234432 -346.831604 172.10494995 C-369.02506307 173.20625699 -391.22646046 173.16403865 -413.44140625 173.16186523 C-417.78585027 173.16178466 -422.1301873 173.16863165 -426.47460938 173.18237305 C-465.81766768 173.30466178 -505.09176642 172.32888192 -544.32421875 169.2265625 C-545.38996124 169.14419342 -546.45570374 169.06182434 -547.55374146 168.97695923 C-600.48492484 164.85571325 -653.24046145 158.31550944 -705.22302246 147.40435791 C-707.22916088 146.98339437 -709.23612224 146.56653415 -711.24316406 146.14990234 C-763.61203358 135.17144722 -826.97498604 120.54303844 -866.26171875 81.9765625 C-867.05578125 81.20699219 -867.84984375 80.43742187 -868.66796875 79.64453125 C-876.59245361 71.46910437 -881.55681489 61.87148577 -882.57421875 50.4765625 C-882.37478031 39.90632507 -877.73206259 31.02503899 -871.26171875 22.9765625 C-870.83503906 22.38746094 -870.40835938 21.79835938 -869.96875 21.19140625 C-864.93781906 14.64345613 -857.79114426 9.92282594 -851.26171875 4.9765625 C-850.1568032 8.75485418 -850.37339656 10.4386715 -852.26171875 13.9765625 C-854.43359375 16.3359375 -854.43359375 16.3359375 -857.01171875 18.7265625 C-866.41269124 27.86978827 -871.49536556 36.87221799 -872.25390625 50.03125 C-872.28782719 62.8194457 -865.12173872 73.15085395 -856.42578125 82 C-845.9211486 92.16043549 -833.17292811 99.33958877 -820.26171875 105.9765625 C-819.57916016 106.3281543 -818.89660156 106.67974609 -818.19335938 107.04199219 C-805.64503183 113.41371341 -792.52092604 118.30572827 -779.26171875 122.9765625 C-778.23836426 123.33862793 -777.21500977 123.70069336 -776.16064453 124.07373047 C-698.40569889 151.20321989 -614.22362388 160.70103076 -532.51318359 166.52246094 C-528.52725037 166.80758127 -524.54372461 167.11120809 -520.56103516 167.43847656 C-488.46131628 170.06240547 -456.38778401 170.26726884 -424.20017242 170.28663635 C-420.8258048 170.28901728 -417.45145102 170.29432963 -414.0770874 170.29992676 C-375.75381346 170.34639226 -337.53160288 169.2864758 -299.3215332 166.2265625 C-296.10228493 165.96880112 -292.8823215 165.72196677 -289.66210938 165.4765625 C-270.66935657 164.01331221 -251.82036853 162.17980816 -232.97674561 159.3762207 C-229.28587194 158.8329156 -225.59154016 158.31554106 -221.89697266 157.79804993 C-172.3421867 150.84996931 -122.97669032 142.44864501 -75.26171875 126.9765625 C-74.18083984 126.62770996 -73.09996094 126.27885742 -71.98632812 125.91943359 C-38.43951977 114.9779072 8.12727294 99.70086873 25.73828125 65.9765625 C29.71226481 58.10246124 30.90093817 48.8437535 28.58203125 40.28515625 C22.50638337 23.66150858 8.97808283 12.5767566 -5.26171875 2.9765625 C-3.56198108 0.74006557 -2.87542291 -0.02979713 0 0 Z " fill="#0E0000" transform="translate(921.26171875,977.0234375)"/>
<path d="M0 0 C13.66257942 10.75564763 19.78722928 24.56249486 23.6015625 41.2109375 C24.0885877 45.70742597 24.0418991 50.16884303 24 54.6875 C23.99548828 55.61433594 23.99097656 56.54117188 23.98632812 57.49609375 C23.97461574 59.76829709 23.95821372 62.04036388 23.9375 64.3125 C22.41769531 65.01826172 22.41769531 65.01826172 20.8671875 65.73828125 C19.51560425 66.3671429 18.16404291 66.99605166 16.8125 67.625 C16.14734375 67.93373047 15.4821875 68.24246094 14.796875 68.56054688 C10.81129557 70.41657651 6.86061064 72.32650162 2.9375 74.3125 C2.85113281 73.00796875 2.76476562 71.7034375 2.67578125 70.359375 C1.59312001 53.40798497 1.59312001 53.40798497 -7.0625 39.3125 C-7.0625 38.6525 -7.0625 37.9925 -7.0625 37.3125 C-11.58748956 34.97702152 -16.07636578 34.4587721 -21.0625 35.3125 C-26.76309369 39.23957565 -29.80351645 46.59792106 -31.0625 53.3125 C-31.98521236 66.6086339 -30.67346645 78.52707049 -22.234375 89.41015625 C-21.0625 91.3125 -21.0625 91.3125 -21.0625 95.3125 C-23.25 97.234375 -23.25 97.234375 -26.0625 99.0625 C-26.990625 99.67609375 -27.91875 100.2896875 -28.875 100.921875 C-29.9578125 101.61023438 -29.9578125 101.61023438 -31.0625 102.3125 C-38.90581026 99.13741817 -42.84613374 89.39206353 -46 82.046875 C-53.65108234 62.35658958 -53.83175703 39.09558898 -45.9296875 19.50390625 C-40.93916305 8.64703683 -33.95247339 0.85493703 -23 -4.0625 C-14.46667904 -5.8781002 -7.5340114 -4.15139404 0 0 Z " fill="#D2CDC7" transform="translate(436.0625,210.6875)"/>
<path d="M0 0 C8.02647091 3.58269679 12.77147383 10.32498997 15.9140625 18.34765625 C20.52743247 31.63730725 18.52319461 46.73768108 12.53515625 59.22265625 C11.38885673 61.31277503 10.20650317 63.34543259 8.9140625 65.34765625 C-1.3567513 63.5319231 -10.29152366 58.28445898 -19.2734375 53.22265625 C-20.21896484 52.69567139 -21.16449219 52.16868652 -22.13867188 51.62573242 C-23.02232422 51.11888916 -23.90597656 50.6120459 -24.81640625 50.08984375 C-25.61457764 49.63464355 -26.41274902 49.17944336 -27.23510742 48.71044922 C-29.0859375 47.34765625 -29.0859375 47.34765625 -30.0859375 44.34765625 C-31.02342236 30.80821149 -28.9266313 18.63460849 -21.0859375 7.34765625 C-15.25815488 1.05314645 -8.69130324 -2.71806674 0 0 Z " fill="#0E0D0D" transform="translate(552.0859375,236.65234375)"/>
<path d="M0 0 C3.40695488 0.58518361 5.06780991 1.68360076 7.50390625 4.10546875 C8.15657471 4.75201416 8.80924316 5.39855957 9.48168945 6.06469727 C10.51169067 7.11548462 10.51169067 7.11548462 11.5625 8.1875 C12.27559326 8.90929443 12.98868652 9.63108887 13.72338867 10.37475586 C19.53050979 16.34149594 24.77279722 22.57640289 29.71435547 29.27001953 C31.00715281 31.00962492 32.330075 32.72238094 33.66015625 34.43359375 C64.85474133 75.06708921 85.71473305 128.00046338 79.02026367 179.75268555 C77.33703885 191.71824109 77.33703885 191.71824109 75 196 C73.85724609 195.49339844 73.85724609 195.49339844 72.69140625 194.9765625 C66.48098285 192.2939077 60.65525548 190.22013017 54 189 C54.45246094 188.30648437 54.90492188 187.61296875 55.37109375 186.8984375 C68.53357533 163.47742711 64.9495236 127.33948522 58.05053711 102.4387207 C47.73367387 67.47469029 29.98594694 37.12679357 4.875 10.76953125 C4.235625 10.08246094 3.59625 9.39539063 2.9375 8.6875 C2.08478516 7.79611328 2.08478516 7.79611328 1.21484375 6.88671875 C-0.3391296 4.47331319 -0.22770579 2.81483118 0 0 Z " fill="#BABBBE" transform="translate(695,514)"/>
<path d="M0 0 C3.3594699 1.69409166 5.91213149 3.94232195 8.6171875 6.5078125 C9.4071814 7.24922485 9.4071814 7.24922485 10.21313477 8.00561523 C18.40527179 15.77699664 27.10103503 24.71148808 27.98046875 36.60546875 C28.26620581 51.38860199 23.47189777 61.50884218 13.3671875 72.2578125 C-49.38966162 132.76665508 -170.56327029 142.23475182 -284.8828125 153.6328125 C-285.81119934 153.70994476 -286.73958618 153.78707703 -287.69610596 153.86654663 C-294.87847864 154.45464976 -302.06502361 154.94110817 -309.2578125 155.3828125 C-309.94426723 155.42541073 -310.63072197 155.46800896 -311.33797836 155.51189804 C-341.77592183 157.38492825 -372.16979465 157.74706755 -402.6595726 157.70066833 C-406.37474418 157.69523286 -410.08990939 157.69286233 -413.80508423 157.6907959 C-448.41058064 157.66079564 -482.89397322 157.38851455 -517.40570068 154.61065674 C-520.30059089 154.3793951 -523.196211 154.16071635 -526.09228516 153.94482422 C-610.85514171 147.56253655 -700.50746198 136.44175757 -831.4296875 68.59765625 C-834.5695387 64.79360575 -837.01563653 60.76655398 -839.2578125 56.3828125 C-839.598125 55.76148438 -839.9384375 55.14015625 -840.2890625 54.5 C-843.69939652 47.20567445 -843.43953844 37.86560388 -841.42578125 30.2265625 C-838.92914583 23.71847917 -838.92914583 23.71847917 -836.2578125 22.3828125 C-834.31944961 27.76715385 -834.4263451 30.09190669 -836.2578125 35.3828125 C-837.5027105 47.87131302 -833.85214398 56.66533458 -826.2578125 66.3828125 C-825.65453125 67.19621094 -825.05125 68.00960938 -824.4296875 68.84765625 C-821.87514337 71.82948924 -819.03270224 74.2346262 -815.9453125 76.6328125 C-815.33284668 77.10952393 -814.72038086 77.58623535 -814.08935547 78.07739258 C-807.48633993 83.11397483 -800.52955378 87.38710312 -793.2578125 91.3828125 C-792.35869141 91.8787793 -792.35869141 91.8787793 -791.44140625 92.38476562 C-716.40995204 133.14159227 -621.30291778 143.23409419 -500.8828125 153.0703125 C-499.90724396 153.13116028 -498.93167542 153.19200806 -497.92654419 153.25469971 C-468.09949413 155.09014248 -438.31888637 155.59022039 -408.4453125 155.5703125 C-407.09456886 155.56991219 -407.09456886 155.56991219 -405.71653748 155.56950378 C-376.51975154 155.55866926 -347.40558082 155.21797005 -318.2578125 153.3828125 C-317.22591797 153.31964844 -316.19402344 153.25648438 -315.13085938 153.19140625 C-217.63494453 147.21150047 -104.05761927 138.23559291 7.7421875 70.3828125 C8.47179687 69.66480469 9.20140625 68.94679688 9.953125 68.20703125 C17.77928023 60.0172071 22.15674657 50.42880949 21.94140625 39.08203125 C21.02261213 26.63327171 13.46363118 16.44551628 4.4296875 8.3203125 C3.22892578 7.31291016 3.22892578 7.31291016 2.00390625 6.28515625 C-0.21105086 4.42214397 -2.24016549 2.45586401 -4.2578125 0.3828125 C-2.2578125 -0.6171875 -2.2578125 -0.6171875 0 0 Z " fill="#341A00" transform="translate(907.2578125,985.6171875)"/>
<path d="M0 0 C7.70062686 0.84984395 14.70551242 9.32701302 19.375 14.9375 C26.38889102 24.18373826 30.18046862 33.31169801 29 45 C24.70946714 62.43182208 11.13978088 75.23705115 -3.65234375 84.4375 C-79.45346477 129.78708397 -176.15488974 141.33591805 -307.375 152.6875 C-308.35056854 152.74834778 -309.32613708 152.80919556 -310.33126831 152.87188721 C-340.15831837 154.70732998 -369.93892613 155.20740789 -399.8125 155.1875 C-400.71299576 155.18723312 -401.61349152 155.18696625 -402.54127502 155.18669128 C-431.73806096 155.17585676 -460.85223168 154.83515755 -490 153 C-491.5478418 152.90525391 -491.5478418 152.90525391 -493.12695312 152.80859375 C-588.20616937 146.97691602 -699.69389964 138.60062367 -785 92 C-785.5990918 91.67966797 -786.19818359 91.35933594 -786.81542969 91.02929688 C-795.4788463 86.38603789 -803.29556851 81.09737216 -811 75 C-811.88945313 74.34257813 -811.88945313 74.34257813 -812.796875 73.671875 C-821.8596565 66.75297729 -828.73020209 56.15983974 -831 45 C-831.4220395 38.98593706 -831.43236642 33.62484734 -829 28 C-826.64534692 30.14059371 -825.01384231 31.95847307 -824 35 C-824.185625 35.99 -824.37125 36.98 -824.5625 38 C-825.81115541 45.09601733 -823.16315267 52.67369608 -819.375 58.625 C-818.28060424 60.10643816 -817.15368233 61.56424996 -816 63 C-815.06027344 64.20076172 -815.06027344 64.20076172 -814.1015625 65.42578125 C-764.14180045 125.13605447 -641.87438341 135.55501676 -532.19726562 147.46826172 C-515.48471846 148.92445321 -498.74684177 150.0263972 -482 151 C-480.87384277 151.06670898 -479.74768555 151.13341797 -478.58740234 151.20214844 C-472.06038912 151.57512062 -465.53499504 151.81905329 -459 152 C-458.25316956 152.02084656 -457.50633911 152.04169312 -456.73687744 152.06317139 C-365.45051335 154.58819398 -274.08775307 151.21219728 8 70 C13.15420241 64.92403975 16.80210066 59.47104337 20 53 C20.61875 51.7934375 20.61875 51.7934375 21.25 50.5625 C24.06096987 40.95835294 23.03293719 32.06587438 18.5546875 23.109375 C14.5705804 16.47537341 9.63312305 11.25407178 4 6 C2.97441868 4.98393684 1.95256605 3.96406822 0.9375 2.9375 C-0.0215625 1.9784375 -0.0215625 1.9784375 -1 1 C-0.67 0.67 -0.34 0.34 0 0 Z " fill="#442D00" transform="translate(901,987)"/>
<path d="M0 0 C6.09031407 2.12452816 9.32033367 8.53690418 12.01171875 14.0859375 C13.54958314 17.88183692 14.53443311 21.63602211 14.83203125 25.74609375 C14.96700436 28.10016611 14.96700436 28.10016611 15.51171875 30.78515625 C15.9275301 34.25025083 15.94611747 36.62466201 15 40 C11.59586177 43.86141053 7.80275482 46.78474082 3.63720703 49.77783203 C0.76450328 51.92229296 -1.74859754 54.45966264 -4.31640625 56.953125 C-6 58 -6 58 -8.02734375 57.90625 C-12.92701694 55.65531103 -15.2251867 49.78016922 -17.2734375 45.07421875 C-21.27293004 33.68559282 -21.93448878 21.53289766 -17.14453125 10.27734375 C-13.03226214 2.09491068 -9.32875143 -0.99066387 0 0 Z " fill="#050504" transform="translate(424,245)"/>
<path d="M0 0 C0 1.65 0 3.3 0 5 C-0.58523438 5.17273438 -1.17046875 5.34546875 -1.7734375 5.5234375 C-13.45845107 9.34826176 -23.89909119 15.91980217 -34.3828125 22.2265625 C-50.635265 32.00071451 -66.75005966 40.61583514 -85 46 C-86.12921875 46.35191406 -87.2584375 46.70382812 -88.421875 47.06640625 C-110.23723802 52.75840599 -131.91997393 47.57775567 -151.21484375 36.72265625 C-159.29511952 31.72489802 -166.52160638 25.72340024 -173.46484375 19.265625 C-177.11786152 16.00098663 -181.02333866 13.07395723 -184.9453125 10.140625 C-187 8 -187 8 -187.3046875 5.234375 C-187.20414062 4.49703125 -187.10359375 3.7596875 -187 3 C-182.07721234 3.14917538 -180.04210011 5.69514433 -176.859375 9.0546875 C-173.77563319 12.28095519 -170.42396482 15.1420715 -167 18 C-166.50612793 18.4129834 -166.01225586 18.8259668 -165.50341797 19.25146484 C-144.64383482 36.55437363 -124.09177524 44.90612045 -96.76318359 42.83007812 C-72.85628482 40.23437353 -50.0834073 25.45398471 -29.99023438 13.22216797 C-7.55646634 -0.43179808 -7.55646634 -0.43179808 0 0 Z " fill="#E68E3D" transform="translate(582,342)"/>
<path d="M0 0 C0.40597339 4.40324986 -0.56700367 6.30043329 -3.25 9.75 C-9.84367539 18.79961927 -13.21280262 27.46373541 -11.59375 38.859375 C-7.17146252 57.49615796 8.0065258 69.83051079 23.51464844 79.58105469 C63.45742531 103.44356438 111.25005667 116.71163909 156.66845703 125.55615234 C158.79133451 125.97958453 160.89854466 126.48058776 163 127 C163.33 127.66 163.66 128.32 164 129 C156.08857894 128.32359062 148.48070477 126.70860944 140.75 124.9375 C140.07426941 124.78349731 139.39853882 124.62949463 138.70233154 124.4708252 C103.88407613 116.5040484 69.25226336 106.54418481 37 91 C36.18096191 90.60570801 35.36192383 90.21141602 34.51806641 89.80517578 C20.22787498 82.81945577 7.3785191 74.17423689 -4 63 C-4.64582031 62.36707031 -5.29164062 61.73414063 -5.95703125 61.08203125 C-14.2356951 52.33442348 -18.40788329 42.14917417 -18.27734375 30.2265625 C-17.66378622 23.08855523 -9.47301453 0 0 0 Z " fill="#303000" transform="translate(70,994)"/>
<path d="M0 0 C0.72265625 1.7734375 0.72265625 1.7734375 1 4 C-0.44140625 5.7890625 -0.44140625 5.7890625 -2.5625 7.625 C-10.89754534 15.47917734 -15.97854598 25.38634464 -16.4375 36.875 C-16.01746479 50.66615602 -8.2980832 61.44920566 1.3828125 70.72265625 C55.4302228 117.75196999 141.79521146 129.67339139 209.91387939 140.66186523 C212.61075198 141.09899546 215.30562534 141.54775143 218 142 C218 142.33 218 142.66 218 143 C206.15747855 142.51282733 194.70511316 140.60597811 183.0625 138.5 C182.08522949 138.3249292 181.10795898 138.1498584 180.10107422 137.96948242 C159.90147444 134.3353887 139.90576061 129.99311618 120 125 C118.997341 124.74893494 118.997341 124.74893494 117.97442627 124.49279785 C11.36065561 97.66372431 11.36065561 97.66372431 -14.6015625 57.390625 C-19.79962306 48.50455499 -22.28255719 39.75651315 -20.375 29.375 C-16.90975311 16.92246763 -8.94783478 8.85775591 0 0 Z " fill="#404000" transform="translate(69,990)"/>
<path d="M0 0 C4.32334385 1.13772206 5.2664042 2.16534261 7.5625 5.9375 C10.87930252 11.86036165 11.14292278 17.20682816 10.5625 23.9375 C10.2325 24.5975 9.9025 25.2575 9.5625 25.9375 C3.6225 25.9375 -2.3175 25.9375 -8.4375 25.9375 C-11.26159813 20.28930374 -11.06569105 15.15886192 -10.4375 8.9375 C-8.64101904 3.64540337 -5.94065435 -0.1080119 0 0 Z " fill="#555555" transform="translate(420.4375,248.0625)"/>
<path d="M0 0 C4.30375948 2.48661659 6.33281294 5.34942557 8 10 C8.07928646 11.56720113 8.10134382 13.13806026 8.07421875 14.70703125 C8.06350342 15.51245361 8.05278809 16.31787598 8.04174805 17.14770508 C8.02797119 17.7589624 8.01419434 18.37021973 8 19 C7.25314941 19.05534912 6.50629883 19.11069824 5.73681641 19.16772461 C2.36587008 19.41998122 -1.00455319 19.6786585 -4.375 19.9375 C-5.550625 20.02451172 -6.72625 20.11152344 -7.9375 20.20117188 C-9.05898438 20.28818359 -10.18046875 20.37519531 -11.3359375 20.46484375 C-12.37282715 20.543396 -13.4097168 20.62194824 -14.47802734 20.70288086 C-16.99156472 20.85432767 -16.99156472 20.85432767 -19 22 C-19.457985 15.58821001 -18.57816344 11.38450318 -15 6 C-10.32782391 0.77161247 -7.08748078 -0.96771372 0 0 Z " fill="#666666" transform="translate(547,242)"/>
<path d="M0 0 C3.38186376 1.9427728 4.70264591 2.99357079 5.8125 6.75 C5.874375 7.4925 5.93625 8.235 6 9 C3.19252545 9.7795458 0.57970192 10.1710149 -2.328125 10.31640625 C-3.12734375 10.35830078 -3.9265625 10.40019531 -4.75 10.44335938 C-5.575 10.48267578 -6.4 10.52199219 -7.25 10.5625 C-8.51070312 10.62727539 -8.51070312 10.62727539 -9.796875 10.69335938 C-11.86440671 10.79908543 -13.93218281 10.90001295 -16 11 C-15.27655612 6.15536461 -13.70029011 4.24903522 -10 1 C-6.79091256 -0.60454372 -3.48131162 -0.48018091 0 0 Z " fill="#8D8D8D" transform="translate(547,242)"/>
<path d="M0 0 C3.97388157 3.66015408 4.06385389 5.38312336 5 11 C-0.94 11 -6.88 11 -13 11 C-13 4.83836226 -12.97473389 4.09163783 -9 0 C-5.77839187 -1.61080407 -3.42436421 -0.82657067 0 0 Z " fill="#797979" transform="translate(424,249)"/>
<path d="M0 0 C0.33 0 0.66 0 1 0 C1.02696365 1.79158489 1.04637917 3.58328473 1.0625 5.375 C1.07410156 6.37273437 1.08570313 7.37046875 1.09765625 8.3984375 C1 11 1 11 0 13 C-5.94 13 -11.88 13 -18 13 C-18.66 11.02 -19.32 9.04 -20 7 C-13.4 7.33 -6.8 7.66 0 8 C0 5.36 0 2.72 0 0 Z " fill="#2F2F2F" transform="translate(430,261)"/>
<path d="M0 0 C4.7242915 1.09671053 4.7242915 1.09671053 6.5 3.8125 C6.5 4.8025 6.5 5.7925 6.5 6.8125 C1.55 6.8125 -3.4 6.8125 -8.5 6.8125 C-5.65384615 -0.30288462 -5.65384615 -0.30288462 0 0 Z " fill="#8E8E8E" transform="translate(420.5,248.1875)"/>
<path d="M0 0 C0.33 0.99 0.66 1.98 1 3 C6.94 3 12.88 3 19 3 C19.33 2.34 19.66 1.68 20 1 C20 2.65 20 4.3 20 6 C13.4 6 6.8 6 0 6 C0 4.02 0 2.04 0 0 Z " fill="#626262" transform="translate(410,257)"/>
<path d="M0 0 C6.6 0 13.2 0 20 0 C20 0.99 20 1.98 20 3 C13.73 3 7.46 3 1 3 C0.67 2.01 0.34 1.02 0 0 Z " fill="#454545" transform="translate(410,266)"/>
<path d="M0 0 C5.94 0 11.88 0 18 0 C17.67 0.99 17.34 1.98 17 3 C12.05 3.33 7.1 3.66 2 4 C1.34 2.68 0.68 1.36 0 0 Z " fill="#191919" transform="translate(412,274)"/>
<path d="M0 0 C2.31 0.33 4.62 0.66 7 1 C7.33 1.99 7.66 2.98 8 4 C4.7 4 1.4 4 -2 4 C-1.34 2.68 -0.68 1.36 0 0 Z " fill="#989898" transform="translate(417,248)"/>
</svg>
