<?xml version="1.0" encoding="UTF-8"?>
<svg version="1.1" xmlns="http://www.w3.org/2000/svg" width="1400" height="1400">
<path d="M0 0 C462 0 924 0 1400 0 C1400 462 1400 924 1400 1400 C938 1400 476 1400 0 1400 C0 938 0 476 0 0 Z " fill="#FEFEFE" transform="translate(0,0)"/>
<path d="M0 0 C1.57551636 0.00140488 1.57551636 0.00140488 3.18286133 0.00283813 C18.62227583 0.03271043 33.91920789 0.17289252 49.25 2.1875 C50.41176758 2.33815918 51.57353516 2.48881836 52.77050781 2.64404297 C129.39894708 12.97964873 201.41702846 45.85719407 259.25 97.1875 C260.219375 98.04472656 261.18875 98.90195312 262.1875 99.78515625 C268.31983745 105.30925914 274.21395606 111.05298007 280.0625 116.875 C280.76802002 117.57584717 281.47354004 118.27669434 282.20043945 118.9987793 C286.75335942 123.56566692 291.0710477 128.27697324 295.25 133.1875 C295.79406494 133.82486084 296.33812988 134.46222168 296.89868164 135.11889648 C315.76838564 157.38677609 331.58054353 181.40912524 345.25 207.1875 C345.68521973 208.00202637 346.12043945 208.81655273 346.56884766 209.65576172 C362.14727631 239.03559065 373.27749695 270.69761298 380.25 303.1875 C380.46253418 304.15091309 380.67506836 305.11432617 380.89404297 306.10693359 C384.39011416 322.04603846 386.69466147 337.94802142 388.25 354.1875 C388.38277344 355.47914063 388.51554688 356.77078125 388.65234375 358.1015625 C397.19979718 458.09505882 361.87320973 559.50414009 297.8125 635.75 C289.4479751 645.58330885 280.60622792 654.91460052 271.5 664.0625 C270.80310059 664.76407227 270.10620117 665.46564453 269.38818359 666.18847656 C242.74456797 692.74999524 210.56797107 714.01096557 177.25 731.1875 C176.41210938 731.6201416 175.57421875 732.0527832 174.7109375 732.49853516 C150.99632821 744.59280004 125.86333149 753.12738818 100.25 760.1875 C99.39776855 760.43193848 98.54553711 760.67637695 97.66748047 760.92822266 C81.84374258 765.46360657 65.55746771 767.7257688 49.27108765 769.9107666 C47.30407096 770.18009644 45.34005957 770.47109612 43.3762207 770.76269531 C30.23365362 772.61836426 17.06377064 772.58378619 3.8125 772.5625 C1.99259552 772.56218277 1.99259552 772.56218277 0.13592529 772.56185913 C-19.7751701 772.52728841 -39.11549582 771.53814428 -58.75 768.1875 C-59.88904785 767.99494629 -61.0280957 767.80239258 -62.20166016 767.60400391 C-69.43536322 766.34161251 -76.5994359 764.85527713 -83.75 763.1875 C-84.69278809 762.96868164 -85.63557617 762.74986328 -86.60693359 762.52441406 C-145.28999731 748.63242612 -199.62757665 720.89857268 -245.75 682.1875 C-246.72066406 681.40246094 -247.69132813 680.61742187 -248.69140625 679.80859375 C-256.93335296 673.05042572 -264.51490161 665.63768452 -272.0625 658.125 C-272.57428802 657.61838837 -273.08607605 657.11177673 -273.6133728 656.58981323 C-279.73684262 650.51520644 -285.46904625 644.33068644 -290.83203125 637.56469727 C-292.62071653 635.34773844 -294.48618942 633.26121854 -296.4375 631.1875 C-337.05685154 585.87507597 -363.40350868 524.14366448 -375.75 465.1875 C-375.91064941 464.44612793 -376.07129883 463.70475586 -376.23681641 462.94091797 C-385.16870438 421.0645396 -386.43794664 377.56548763 -380.75 335.1875 C-380.61609863 334.1370752 -380.48219727 333.08665039 -380.34423828 332.00439453 C-375.53787211 295.0856764 -364.34757199 258.91525588 -348.75 225.1875 C-348.01356549 223.55372662 -347.27786742 221.91962105 -346.54296875 220.28515625 C-331.76211434 187.81530099 -311.26899771 157.94047005 -287.75 131.1875 C-286.54923828 129.81851563 -286.54923828 129.81851563 -285.32421875 128.421875 C-273.86635323 115.66319426 -261.8690846 102.69599582 -248.29296875 92.171875 C-245.86907023 90.28041502 -243.55068491 88.29534363 -241.23510742 86.27368164 C-233.1804179 79.27666629 -224.58196589 73.16019635 -215.75 67.1875 C-215.06421875 66.7234375 -214.3784375 66.259375 -213.671875 65.78125 C-160.64555122 30.16051341 -99.44405742 7.33615406 -35.75 1.1875 C-34.85200684 1.0939624 -33.95401367 1.0004248 -33.02880859 0.90405273 C-22.04109237 -0.10582789 -11.02398471 -0.01264615 0 0 Z " fill="#0E0E0E" transform="translate(401.75,313.8125)"/>
<path d="M0 0 C29.30296558 20.7406806 51.66734644 47.80728209 69.3125 78.875 C69.76592773 79.66438965 70.21935547 80.4537793 70.68652344 81.26708984 C106.16715073 143.32856116 122.72200231 215.11099171 129.12109375 285.78723145 C129.29737973 287.71007526 129.48413741 289.63195141 129.671875 291.55371094 C138.212126 381.04842454 127.40234098 475.67365651 77.29833984 599.99316406 C76.24992654 601.99444434 75.22783412 604.00794641 74.20703125 606.0234375 C54.40620186 644.74899254 24.75320296 682.1055685 -14.6875 701.875 C-15.31946289 702.19694336 -15.95142578 702.51888672 -16.60253906 702.85058594 C-42.32868534 715.73343828 -73.10239301 718.4127423 -100.6015625 709.65625 C-130.79187878 699.42510766 -156.00232988 678.49020384 -175.6875 653.875 C-176.29980469 653.153125 -176.91210938 652.43125 -177.54296875 651.6875 C-188.45103759 638.66294019 -197.60992643 623.8703897 -205.60009766 608.90136719 C-206.749576 606.75932177 -207.92667168 604.63384888 -209.10546875 602.5078125 C-238.08279794 549.62926849 -251.73685738 489.12801975 -259.6875 429.875 C-259.85765625 428.61316895 -260.0278125 427.35133789 -260.203125 426.05126953 C-268.20354422 365.07393641 -266.37546236 302.52397061 -256.6875 241.875 C-256.57470703 241.16597534 -256.46191406 240.45695068 -256.34570312 239.72644043 C-244.6298618 166.59030098 -220.23926225 90.42693184 -170.6875 33.875 C-170.17735352 33.29186035 -169.66720703 32.7087207 -169.14160156 32.10791016 C-124.862156 -18.0539348 -59.04276164 -38.25729963 0 0 Z " fill="#0E0E0E" transform="translate(1084.6875,353.125)"/>
<path d="M0 0 C23.06962146 13.29358385 31.53669818 48.88889274 38 72.5625 C46.70616948 105.74879789 52.01568219 139.52406074 56 173.5625 C56.09216797 174.34544434 56.18433594 175.12838867 56.27929688 175.93505859 C59.683428 205.03313685 61.45659847 234.21502237 62.85211182 263.47183228 C62.94857181 265.48771879 63.04737851 267.50349479 63.14886475 269.51913452 C64.12073917 289.00817107 64.24209032 308.49153603 64.25 328 C64.25073643 328.83575184 64.25147285 329.67150368 64.2522316 330.53258133 C64.27516136 362.62979327 63.21313562 394.53377883 61 426.5625 C60.90238373 428.00502136 60.90238373 428.00502136 60.80279541 429.47668457 C59.52103905 448.41095826 57.96484083 467.29710398 55.45654297 486.11376953 C55.12280048 488.63486387 54.79607496 491.15624546 54.47705078 493.67919922 C37.77900712 625.65972481 37.77900712 625.65972481 3 655.5625 C-2.0136725 659.05027217 -7.06021228 659.52944219 -13 658.5625 C-16.06173572 657.32571268 -18.45139584 655.64528786 -21 653.5625 C-21.57234375 653.11261719 -22.1446875 652.66273438 -22.734375 652.19921875 C-64.78631886 614.87329611 -66.74466631 525.64667356 -72.75 473.4375 C-72.85691162 472.51728058 -72.96382324 471.59706116 -73.07397461 470.6489563 C-74.28287496 460.18139387 -75.27256858 449.75830865 -75.76269531 439.23095703 C-75.94472473 435.62519064 -75.94472473 435.62519064 -76.48207092 432.33172607 C-77.01987616 428.41785135 -77.31638051 424.52791038 -77.52416992 420.58642578 C-77.58751117 419.41744562 -77.58751117 419.41744562 -77.65213203 418.2248497 C-79.13643933 389.92456283 -79.34285158 361.64770233 -79.31567383 333.31347656 C-79.31104507 328.07348032 -79.31797796 322.83371639 -79.33618164 317.59375 C-79.45345862 283.46818086 -78.69988207 249.58794886 -76 215.5625 C-75.91683847 214.50449188 -75.91683847 214.50449188 -75.83199692 213.42510986 C-75.2294364 205.8120118 -74.51169701 198.21704655 -73.6875 190.625 C-73.58395203 189.6432782 -73.48040405 188.6615564 -73.37371826 187.65008545 C-57.07020225 33.40738616 -57.07020225 33.40738616 -19 1.5625 C-13.1073221 -2.44953602 -6.52308306 -2.83273328 0 0 Z " fill="#0E0E0E" transform="translate(1318,371.4375)"/>
<path d="M0 0 C0.66 0.33 1.32 0.66 2 1 C-3.61 6.61 -9.22 12.22 -15 18 C-15.66 17.67 -16.32 17.34 -17 17 C-11.83794309 10.72690435 -6.12627407 5.3250511 0 0 Z M-18 18 C-18 18.99 -18 19.98 -18 21 C-18.66 20.67 -19.32 20.34 -20 20 C-19.34 19.34 -18.68 18.68 -18 18 Z " fill="#171717" transform="translate(934,367)"/>
</svg>
