<?xml version="1.0" encoding="UTF-8"?>
<svg version="1.1" xmlns="http://www.w3.org/2000/svg" width="477" height="523">
<path d="M0 0 C3.39526497 0.01611213 6.78934029 0.0000094 10.18457031 -0.01904297 C34.51834373 -0.04202155 61.44851237 0.67884149 83.39550781 12.39111328 C84.08773438 12.75849609 84.77996094 13.12587891 85.49316406 13.50439453 C98.42485188 20.98574871 107.98692143 32.54382886 113.39550781 46.39111328 C115.31693011 53.66398458 115.69249095 60.70573402 115.68603516 68.19628906 C115.69275238 69.33272354 115.6994696 70.46915802 115.70639038 71.64002991 C115.72528357 75.37220719 115.72929047 79.10420374 115.73144531 82.83642578 C115.73788012 85.45181347 115.74460899 88.06720045 115.75161743 90.68258667 C115.76436791 96.15803184 115.76738666 101.63342871 115.76611328 107.10888672 C115.7649147 113.39709312 115.78597306 119.68495476 115.81760061 125.97307408 C115.84713289 132.06634893 115.85408316 138.15946121 115.85289383 144.2528038 C115.85523771 146.82414022 115.86399196 149.39547981 115.87955856 151.96677017 C116.00363205 174.58114934 114.60487554 193.64701537 98.22363281 210.81298828 C86.37023105 221.61857552 72.61929355 226.0240535 56.74316406 225.90527344 C54.95747513 225.91596107 54.95747513 225.91596107 53.13571167 225.92686462 C49.2429699 225.94599269 45.3507803 225.93789411 41.45800781 225.93017578 C38.72759607 225.93769695 35.9972301 225.95175758 33.2668457 225.96591187 C26.83349854 225.99601605 20.40027446 226.00785132 13.96686268 226.01148832 C2.46118826 226.0181565 -9.04439932 226.04751101 -20.54996967 226.09658468 C-25.2198004 226.11553464 -29.88944779 226.11712805 -34.55932617 226.11465454 C-37.02360149 226.12124043 -39.48787572 226.12824778 -41.95214844 226.13574219 C-43.04447784 226.13161819 -44.13680725 226.1274942 -45.26223755 226.12324524 C-66.47527702 226.23278306 -84.65029295 232.12396181 -100.25683594 246.91845703 C-114.63344385 262.06054157 -120.01103838 279.10599143 -120.11621094 299.68798828 C-120.14313774 301.66016327 -120.14313774 301.66016327 -120.17060852 303.67218018 C-120.21758449 307.12434026 -120.24772915 310.57643751 -120.27404785 314.02880859 C-120.30412207 317.56897398 -120.35055802 321.10892356 -120.39550781 324.64892578 C-120.48094215 331.56286416 -120.54854942 338.47687492 -120.60449219 345.39111328 C-127.48709255 345.49342401 -134.3694933 345.56295677 -141.25268555 345.61083984 C-143.58902311 345.63082369 -145.92531152 345.65802016 -148.26147461 345.69287109 C-168.46831433 345.9865375 -183.82309939 344.67730401 -199.29199219 330.26611328 C-214.39193184 314.30331993 -219.25260275 293.21585906 -223.60449219 272.39111328 C-223.7867334 271.54935547 -223.96897461 270.70759766 -224.15673828 269.84033203 C-231.75104604 233.38765477 -229.64476894 182.5814129 -209.60449219 150.39111328 C-199.01176053 134.9605756 -183.56405913 123.35475009 -164.98528099 119.79789639 C-155.74822237 118.21964662 -146.48993901 118.25339317 -137.14892578 118.27758789 C-135.61052451 118.27787046 -134.07212311 118.27771066 -132.53372192 118.27714539 C-128.38567405 118.27686014 -124.23765549 118.2827126 -120.08961439 118.28971934 C-115.7441215 118.29599846 -111.39862783 118.29656027 -107.0531311 118.29774475 C-98.83695329 118.30084468 -90.62078888 118.30903993 -82.40461695 118.31909424 C-73.04543558 118.33029706 -63.68625355 118.33577631 -54.32706714 118.34078968 C-35.08620102 118.35122374 -15.84534818 118.36900012 3.39550781 118.39111328 C3.39550781 114.10111328 3.39550781 109.81111328 3.39550781 105.39111328 C-33.23449219 105.39111328 -69.86449219 105.39111328 -107.60449219 105.39111328 C-107.66636719 96.06861328 -107.72824219 86.74611328 -107.79199219 77.14111328 C-107.8193042 74.22235352 -107.84661621 71.30359375 -107.87475586 68.29638672 C-107.88352884 65.9477581 -107.89117085 63.59912487 -107.89746094 61.25048828 C-107.92048279 59.46408936 -107.92048279 59.46408936 -107.94396973 57.64160156 C-107.9477652 45.32909383 -105.81729622 32.55616018 -97.51464844 22.98095703 C-88.07054984 13.81237509 -76.11108758 9.71224268 -63.60449219 6.39111328 C-62.60933594 6.12556641 -61.61417969 5.86001953 -60.58886719 5.58642578 C-40.7950656 0.85736481 -20.26965634 -0.1137434 0 0 Z M-74.91699219 42.70361328 C-78.68133995 47.44427583 -79.88009195 51.94338381 -79.41699219 57.95361328 C-78.39524344 64.72700388 -75.72030327 68.89558952 -70.42871094 73.13330078 C-65.74945055 76.35968589 -61.172042 76.87107447 -55.60449219 76.39111328 C-48.60218168 74.99341889 -44.59580173 71.1735368 -40.60449219 65.39111328 C-37.99980655 59.9552476 -37.53423222 54.52066809 -39.47949219 48.83251953 C-42.18059745 42.85277004 -44.92312917 39.6526365 -50.60449219 36.39111328 C-60.32371845 33.15137119 -68.12698888 35.45659052 -74.91699219 42.70361328 Z " fill="#3D79AA" transform="translate(226.6044921875,-0.39111328125)"/>
<path d="M0 0 C6.0099165 -0.04997372 12.01970821 -0.08598724 18.02978516 -0.10986328 C20.06821809 -0.11983195 22.10663706 -0.13341176 24.14501953 -0.15087891 C62.57240715 -0.47157875 62.57240715 -0.47157875 77.5 13.875 C102.10377006 40.60948871 107.83712293 87.16211848 107.18359375 122.18359375 C106.45638078 137.30033997 104.23980637 151.46352102 100 166 C99.75652832 166.85207031 99.51305664 167.70414063 99.26220703 168.58203125 C93.22725882 189.3176936 84.87512368 210.46083405 66.1015625 222.4921875 C56.11503209 227.34710027 46.48499726 227.41478031 35.61669922 227.34057617 C33.87140416 227.33972874 32.12610804 227.34020731 30.3808136 227.34190369 C25.66865114 227.34276053 20.95672017 227.3251853 16.24461126 227.30418181 C11.31055739 227.28536301 6.37649756 227.28366048 1.44241333 227.28010559 C-7.88941192 227.27080037 -17.22113109 227.24620728 -26.55290973 227.21605712 C-37.18170315 227.1824656 -47.81050177 227.16601517 -58.43933511 227.15097082 C-80.29295077 227.11965632 -102.14646494 227.06631762 -124 227 C-124 231.62 -124 236.24 -124 241 C-87.37 241 -50.74 241 -13 241 C-13 304.10665584 -13 304.10665584 -26.00390625 318.19140625 C-45.0970848 335.4910964 -70.12083549 342.67976305 -95 347 C-95.68175293 347.11859375 -96.36350586 347.2371875 -97.06591797 347.359375 C-130.47400506 352.86053514 -165.89100429 348.09142119 -197 335 C-198.56621094 334.34257813 -198.56621094 334.34257813 -200.1640625 333.671875 C-214.68627185 327.00468654 -227.21950496 316.5472089 -233.4375 301.5625 C-235.15451015 296.88884456 -236.12366427 292.82084297 -236.14717102 287.82301331 C-236.15432632 286.77611832 -236.16148163 285.72922333 -236.16885376 284.65060425 C-236.17154266 283.50721588 -236.17423157 282.36382751 -236.17700195 281.18579102 C-236.18357315 279.97713882 -236.19014435 278.76848663 -236.19691467 277.52320862 C-236.21664925 273.51677196 -236.22831886 269.51037537 -236.23828125 265.50390625 C-236.24233143 264.11985696 -236.24644843 262.73580786 -236.25063133 261.35175896 C-236.26968064 254.84253608 -236.28390765 248.33332447 -236.2922433 241.8240791 C-236.30199065 234.33781807 -236.32824523 226.85185469 -236.36874419 219.3656984 C-236.39904373 213.56333705 -236.41372551 207.76106028 -236.41702431 201.95862144 C-236.41936067 198.50125172 -236.4281329 195.0442 -236.45348549 191.58691597 C-236.4814011 187.71743725 -236.47689309 183.84833977 -236.4699707 179.97875977 C-236.48278076 178.85358948 -236.49559082 177.72841919 -236.50878906 176.56915283 C-236.40534716 160.59551833 -230.20228639 147.83015672 -219.4140625 136.3203125 C-205.6507269 123.09147537 -189.89401459 119.68599599 -171.35351562 119.72875977 C-170.1518425 119.72353302 -168.95016937 119.71830627 -167.71208191 119.71292114 C-164.45379597 119.70010825 -161.19562112 119.69563627 -157.93731499 119.69407773 C-154.50362084 119.68956136 -151.07000233 119.67153498 -147.63635254 119.65428162 C-137.44753539 119.60540288 -127.25867448 119.57425229 -117.06976318 119.55297852 C-109.13647495 119.53639405 -101.20332993 119.51343109 -93.27013731 119.46995777 C-89.86386644 119.4518756 -86.45779089 119.4395487 -83.0514679 119.44125557 C-79.24962717 119.44106239 -75.4482523 119.42271463 -71.64648438 119.40063477 C-70.53963791 119.40521194 -69.43279144 119.40978912 -68.29240417 119.414505 C-49.59231351 119.24283192 -33.98028042 111.30522238 -20.3125 98.8125 C-15.61928513 93.8936498 -12.34813222 87.87019689 -9 82 C-8.36191406 80.89591797 -8.36191406 80.89591797 -7.7109375 79.76953125 C-1.3977504 68.08290628 -0.87027721 55.16478492 -0.68359375 42.1875 C-0.6524221 40.37330566 -0.6524221 40.37330566 -0.62062073 38.52246094 C-0.55554957 34.6816951 -0.49643848 30.84086436 -0.4375 27 C-0.39427439 24.3867122 -0.35065884 21.77343082 -0.30664062 19.16015625 C-0.19991196 12.77350491 -0.09806888 6.38678987 0 0 Z M-79.80859375 279.15234375 C-83.04433336 284.17039238 -83.38422042 289.05837236 -82.53515625 294.796875 C-80.98143777 301.19320508 -77.23944324 305.25754054 -72 309 C-67.36437803 311.70411282 -62.21765228 311.53686454 -57 311 C-50.59939195 308.7054424 -45.91061347 304.09251156 -42.73828125 298.07421875 C-40.83972515 292.74018018 -41.08074503 287.53154199 -43 282.24609375 C-46.00509424 276.51763285 -49.45563066 273.28921332 -55.41796875 270.77734375 C-65.30071138 267.80205512 -73.55231504 271.12316862 -79.80859375 279.15234375 Z " fill="#FEDE58" transform="translate(355,118)"/>
<path d="M0 0 C1.22094864 -0.00029205 2.44189728 -0.00058411 3.69984436 -0.00088501 C7.00698076 0.00025921 10.31385895 0.01020147 13.62094975 0.02426291 C17.09224225 0.03687332 20.56353919 0.03794881 24.03485107 0.04031372 C30.58997944 0.04649849 37.14504009 0.06286808 43.70013881 0.0830127 C51.17064023 0.1054659 58.64114509 0.11638868 66.11167192 0.12640357 C81.46218231 0.14723743 96.81262535 0.18235415 112.16308594 0.22705078 C110.43568619 2.4084903 109.55458466 3.1652253 106.76203346 3.60622501 C105.3268641 3.60924201 105.3268641 3.60924201 103.86270142 3.61231995 C102.21397285 3.62679169 102.21397285 3.62679169 100.53193665 3.64155579 C99.32563095 3.63697861 98.11932526 3.63240143 96.87646484 3.62768555 C94.97127831 3.63815414 94.97127831 3.63815414 93.02760315 3.64883423 C90.26436992 3.66395539 87.50132998 3.66972092 84.73805618 3.66830635 C80.36769101 3.66627404 75.99758595 3.68583083 71.62728882 3.70848083 C63.13674517 3.74948129 54.64622186 3.76806332 46.1556015 3.78465271 C35.35529317 3.8069971 24.55504486 3.84057057 13.75483453 3.89185184 C9.41167154 3.91176257 5.06864426 3.92135278 0.7254374 3.922804 C-1.32707889 3.92489388 -3.37952319 3.93144953 -5.43202209 3.93997192 C-7.93289768 3.95023507 -10.43381664 3.95338489 -12.93470764 3.94807434 C-14.03949966 3.95490234 -15.14429169 3.96173035 -16.28256226 3.96876526 C-17.24009588 3.97039956 -18.19762951 3.97203386 -19.18417931 3.97371769 C-22.08910578 4.2511348 -24.2317865 4.92309862 -26.83691406 6.22705078 C-27.16691406 6.88705078 -27.49691406 7.54705078 -27.83691406 8.22705078 C-29.87579279 9.05835327 -31.94418341 9.81793405 -34.02441406 10.53955078 C-41.07422583 13.19287162 -45.56321185 15.31122685 -48.96191406 22.28955078 C-49.23261719 22.94052734 -49.50332031 23.59150391 -49.78222656 24.26220703 C-50.83691406 26.22705078 -50.83691406 26.22705078 -52.67126465 27.91247559 C-64.49065091 40.54464869 -62.76726367 59.30438694 -62.55566406 75.25830078 C-62.54512082 77.94775231 -62.53726709 80.63708297 -62.53283691 83.32653809 C-62.51822875 88.93107039 -62.47843011 94.53492064 -62.41992188 100.13916016 C-62.33768565 108.01939567 -62.30148502 115.89935485 -62.27440548 123.77994633 C-62.23328464 134.94539208 -62.1707814 146.11089356 -62.06152344 157.27587891 C-62.0541214 158.35760376 -62.04671936 159.43932861 -62.03909302 160.55383301 C-61.97153298 166.51759058 -61.60291961 172.31124053 -60.83691406 178.22705078 C-59.84691406 177.89705078 -58.85691406 177.56705078 -57.83691406 177.22705078 C-58.16691406 180.52705078 -58.49691406 183.82705078 -58.83691406 187.22705078 C-64.91868584 179.11802175 -65.28056956 170.60075111 -65.2409668 160.73168945 C-65.24783005 159.5221611 -65.2546933 158.31263275 -65.26176453 157.06645203 C-65.27683744 153.77690683 -65.2785517 150.48772079 -65.27282214 147.19815612 C-65.26971047 144.43766092 -65.27584479 141.67721586 -65.28186089 138.91672784 C-65.29586342 132.39569525 -65.29438162 125.87479378 -65.28295898 119.35375977 C-65.27149163 112.65990764 -65.28553962 105.96645683 -65.31235546 99.27265757 C-65.33461935 93.49562672 -65.34112567 87.71872085 -65.33527905 81.94165021 C-65.33193246 78.50452736 -65.33416871 75.06766135 -65.35153008 71.63057518 C-65.36651864 67.79028447 -65.35570334 63.95086055 -65.33862305 60.1105957 C-65.34829102 58.99485168 -65.35795898 57.87910767 -65.36791992 56.72955322 C-65.22052988 40.78871234 -59.01844261 28.03506117 -48.25097656 16.54736328 C-34.42748803 3.26070926 -18.61876644 -0.11892984 0 0 Z " fill="#FBED9D" transform="translate(183.8369140625,237.77294921875)"/>
<path d="M0 0 C6.0099165 -0.04997372 12.01970821 -0.08598724 18.02978516 -0.10986328 C20.06821809 -0.11983195 22.10663706 -0.13341176 24.14501953 -0.15087891 C62.76693307 -0.47320219 62.76693307 -0.47320219 77.6875 14.1875 C80.32372559 17.00095084 82.7390066 19.87767579 85 23 C84.67 23.66 84.34 24.32 84 25 C79.27842227 20.40603248 79.27842227 20.40603248 77.5 17.8125 C75.59641266 15.51233197 73.75560846 15.0753594 71 14 C69.66666667 12.66666667 68.33333333 11.33333333 67 10 C58.6018581 4.61251274 51.47912461 3.7010107 41.6328125 3.76953125 C40.5574826 3.76998947 39.48215271 3.77044769 38.37423706 3.7709198 C36.11341236 3.7739293 33.8525895 3.78177637 31.59179688 3.79418945 C28.1158116 3.81254853 24.6400914 3.81469826 21.1640625 3.81445312 C18.96614351 3.81936487 16.76822634 3.82519168 14.5703125 3.83203125 C13.00327072 3.83370049 13.00327072 3.83370049 11.40457153 3.83540344 C9.96705032 3.84497322 9.96705032 3.84497322 8.50048828 3.85473633 C7.65334259 3.85854813 6.8061969 3.86235992 5.93338013 3.86628723 C3.99325472 3.78786704 3.99325472 3.78786704 3 5 C2.90146521 6.58003775 2.87201315 8.16445202 2.87060547 9.74755859 C2.86745331 10.75885834 2.86430115 11.77015808 2.86105347 12.81210327 C2.8630777 13.91309357 2.86510193 15.01408386 2.8671875 16.1484375 C2.86623077 17.27190582 2.86527405 18.39537415 2.86428833 19.55288696 C2.86360621 21.93532365 2.86546269 24.31776217 2.86962891 26.70019531 C2.87496676 30.35225603 2.8696901 34.00419319 2.86328125 37.65625 C2.86394222 39.96614611 2.86522378 42.27604213 2.8671875 44.5859375 C2.86516327 45.68287933 2.86313904 46.77982117 2.86105347 47.91000366 C2.86420563 48.92760773 2.86735779 49.94521179 2.87060547 50.99365234 C2.87140106 51.88998383 2.87219666 52.78631531 2.87301636 53.70980835 C2.90828908 56.16357069 2.90828908 56.16357069 4 59 C3.01642648 61.00812926 2.01691264 63.00854609 1 65 C1.33 65.66 1.66 66.32 2 67 C1.2578125 69.09375 1.2578125 69.09375 0.125 71.5 C-0.24367188 72.2940625 -0.61234375 73.088125 -0.9921875 73.90625 C-1.6513781 75.27573124 -2.32029254 76.64058509 -3 78 C-3.99 78 -4.98 78 -6 78 C-5.70996094 77.01773438 -5.70996094 77.01773438 -5.4140625 76.015625 C-5.15367187 75.10296875 -4.89328125 74.1903125 -4.625 73.25 C-4.36976563 72.36828125 -4.11453125 71.4865625 -3.8515625 70.578125 C-1.56696006 60.9786028 -0.6856736 51.64961912 -0.5859375 41.796875 C-0.56657135 40.5930719 -0.5472052 39.3892688 -0.5272522 38.14898682 C-0.46804667 34.3493939 -0.42130924 30.54976971 -0.375 26.75 C-0.33676581 24.15493558 -0.29771103 21.55988311 -0.2578125 18.96484375 C-0.16239449 12.64333622 -0.07717897 6.32175514 0 0 Z " fill="#F9EB9A" transform="translate(355,118)"/>
<path d="M0 0 C1.53840127 0.00028257 3.07680267 0.00012277 4.61520386 -0.0004425 C8.76325173 -0.00072775 12.91127029 0.00512471 17.05931139 0.01213145 C21.40480428 0.01841057 25.75029795 0.01897238 30.09579468 0.02015686 C38.31197249 0.02325679 46.5281369 0.03145204 54.74430883 0.04150635 C64.1034902 0.05270917 73.46267223 0.05818842 82.82185864 0.06320179 C102.06272454 0.07363585 121.30357799 0.09120923 140.54443359 0.11352539 C140.54443359 0.44352539 140.54443359 0.77352539 140.54443359 1.11352539 C139.39122116 1.12383286 138.23800873 1.13414032 137.04985046 1.14476013 C126.14856442 1.24278296 115.2473318 1.34554245 104.34613323 1.45286465 C98.74257441 1.50788141 93.13901021 1.56126579 87.53540039 1.61083984 C82.12128804 1.65879884 76.70723391 1.71114996 71.29319191 1.76646614 C69.23410313 1.78674777 67.17499849 1.80548286 65.11588097 1.82259941 C51.4641893 1.90462963 51.4641893 1.90462963 37.85655212 2.89759827 C33.73367846 3.28263054 29.6149488 3.21645093 25.47802734 3.17602539 C24.55965591 3.17223877 23.64128448 3.16845215 22.69508362 3.16455078 C18.82897032 3.14848714 14.96297024 3.12049899 11.09692383 3.09301758 C1.21519923 3.02906364 -8.66883885 2.99761556 -18.54541016 3.36352539 C-19.64061729 3.38467407 -19.64061729 3.38467407 -20.75794983 3.40625 C-25.59433423 3.63602365 -27.9265052 4.87845152 -31.45556641 8.11352539 C-32.11556641 8.11352539 -32.77556641 8.11352539 -33.45556641 8.11352539 C-33.45556641 7.45352539 -33.45556641 6.79352539 -33.45556641 6.11352539 C-34.19162109 6.47446289 -34.92767578 6.83540039 -35.68603516 7.20727539 C-36.66185547 7.67133789 -37.63767578 8.13540039 -38.64306641 8.61352539 C-39.60599609 9.07758789 -40.56892578 9.54165039 -41.56103516 10.01977539 C-44.44479334 11.1094546 -46.40911502 11.33630063 -49.45556641 11.11352539 C-42.4800159 2.97538314 -28.6173541 1.29077564 -18.47792435 0.31741524 C-12.32638463 -0.09757085 -6.16237349 -0.01596153 0 0 Z " fill="#A3CBDB" transform="translate(89.45556640625,117.886474609375)"/>
<path d="M0 0 C0.99 0 1.98 0 3 0 C2.99907821 0.6204592 2.99815641 1.24091841 2.99720669 1.88017941 C2.97508437 17.00483882 2.95855578 32.12949325 2.94818783 47.2541647 C2.9430402 54.56845622 2.9360268 61.88273691 2.92456055 69.19702148 C2.91456678 75.57507541 2.90813543 81.95312148 2.90591151 88.33118302 C2.90461235 91.70564086 2.9015771 95.08007627 2.89426994 98.4545269 C2.88699289 102.22938228 2.88601188 106.00419145 2.88647461 109.77905273 C2.88287933 110.88748535 2.87928406 111.99591797 2.87557983 113.13793945 C2.8835703 119.17671086 3.20998587 125.01173548 4 131 C4.99 130.67 5.98 130.34 7 130 C6.67 133.3 6.34 136.6 6 140 C-0.14101036 131.81198618 -0.43461868 123.25762622 -0.34057617 113.29833984 C-0.34101425 112.06792969 -0.34145233 110.83751953 -0.34190369 109.56982422 C-0.3401834 106.22732425 -0.32523689 102.88539423 -0.30418181 99.54299498 C-0.28530722 96.03833445 -0.28365614 92.53366469 -0.28010559 89.02896118 C-0.27081655 82.40643628 -0.24624583 75.78406164 -0.21605712 69.16160262 C-0.1824147 61.61619094 -0.16600248 54.07077173 -0.15097082 46.5253036 C-0.11969306 31.01678234 -0.06699442 15.50841062 0 0 Z " fill="#F9E58F" transform="translate(119,285)"/>
<path d="M0 0 C0.66 0 1.32 0 2 0 C2 39.27 2 78.54 2 119 C0.515 119.495 0.515 119.495 -1 120 C-1.02332946 104.50160144 -1.04097941 89.00320418 -1.05181217 73.50479221 C-1.05697503 66.30909705 -1.06401753 59.11341278 -1.07543945 51.91772461 C-1.0853866 45.64815306 -1.0918535 39.37858939 -1.09408849 33.10901016 C-1.09539555 29.78734379 -1.09899997 26.46570534 -1.10573006 23.14404488 C-1.11293628 19.44180053 -1.11399112 15.73960369 -1.11352539 12.03735352 C-1.11712067 10.92821091 -1.12071594 9.8190683 -1.12442017 8.67631531 C-1.1230455 7.67365631 -1.12167084 6.67099731 -1.12025452 5.63795471 C-1.12117631 4.76132958 -1.1220981 3.88470446 -1.12304783 2.98151493 C-1 1 -1 1 0 0 Z " fill="#6D93B0" transform="translate(340,56)"/>
<path d="M0 0 C0.66 0.99 1.32 1.98 2 3 C1.34 3 0.68 3 0 3 C0.08378906 3.63808594 0.16757813 4.27617188 0.25390625 4.93359375 C0.35574219 5.75988281 0.45757812 6.58617187 0.5625 7.4375 C0.66691406 8.26121094 0.77132812 9.08492187 0.87890625 9.93359375 C0.91886719 10.61550781 0.95882812 11.29742187 1 12 C0.67 12.33 0.34 12.66 0 13 C-0.15262642 14.74752914 -0.2382871 16.50095568 -0.29711914 18.25415039 C-0.33760376 19.39098267 -0.37808838 20.52781494 -0.4197998 21.69909668 C-0.45786743 22.90312134 -0.49593506 24.107146 -0.53515625 25.34765625 C-0.59262024 26.99743469 -0.59262024 26.99743469 -0.65124512 28.68054199 C-0.79357992 32.80768362 -0.92752554 36.93511111 -1.0625 41.0625 C-1.371875 50.281875 -1.68125 59.50125 -2 69 C34.3 69 70.6 69 108 69 C108 69.33 108 69.66 108 70 C71.37 70 34.74 70 -3 70 C-3.061875 60.6775 -3.12375 51.355 -3.1875 41.75 C-3.21481201 38.83124023 -3.24212402 35.91248047 -3.27026367 32.90527344 C-3.27903665 30.55664482 -3.28667866 28.20801158 -3.29296875 25.859375 C-3.30831665 24.66844238 -3.32366455 23.47750977 -3.33947754 22.25048828 C-3.34189259 14.41607233 -2.26642472 7.50067569 0 0 Z " fill="#698FAD" transform="translate(122,35)"/>
<path d="M0 0 C0.66 0.33 1.32 0.66 2 1 C2 1.66 2 2.32 2 3 C1.0925 3.5775 0.185 4.155 -0.75 4.75 C-4.39839092 7.2758091 -5.78147831 9.24557868 -8 13 C-7.34 13.33 -6.68 13.66 -6 14 C-6.66 14 -7.32 14 -8 14 C-8 14.66 -8 15.32 -8 16 C-9.57421875 17.33203125 -9.57421875 17.33203125 -11.6875 18.8125 C-16.36416043 22.21446007 -20.75949644 25.50058216 -23 31 C-23.66 31 -24.32 31 -25 31 C-23.8527752 21.18485446 -14.25968308 11.23098305 -7 5 C-4.71554157 3.22802464 -2.4080065 1.60533767 0 0 Z " fill="#5391C0" transform="translate(38,129)"/>
<path d="M0 0 C2.4375 0.8125 2.4375 0.8125 5 2 C5.87602366 4.62807097 6.17813969 6.41193653 6.31640625 9.125 C6.35830078 9.91390625 6.40019531 10.7028125 6.44335938 11.515625 C6.48267578 12.33546875 6.52199219 13.1553125 6.5625 14 C6.60568359 14.81984375 6.64886719 15.6396875 6.69335938 16.484375 C6.85692457 19.66221316 7 22.81722966 7 26 C6.01 26.66 5.02 27.32 4 28 C2.98133771 29.65532623 1.98189187 31.32260138 1 33 C-0.6875 34.8125 -0.6875 34.8125 -2 36 C-1.34 36.33 -0.68 36.66 0 37 C-3.28696233 37.79953138 -4.71023192 38.09658936 -8 37 C-9.89212737 36.77820215 -11.78884472 36.59385985 -13.6875 36.4375 C-14.68136719 36.35371094 -15.67523438 36.26992187 -16.69921875 36.18359375 C-17.83810547 36.09271484 -17.83810547 36.09271484 -19 36 C-19 35.67 -19 35.34 -19 35 C-17.91332031 34.85304688 -17.91332031 34.85304688 -16.8046875 34.703125 C-9.56858532 33.5839412 -4.90613689 32.06758894 0.25 26.625 C3.65959444 21.51060834 4.98161569 16.11797687 4 10 C3.09980642 7.77691324 2.06793247 5.74341007 0.875 3.6640625 C0 2 0 2 0 0 Z " fill="#578BB4" transform="translate(183,41)"/>
<path d="M0 0 C1.3399578 3.04535865 0.92663206 4.21238087 -0.1875 7.4375 C-1.85349645 10.71204474 -3.66189833 13.19427799 -6 16 C-6.33 16.99 -6.66 17.98 -7 19 C-8.63671875 20.6484375 -8.63671875 20.6484375 -10.6875 22.375 C-11.40679687 22.98214844 -12.12609375 23.58929688 -12.8671875 24.21484375 C-13.57101562 24.80394531 -14.27484375 25.39304688 -15 26 C-15.58007812 26.51691406 -16.16015625 27.03382813 -16.7578125 27.56640625 C-20.65117521 31 -20.65117521 31 -24 31 C-24 31.66 -24 32.32 -24 33 C-23.34 33.33 -22.68 33.66 -22 34 C-27.445 34.495 -27.445 34.495 -33 35 C-30.3013067 32.3013067 -28.11671265 30.78677926 -24.875 28.875 C-14.19057251 22.11804981 -8.19650435 13.72871977 -2 3 C-1.34 2.01 -0.68 1.02 0 0 Z " fill="#F9E883" transform="translate(348,197)"/>
<path d="M0 0 C-0.61875 0.0825 -1.2375 0.165 -1.875 0.25 C-4.15042479 0.79923543 -4.15042479 0.79923543 -5.125 2.875 C-5.558125 3.926875 -5.558125 3.926875 -6 5 C-8 8 -8 8 -10.625 8.6875 C-11.40875 8.790625 -12.1925 8.89375 -13 9 C-13 9.99 -13 10.98 -13 12 C-15.65228812 13.07525194 -18.28368454 14.09456151 -21 15 C-21.12375 15.598125 -21.2475 16.19625 -21.375 16.8125 C-22.29671512 20.03850291 -24.29628009 21.15355714 -27 23 C-27.66 23 -28.32 23 -29 23 C-27.26726285 15.29894599 -21.93798166 10.12817993 -15.625 5.75 C-3.58092155 -1.79046078 -3.58092155 -1.79046078 0 0 Z " fill="#5E96C0" transform="translate(152,11)"/>
<path d="M0 0 C0.33 0 0.66 0 1 0 C1 18.81 1 37.62 1 57 C-15.17 57 -31.34 57 -48 57 C-48 56.67 -48 56.34 -48 56 C-34.47 56 -20.94 56 -7 56 C-7 55.34 -7 54.68 -7 54 C-4.525 53.505 -4.525 53.505 -2 53 C-0.83772962 47.38304922 -0.77932088 41.84407961 -0.68359375 36.1328125 C-0.66281265 35.09808807 -0.64203156 34.06336365 -0.62062073 32.99728394 C-0.5554718 29.70658726 -0.49640191 26.41581383 -0.4375 23.125 C-0.3942818 20.88801304 -0.35066647 18.65103371 -0.30664062 16.4140625 C-0.19982611 10.94278842 -0.09799663 5.47143874 0 0 Z " fill="#4E7697" transform="translate(104,288)"/>
<path d="M0 0 C0.33 0 0.66 0 1 0 C1.33 6.27 1.66 12.54 2 19 C23.45 19.33 44.9 19.66 67 20 C67 20.33 67 20.66 67 21 C44.89 21 22.78 21 0 21 C0 14.07 0 7.14 0 0 Z " fill="#4B81AC" transform="translate(120,83)"/>
<path d="M0 0 C5.79796 7.20650395 7.54251954 16.64231439 9.8125 25.4375 C10.04372559 26.3140625 10.27495117 27.190625 10.51318359 28.09375 C10.72152832 28.92777344 10.92987305 29.76179688 11.14453125 30.62109375 C11.33378174 31.3680249 11.52303223 32.11495605 11.71801758 32.88452148 C12.02773827 35.20809708 11.71061377 36.7835245 11 39 C7.23042277 30.95239094 5.82598681 24.8746729 6 16 C5.34 16 4.68 16 4 16 C3.67 13.69 3.34 11.38 3 9 C2.01 8.67 1.02 8.34 0 8 C0 5.36 0 2.72 0 0 Z " fill="#F9E78F" transform="translate(444,151)"/>
<path d="M0 0 C1.32 0.33 2.64 0.66 4 1 C3.52949219 1.32871094 3.05898437 1.65742187 2.57421875 1.99609375 C-2.54474479 5.90685472 -5.02803428 9.57657437 -6 16 C-5.97122165 20.4894224 -5.12847532 24.6709352 -4 29 C-5.32 28.67 -6.64 28.34 -8 28 C-10.23803535 20.64133977 -10.13837936 11.06135356 -7 4 C-4.42201811 2.08730376 -3.24244455 2 0 2 C0 1.34 0 0.68 0 0 Z " fill="#709ABA" transform="translate(154,37)"/>
<path d="M0 0 C12.35349406 1.60739908 21.36748703 9.71231875 28.78125 19.3046875 C29.1834375 19.86414063 29.585625 20.42359375 30 21 C29.67 21.66 29.34 22.32 29 23 C24.27842227 18.40603248 24.27842227 18.40603248 22.5 15.8125 C20.59641266 13.51233197 18.75560846 13.0753594 16 12 C14.66666667 10.66666667 13.33333333 9.33333333 12 8 C8.21755179 5.4965091 4.26452008 3.55073458 0 2 C0 1.34 0 0.68 0 0 Z " fill="#F9EC9C" transform="translate(410,120)"/>
<path d="M0 0 C0.15082031 0.6084375 0.30164063 1.216875 0.45703125 1.84375 C0.84904277 3.40051517 1.26182755 4.9521002 1.6875 6.5 C2 9 2 9 1.08203125 10.78076172 C-0.25741424 13.52795475 -0.58604796 15.98125023 -1 19.0078125 C-1.165 20.15894531 -1.33 21.31007812 -1.5 22.49609375 C-1.83438974 24.92303176 -2.16771648 27.35011647 -2.5 29.77734375 C-2.665 30.92589844 -2.83 32.07445312 -3 33.2578125 C-3.144375 34.3111377 -3.28875 35.36446289 -3.4375 36.44970703 C-4 39 -4 39 -6 41 C-5.77033264 26.99029134 -2.96437746 13.65410222 0 0 Z " fill="#85ACC9" transform="translate(6,179)"/>
<path d="M0 0 C0 0.33 0 0.66 0 1 C-0.59167969 1.09796875 -1.18335937 1.1959375 -1.79296875 1.296875 C-6.93365713 2.26966432 -10.04086273 3.4007843 -14 7 C-14.66 7 -15.32 7 -16 7 C-16 6.34 -16 5.68 -16 5 C-16.73605469 5.3609375 -17.47210938 5.721875 -18.23046875 6.09375 C-19.20628906 6.5578125 -20.18210937 7.021875 -21.1875 7.5 C-22.15042969 7.9640625 -23.11335938 8.428125 -24.10546875 8.90625 C-26.98922693 9.99592921 -28.95354861 10.22277524 -32 10 C-24.83209954 1.63744946 -10.43898692 -0.37959952 0 0 Z " fill="#78A6C8" transform="translate(72,119)"/>
<path d="M0 0 C0.91007812 0.00902344 1.82015625 0.01804687 2.7578125 0.02734375 C3.80582031 0.04474609 3.80582031 0.04474609 4.875 0.0625 C4.875 0.3925 4.875 0.7225 4.875 1.0625 C-7.7607535 5.35967933 -20.96782627 4.34977454 -34.125 4.0625 C-34.455 3.4025 -34.785 2.7425 -35.125 2.0625 C-34.28727051 2.03744385 -33.44954102 2.0123877 -32.58642578 1.98657227 C-29.48147744 1.89149643 -26.37669819 1.79225975 -23.27197266 1.69018555 C-21.26605193 1.62551749 -19.25997772 1.56566894 -17.25390625 1.50585938 C-15.36865234 1.44301758 -15.36865234 1.44301758 -13.4453125 1.37890625 C-12.28273926 1.34224854 -11.12016602 1.30559082 -9.92236328 1.26782227 C-6.36263333 1.00654343 -3.6989321 -0.04742221 0 0 Z " fill="#F9DE7B" transform="translate(251.125,462.9375)"/>
<path d="M0 0 C2.4375 0.8125 2.4375 0.8125 5 2 C5.87602366 4.62807097 6.17813969 6.41193653 6.31640625 9.125 C6.35830078 9.91390625 6.40019531 10.7028125 6.44335938 11.515625 C6.48267578 12.33546875 6.52199219 13.1553125 6.5625 14 C6.60568359 14.81984375 6.64886719 15.6396875 6.69335938 16.484375 C6.85692457 19.66221316 7 22.81722966 7 26 C5.03533587 27.06775224 3.03144641 28.06553465 1 29 C0.34 28.67 -0.32 28.34 -1 28 C-0.0409375 26.63875 -0.0409375 26.63875 0.9375 25.25 C4.05039302 20.34483525 4.80809098 15.81405722 4 10 C3.1049363 7.7721122 2.06906507 5.74538426 0.875 3.6640625 C0 2 0 2 0 0 Z " fill="#739CBC" transform="translate(183,41)"/>
<path d="M0 0 C0.721875 0.103125 1.44375 0.20625 2.1875 0.3125 C1.9375 2.1875 1.9375 2.1875 1.1875 4.3125 C-0.8125 5.4375 -0.8125 5.4375 -2.8125 6.3125 C-3.1425 6.9725 -3.4725 7.6325 -3.8125 8.3125 C-7.40403789 10.48097571 -11.02926796 12.49654862 -14.8125 14.3125 C-14.3175 13.4153125 -14.3175 13.4153125 -13.8125 12.5 C-12.60462012 10.25863529 -12.60462012 10.25863529 -12.8125 7.3125 C-11.7296875 6.9721875 -11.7296875 6.9721875 -10.625 6.625 C-7.62175886 5.43158844 -7.62175886 5.43158844 -5.3125 2.6875 C-2.8125 0.3125 -2.8125 0.3125 0 0 Z " fill="#4B8CBF" transform="translate(44.8125,127.6875)"/>
<path d="M0 0 C4.28904235 1.5885342 6.32345526 4.43127368 9 8 C9 8.66 9 9.32 9 10 C10.051875 10.0309375 10.051875 10.0309375 11.125 10.0625 C15.3793624 11.44979209 17.35307139 14.51624172 20 18 C14.05655682 18 9.25415994 12.37661492 5.125 8.4375 C2.58057457 5.82931904 0.97699933 3.58233089 0 0 Z " fill="#7197B6" transform="translate(21,320)"/>
<path d="M0 0 C0 0.33 0 0.66 0 1 C-2.31 1 -4.62 1 -7 1 C-7 1.66 -7 2.32 -7 3 C-11.29 3 -15.58 3 -20 3 C-20 3.66 -20 4.32 -20 5 C-26.25948114 7.13391403 -32.42208127 7.58955515 -39 8 C-36.18170351 6.12113567 -34.5710809 5.50102776 -31.359375 4.74609375 C-30.45316406 4.53146484 -29.54695312 4.31683594 -28.61328125 4.09570312 C-27.66839844 3.87849609 -26.72351563 3.66128906 -25.75 3.4375 C-24.82058594 3.21642578 -23.89117187 2.99535156 -22.93359375 2.76757812 C-15.21605473 0.96099721 -7.92789375 -0.13908586 0 0 Z " fill="#8BB0CC" transform="translate(192,2)"/>
<path d="M0 0 C-1 3 -1 3 -3.8125 4.625 C-9.16826417 6.93532964 -13.19999855 7.09666669 -19 7 C-19 6.34 -19 5.68 -19 5 C-18.19175781 4.80664062 -17.38351562 4.61328125 -16.55078125 4.4140625 C-15.48214844 4.15367187 -14.41351563 3.89328125 -13.3125 3.625 C-12.25675781 3.36976563 -11.20101563 3.11453125 -10.11328125 2.8515625 C-6.74248396 1.92956274 -3.48820311 0 0 0 Z " fill="#F8EA94" transform="translate(315,232)"/>
<path d="M0 0 C2.75059381 -0.08107646 5.49879021 -0.14052813 8.25 -0.1875 C9.02730469 -0.21263672 9.80460938 -0.23777344 10.60546875 -0.26367188 C16.42997175 -0.33834499 16.42997175 -0.33834499 19.546875 1.51171875 C20.02640625 2.00285156 20.5059375 2.49398437 21 3 C20.67 4.32 20.34 5.64 20 7 C19.39414063 6.65066406 18.78828125 6.30132812 18.1640625 5.94140625 C12.04585798 2.61875057 6.9570902 1.16282552 0 1 C0 0.67 0 0.34 0 0 Z " fill="#7FA6C6" transform="translate(163,34)"/>
<path d="M0 0 C7.59 0 15.18 0 23 0 C23 0.33 23 0.66 23 1 C22.10796875 1.04898438 21.2159375 1.09796875 20.296875 1.1484375 C19.12640625 1.22320312 17.9559375 1.29796875 16.75 1.375 C15.00976562 1.47941406 15.00976562 1.47941406 13.234375 1.5859375 C10.24537938 1.9685867 8.58087293 2.57130248 6 4 C3.25 4.125 3.25 4.125 1 4 C1 4.66 1 5.32 1 6 C0.34 6 -0.32 6 -1 6 C-0.67 4.02 -0.34 2.04 0 0 Z " fill="#598DB6" transform="translate(153,33)"/>
<path d="M0 0 C0.66 0.33 1.32 0.66 2 1 C1.44570312 1.44730469 0.89140625 1.89460937 0.3203125 2.35546875 C-3.73596278 5.74050987 -6.14179042 7.99712806 -8 13 C-10.625 14.3125 -10.625 14.3125 -13 15 C-13 15.66 -13 16.32 -13 17 C-13.66 17 -14.32 17 -15 17 C-11.80573668 9.96948907 -6.00185406 4.6843739 0 0 Z " fill="#FBEFA8" transform="translate(143,248)"/>
<path d="M0 0 C0.33 0 0.66 0 1 0 C1.52493797 6.16802119 0.0095261 10.6070171 -3 16 C-3.66 16.66 -4.32 17.32 -5 18 C-4.51030705 11.38914524 -2.66557258 6.05022986 0 0 Z " fill="#F9DC75" transform="translate(339,410)"/>
<path d="M0 0 C0.1875 3.375 0.1875 3.375 0 7 C-3 9 -3 9 -5.1875 8.625 C-5.785625 8.41875 -6.38375 8.2125 -7 8 C-4.73913043 0 -4.73913043 0 0 0 Z " fill="#45759D" transform="translate(319,208)"/>
<path d="M0 0 C0.91531741 2.96206885 1.06377282 3.81665313 0 6.875 C-2.46325365 10.72383383 -5.41140497 13.22744165 -9 16 C-7.30523158 12.47351217 -5.35497316 9.1232876 -3.375 5.75 C-2.74335938 4.67234375 -2.11171875 3.5946875 -1.4609375 2.484375 C-0.73777344 1.25460938 -0.73777344 1.25460938 0 0 Z " fill="#FAEDA1" transform="translate(348,197)"/>
<path d="M0 0 C4.75991185 2.4520758 8.57829431 5.90775833 12 10 C12 10.66 12 11.32 12 12 C10.68 12 9.36 12 8 12 C7.67 10.35 7.34 8.7 7 7 C5.68 7 4.36 7 3 7 C2.87625 6.360625 2.7525 5.72125 2.625 5.0625 C2.315625 4.0415625 2.315625 4.0415625 2 3 C1.34 2.67 0.68 2.34 0 2 C0 1.34 0 0.68 0 0 Z " fill="#7598B6" transform="translate(318,18)"/>
<path d="M0 0 C4.2829452 0.5479083 6.85135641 2.02432804 10.3125 4.5625 C11.19550781 5.20316406 12.07851562 5.84382813 12.98828125 6.50390625 C13.65214844 6.99761719 14.31601563 7.49132812 15 8 C14.01 8.495 14.01 8.495 13 9 C10.46875 7.890625 10.46875 7.890625 7.5 6.25 C6.5203125 5.71890625 5.540625 5.1878125 4.53125 4.640625 C2 3 2 3 0 0 Z " fill="#F7E692" transform="translate(141,442)"/>
<path d="M0 0 C0.66 0 1.32 0 2 0 C2.33 1.98 2.66 3.96 3 6 C3.99 5.67 4.98 5.34 6 5 C5.835 5.53625 5.67 6.0725 5.5 6.625 C4.90339788 9.45886009 4.9343632 12.1119806 5 15 C2.68994131 12.68994131 2.27825897 11.16916343 1.375 8.0625 C1.11460938 7.18722656 0.85421875 6.31195313 0.5859375 5.41015625 C0 3 0 3 0 0 Z " fill="#7CA3C3" transform="translate(8,290)"/>
<path d="M0 0 C0.33 0.99 0.66 1.98 1 3 C-0.328125 5.48046875 -0.328125 5.48046875 -2.25 8.1875 C-2.87390625 9.08855469 -3.4978125 9.98960937 -4.140625 10.91796875 C-4.75421875 11.60503906 -5.3678125 12.29210937 -6 13 C-6.99 13 -7.98 13 -9 13 C-7.47987323 7.59510481 -3.72614782 4.01507372 0 0 Z " fill="#8AB1CD" transform="translate(26,139)"/>
<path d="M0 0 C2.4375 0.8125 2.4375 0.8125 5 2 C6.14077657 5.42232972 6.09815117 8.08673217 6.0625 11.6875 C6.05347656 12.86699219 6.04445312 14.04648437 6.03515625 15.26171875 C6.02355469 16.16535156 6.01195312 17.06898437 6 18 C5.67 18 5.34 18 5 18 C4.89042969 17.26394531 4.78085938 16.52789062 4.66796875 15.76953125 C3.82022886 10.55214019 3.11712771 6.39231632 0 2 C0 1.34 0 0.68 0 0 Z " fill="#7AA3C3" transform="translate(183,41)"/>
<path d="M0 0 C1.423125 0.495 1.423125 0.495 2.875 1 C9.0256156 2.76267642 15.82605872 2.64638434 22 1 C20.96484375 2.484375 20.96484375 2.484375 19 4 C16.42795004 4.24579317 14.12358663 4.328576 11.5625 4.25 C10.24378906 4.23453125 8.92507813 4.2190625 7.56640625 4.203125 C4.83176615 4.04737332 2.58741849 3.82056239 0 3 C0 2.01 0 1.02 0 0 Z " fill="#F9E38E" transform="translate(281,426)"/>
<path d="M0 0 C0.33 0 0.66 0 1 0 C1 3.3 1 6.6 1 10 C1.66 10 2.32 10 3 10 C3.66 12.64 4.32 15.28 5 18 C3.68 17.67 2.36 17.34 1 17 C-0.13480527 13.39006828 -0.10015767 10.0157673 -0.0625 6.25 C-0.05347656 5.07953125 -0.04445312 3.9090625 -0.03515625 2.703125 C-0.02355469 1.81109375 -0.01195312 0.9190625 0 0 Z " fill="#719CBE" transform="translate(145,48)"/>
<path d="M0 0 C0.66 0.33 1.32 0.66 2 1 C0.76110404 2.48847937 -0.4915672 3.96550105 -1.75 5.4375 C-2.79414063 6.67306641 -2.79414063 6.67306641 -3.859375 7.93359375 C-6.01343015 10.01296451 -7.08310781 10.63867326 -10 11 C-8.55218207 7.55571735 -6.72305391 5.63869038 -3.875 3.25 C-3.15054688 2.63640625 -2.42609375 2.0228125 -1.6796875 1.390625 C-0.84824219 0.70226562 -0.84824219 0.70226562 0 0 Z " fill="#92B5CF" transform="translate(137,16)"/>
<path d="M0 0 C0.66 0 1.32 0 2 0 C2.21824777 6.0018137 1.5056904 11.19233704 0 17 C-0.33 17 -0.66 17 -1 17 C-1.18451025 5.47835991 -1.18451025 5.47835991 0 0 Z " fill="#F9DF7D" transform="translate(457,260)"/>
<path d="M0 0 C0.99 0.495 0.99 0.495 2 1 C2 2.32 2 3.64 2 5 C2.66 5 3.32 5 4 5 C3.88648483 6.81325551 3.75887039 8.62563357 3.625 10.4375 C3.55539062 11.44683594 3.48578125 12.45617187 3.4140625 13.49609375 C3.27742188 14.32238281 3.14078125 15.14867187 3 16 C2.34 16.33 1.68 16.66 1 17 C0.67 11.39 0.34 5.78 0 0 Z " fill="#F8D24C" transform="translate(313,399)"/>
<path d="M0 0 C0.33 0 0.66 0 1 0 C0.85930804 2.12534659 0.71229079 4.25027529 0.5625 6.375 C0.48128906 7.55835938 0.40007812 8.74171875 0.31640625 9.9609375 C0 13 0 13 -1 15 C-1.99 15 -2.98 15 -4 15 C-3.79503906 14.25234375 -3.59007812 13.5046875 -3.37890625 12.734375 C-3.10949219 11.74953125 -2.84007812 10.7646875 -2.5625 9.75 C-2.29566406 8.77546875 -2.02882813 7.8009375 -1.75390625 6.796875 C-1.14455416 4.53627347 -0.55761745 2.27377991 0 0 Z " fill="#F9EEA5" transform="translate(353,181)"/>
<path d="M0 0 C5.841744 -0.35050464 9.8531808 -0.16727335 15 3 C11.34142468 4.31534494 8.91973519 3.65468309 5.25 2.5625 C4.26515625 2.27503906 3.2803125 1.98757813 2.265625 1.69140625 C1.51796875 1.46324219 0.7703125 1.23507812 0 1 C0 0.67 0 0.34 0 0 Z " fill="#F7E38C" transform="translate(174,458)"/>
<path d="M0 0 C-0.33 1.65 -0.66 3.3 -1 5 C-3.31 5 -5.62 5 -8 5 C-8 4.34 -8 3.68 -8 3 C-2.25 0 -2.25 0 0 0 Z " fill="#457296" transform="translate(305,218)"/>
<path d="M0 0 C0.33 0 0.66 0 1 0 C1.27429625 5.39449293 1.36055646 8.51925805 -2 13 C-3.18771723 9.57056481 -2.80226223 7.62215325 -1.5625 4.25 C-1.27503906 3.45078125 -0.98757812 2.6515625 -0.69140625 1.828125 C-0.46324219 1.22484375 -0.23507813 0.6215625 0 0 Z " fill="#F9EFA3" transform="translate(123,272)"/>
<path d="M0 0 C1.65 0 3.3 0 5 0 C4.04367001 1.29315061 3.08486149 2.58446853 2.125 3.875 C1.59132813 4.59429687 1.05765625 5.31359375 0.5078125 6.0546875 C-1 8 -1 8 -3 10 C-3 8.68 -3 7.36 -3 6 C-2.34 6 -1.68 6 -1 6 C-0.67 4.02 -0.34 2.04 0 0 Z " fill="#749ABC" transform="translate(120,247)"/>
<path d="M0 0 C0.99 0.495 0.99 0.495 2 1 C2.6328125 3.6171875 2.6328125 3.6171875 3.125 6.875 C3.29257813 7.94492188 3.46015625 9.01484375 3.6328125 10.1171875 C4 13 4 13 4 16 C3.34 16.33 2.68 16.66 2 17 C1.66151348 15.10507994 1.32943089 13.20901534 1 11.3125 C0.814375 10.25675781 0.62875 9.20101562 0.4375 8.11328125 C0.04931926 5.35095938 -0.08259976 2.78257957 0 0 Z " fill="#4784B4" transform="translate(1,241)"/>
<path d="M0 0 C0.66 0.33 1.32 0.66 2 1 C1.67 1.99 1.34 2.98 1 4 C1.66 4.33 2.32 4.66 3 5 C-0.63 5.33 -4.26 5.66 -8 6 C-5.36435544 3.36435544 -3.27929831 1.68169144 0 0 Z " fill="#FCEB99" transform="translate(323,226)"/>
<path d="M0 0 C0.99 0.33 1.98 0.66 3 1 C3 1.66 3 2.32 3 3 C3.66 3.33 4.32 3.66 5 4 C4.01 4 3.02 4 2 4 C2 5.65 2 7.3 2 9 C1.34 9 0.68 9 0 9 C0 8.34 0 7.68 0 7 C-0.66 6.67 -1.32 6.34 -2 6 C-1.34 4.02 -0.68 2.04 0 0 Z " fill="#336696" transform="translate(323,200)"/>
<path d="M0 0 C2.94751667 2.74423966 5.22773678 5.36219655 7 9 C6.67 9.99 6.34 10.98 6 12 C5.67 10.68 5.34 9.36 5 8 C4.01 8 3.02 8 2 8 C1.34 5.36 0.68 2.72 0 0 Z " fill="#779BB6" transform="translate(330,30)"/>
<path d="M0 0 C1.231394 3.69418201 0.64432764 6.2056261 0 10 C-2.50298434 7.06171403 -3.46930939 4.82097239 -4 1 C-2.68 0.67 -1.36 0.34 0 0 Z " fill="#FAE587" transform="translate(125,415)"/>
<path d="M0 0 C-2.52956528 3.0916909 -5.22454612 3.90931332 -9 5 C-8.6875 3.0625 -8.6875 3.0625 -8 1 C-5.07175348 0.02391783 -3.04386724 -0.08226668 0 0 Z " fill="#6F93AF" transform="translate(314,217)"/>
<path d="M0 0 C0.66 0 1.32 0 2 0 C1.49381745 4.38691545 -1.13082981 6.84391279 -4 10 C-4.33 10 -4.66 10 -5 10 C-5 8.35 -5 6.7 -5 5 C-4.01 5 -3.02 5 -2 5 C-2 4.34 -2 3.68 -2 3 C-1.34 3 -0.68 3 0 3 C0 2.01 0 1.02 0 0 Z " fill="#7198B1" transform="translate(330,199)"/>
<path d="M0 0 C0.66 0.33 1.32 0.66 2 1 C2 1.66 2 2.32 2 3 C-1.07115285 5.95303159 -3.8333396 6.52651586 -8 7 C-5.42215154 4.35247996 -3.08351902 2.05567935 0 0 Z " fill="#83ACC8" transform="translate(38,129)"/>
<path d="M0 0 C2.64 1.98 5.28 3.96 8 6 C6 7 6 7 4.0546875 6.44140625 C3.33539063 6.15136719 2.61609375 5.86132812 1.875 5.5625 C1.15054688 5.27503906 0.42609375 4.98757812 -0.3203125 4.69140625 C-0.87460938 4.46324219 -1.42890625 4.23507813 -2 4 C-1.34 2.68 -0.68 1.36 0 0 Z " fill="#76A6C9" transform="translate(150,67)"/>
<path d="M0 0 C0 0.99 0 1.98 0 3 C-0.66 3 -1.32 3 -2 3 C-2.33 4.32 -2.66 5.64 -3 7 C-4.32 6.67 -5.64 6.34 -7 6 C-5.9024777 3.00675737 -5.32317108 2.15389099 -2.375 0.75 C-1.59125 0.5025 -0.8075 0.255 0 0 Z " fill="#336894" transform="translate(335,191)"/>
<path d="M0 0 C1.46015291 0.28241641 2.91809793 0.57626614 4.375 0.875 C5.18710937 1.03742187 5.99921875 1.19984375 6.8359375 1.3671875 C9 2 9 2 11 4 C5.65924276 5.21380846 5.65924276 5.21380846 2.6875 4.25 C1 3 1 3 0 0 Z " fill="#7A9FBB" transform="translate(293,6)"/>
<path d="M0 0 C0.66 0.66 1.32 1.32 2 2 C1.79107816 5.27310883 1.56305786 7.32433057 -0.5625 9.875 C-1.036875 10.24625 -1.51125 10.6175 -2 11 C-1.125 3.375 -1.125 3.375 0 0 Z " fill="#7EA8C9" transform="translate(9,168)"/>
<path d="M0 0 C3.48749314 2.78999451 6.50157221 5.25235831 9 9 C8.67 9.66 8.34 10.32 8 11 C2.19794344 5.35475578 2.19794344 5.35475578 0 2 C0 1.34 0 0.68 0 0 Z " fill="#FCEEAA" transform="translate(431,132)"/>
<path d="M0 0 C0.66 0.99 1.32 1.98 2 3 C1.34 3 0.68 3 0 3 C0.33 5.97 0.66 8.94 1 12 C0.01 12 -0.98 12 -2 12 C-1.85904936 10.3745692 -1.71207913 8.74965949 -1.5625 7.125 C-1.48128906 6.22007813 -1.40007812 5.31515625 -1.31640625 4.3828125 C-1 2 -1 2 0 0 Z " fill="#8AAFCA" transform="translate(122,35)"/>
<path d="M0 0 C0.66 0.33 1.32 0.66 2 1 C1.360625 1.103125 0.72125 1.20625 0.0625 1.3125 C-0.618125 1.539375 -1.29875 1.76625 -2 2 C-2.33 2.99 -2.66 3.98 -3 5 C-4.9375 5.8125 -4.9375 5.8125 -7 6 C-7.66 5.34 -8.32 4.68 -9 4 C-7.54618103 3.30300448 -6.08677047 2.61766134 -4.625 1.9375 C-3.40683594 1.36322266 -3.40683594 1.36322266 -2.1640625 0.77734375 C-1.44992188 0.52082031 -0.73578125 0.26429687 0 0 Z " fill="#82ACCB" transform="translate(150,10)"/>
<path d="M0 0 C3.63 0 7.26 0 11 0 C7.09567131 1.95216435 4.27786748 2.50639991 0 3 C0 2.01 0 1.02 0 0 Z " fill="#F9E080" transform="translate(272,459)"/>
<path d="M0 0 C2.475 0.495 2.475 0.495 5 1 C4.67 2.65 4.34 4.3 4 6 C2 4.6875 2 4.6875 0 3 C0 2.01 0 1.02 0 0 Z " fill="#3573A7" transform="translate(321,26)"/>
<path d="M0 0 C-6.4 3.07692308 -6.4 3.07692308 -9.4375 2.6875 C-9.953125 2.460625 -10.46875 2.23375 -11 2 C-3.57142857 -1.57142857 -3.57142857 -1.57142857 0 0 Z " fill="#FBF0A9" transform="translate(163,241)"/>
<path d="M0 0 C-0.33 0.99 -0.66 1.98 -1 3 C-4.96 3 -8.92 3 -13 3 C-13 2.67 -13 2.34 -13 2 C-11.20873548 1.66451233 -9.41697413 1.33167645 -7.625 1 C-6.62726563 0.814375 -5.62953125 0.62875 -4.6015625 0.4375 C-2 0 -2 0 0 0 Z " fill="#83A7C3" transform="translate(177,74)"/>
<path d="M0 0 C0.99 0 1.98 0 3 0 C2.8125 2.3125 2.8125 2.3125 2 5 C-0.5625 6.8125 -0.5625 6.8125 -3 8 C-3 7.01 -3 6.02 -3 5 C-2.01 4.67 -1.02 4.34 0 4 C0 2.68 0 1.36 0 0 Z " fill="#F9E288" transform="translate(326,432)"/>
<path d="M0 0 C0.99 0.33 1.98 0.66 3 1 C1.68 2.65 0.36 4.3 -1 6 C-1.99 5.67 -2.98 5.34 -4 5 C-3.34 4.01 -2.68 3.02 -2 2 C-1.34 2 -0.68 2 0 2 C0 1.34 0 0.68 0 0 Z " fill="#F9D442" transform="translate(308,423)"/>
<path d="M0 0 C0 0.99 0 1.98 0 3 C-2.64 3.33 -5.28 3.66 -8 4 C-5.29881977 1.17603885 -4.05589853 0 0 0 Z " fill="#8CB2CC" transform="translate(48,125)"/>
<path d="M0 0 C0.99 0 1.98 0 3 0 C5 3 5 3 4.625 5.1875 C4.41875 5.785625 4.2125 6.38375 4 7 C0 2.25 0 2.25 0 0 Z " fill="#FAE895" transform="translate(125,425)"/>
<path d="M0 0 C1.0326802 2.78823655 1.04509293 3.8677274 0.0625 6.75 C-0.288125 7.4925 -0.63875 8.235 -1 9 C-1.99 9 -2.98 9 -4 9 C-2.80100302 5.9168649 -1.52299523 2.93720508 0 0 Z " fill="#F7E588" transform="translate(312,414)"/>
<path d="M0 0 C0.66 0 1.32 0 2 0 C2.33 1.98 2.66 3.96 3 6 C1.68 5.67 0.36 5.34 -1 5 C-0.67 3.35 -0.34 1.7 0 0 Z " fill="#FBD448" transform="translate(424,330)"/>
<path d="M0 0 C0.66 0.33 1.32 0.66 2 1 C0.02 3.31 -1.96 5.62 -4 8 C-4.33 7.01 -4.66 6.02 -5 5 C-3.35 3.35 -1.7 1.7 0 0 Z " fill="#FCE77C" transform="translate(141,251)"/>
<path d="M0 0 C0.66 0.33 1.32 0.66 2 1 C1.25 6.75 1.25 6.75 -1 9 C-1.09765625 2.84765625 -1.09765625 2.84765625 -1 1 C-0.67 0.67 -0.34 0.34 0 0 Z " fill="#6A90AD" transform="translate(337,184)"/>
<path d="M0 0 C0.66 0.99 1.32 1.98 2 3 C0.625 5.5 0.625 5.5 -1 8 C-1.66 8 -2.32 8 -3 8 C-2.45276317 4.62537285 -1.9451 2.91765 0 0 Z " fill="#8AAFCB" transform="translate(16,152)"/>
<path d="M0 0 C-1.65 1.65 -3.3 3.3 -5 5 C-6.32 4.34 -7.64 3.68 -9 3 C-5.92807025 0.26939578 -4.09590633 -0.34132553 0 0 Z " fill="#4D8AB8" transform="translate(157,10)"/>
<path d="M0 0 C0.66 0.33 1.32 0.66 2 1 C1.67 2.65 1.34 4.3 1 6 C0.34 6 -0.32 6 -1 6 C-1.33 4.35 -1.66 2.7 -2 1 C-1.34 0.67 -0.68 0.34 0 0 Z " fill="#F9DB65" transform="translate(428,329)"/>
<path d="M0 0 C1.9375 0.6875 1.9375 0.6875 4 2 C4.75 4.625 4.75 4.625 5 7 C3.29115995 5.37660195 1.62553283 3.70680947 0 2 C0 1.34 0 0.68 0 0 Z " fill="#83A8C2" transform="translate(21,320)"/>
<path d="M0 0 C3 1 3 1 4.6875 4.0625 C5.120625 5.031875 5.55375 6.00125 6 7 C5.01 7 4.02 7 3 7 C0 2.77777778 0 2.77777778 0 0 Z " fill="#83A7C1" transform="translate(16,312)"/>
<path d="M0 0 C0.99 0 1.98 0 3 0 C2.34 2.64 1.68 5.28 1 8 C-0.42944945 5.64561267 -1.08661261 4.51967567 -0.625 1.75 C-0.41875 1.1725 -0.2125 0.595 0 0 Z " fill="#789CB7" transform="translate(109,265)"/>
<path d="M0 0 C0.66 0.66 1.32 1.32 2 2 C1.67028521 5.29714793 1.3773161 6.6226839 -1 9 C-1.125 2.25 -1.125 2.25 0 0 Z " fill="#5891BE" transform="translate(1,218)"/>
<path d="M0 0 C0.99 0 1.98 0 3 0 C3 1.65 3 3.3 3 5 C1.68 5.33 0.36 5.66 -1 6 C-0.67 4.02 -0.34 2.04 0 0 Z " fill="#5181A3" transform="translate(338,176)"/>
<path d="M0 0 C1.32 0.33 2.64 0.66 4 1 C1.69 2.65 -0.62 4.3 -3 6 C-3.33 5.01 -3.66 4.02 -4 3 C-2.68 2.67 -1.36 2.34 0 2 C0 1.34 0 0.68 0 0 Z " fill="#97BAD4" transform="translate(154,37)"/>
<path d="" fill="#FFFFFF" transform="translate(0,0)"/>
<path d="" fill="#FFFFFF" transform="translate(0,0)"/>
<path d="" fill="#FFFFFF" transform="translate(0,0)"/>
<path d="" fill="#FFFFFF" transform="translate(0,0)"/>
<path d="" fill="#FFFFFF" transform="translate(0,0)"/>
<path d="" fill="#FFFFFF" transform="translate(0,0)"/>
<path d="" fill="#FFFFFF" transform="translate(0,0)"/>
<path d="" fill="#FFFFFF" transform="translate(0,0)"/>
<path d="" fill="#FFFFFF" transform="translate(0,0)"/>
<path d="" fill="#FFFFFF" transform="translate(0,0)"/>
<path d="" fill="#FFFFFF" transform="translate(0,0)"/>
<path d="" fill="#FFFFFF" transform="translate(0,0)"/>
<path d="" fill="#FFFFFF" transform="translate(0,0)"/>
<path d="" fill="#FFFFFF" transform="translate(0,0)"/>
<path d="" fill="#FFFFFF" transform="translate(0,0)"/>
<path d="" fill="#FFFFFF" transform="translate(0,0)"/>
<path d="" fill="#FFFFFF" transform="translate(0,0)"/>
<path d="" fill="#FFFFFF" transform="translate(0,0)"/>
<path d="" fill="#FFFFFF" transform="translate(0,0)"/>
<path d="" fill="#FFFFFF" transform="translate(0,0)"/>
<path d="" fill="#FFFFFF" transform="translate(0,0)"/>
<path d="" fill="#FFFFFF" transform="translate(0,0)"/>
<path d="" fill="#FFFFFF" transform="translate(0,0)"/>
<path d="" fill="#FFFFFF" transform="translate(0,0)"/>
<path d="" fill="#FFFFFF" transform="translate(0,0)"/>
<path d="" fill="#FFFFFF" transform="translate(0,0)"/>
<path d="" fill="#FFFFFF" transform="translate(0,0)"/>
<path d="" fill="#FFFFFF" transform="translate(0,0)"/>
<path d="" fill="#FFFFFF" transform="translate(0,0)"/>
<path d="" fill="#FFFFFF" transform="translate(0,0)"/>
<path d="" fill="#FFFFFF" transform="translate(0,0)"/>
<path d="" fill="#FFFFFF" transform="translate(0,0)"/>
<path d="" fill="#FFFFFF" transform="translate(0,0)"/>
<path d="" fill="#FFFFFF" transform="translate(0,0)"/>
<path d="" fill="#FFFFFF" transform="translate(0,0)"/>
<path d="" fill="#FFFFFF" transform="translate(0,0)"/>
<path d="" fill="#FFFFFF" transform="translate(0,0)"/>
<path d="" fill="#FFFFFF" transform="translate(0,0)"/>
<path d="" fill="#FFFFFF" transform="translate(0,0)"/>
<path d="" fill="#FFFFFF" transform="translate(0,0)"/>
<path d="" fill="#FFFFFF" transform="translate(0,0)"/>
<path d="" fill="#FFFFFF" transform="translate(0,0)"/>
<path d="" fill="#FFFFFF" transform="translate(0,0)"/>
<path d="" fill="#FFFFFF" transform="translate(0,0)"/>
<path d="" fill="#FFFFFF" transform="translate(0,0)"/>
<path d="" fill="#FFFFFF" transform="translate(0,0)"/>
<path d="" fill="#FFFFFF" transform="translate(0,0)"/>
<path d="" fill="#FFFFFF" transform="translate(0,0)"/>
<path d="" fill="#FFFFFF" transform="translate(0,0)"/>
</svg>
